<svg width="1920" height="815" viewBox="0 0 1920 815" fill="none" xmlns="http://www.w3.org/2000/svg">
<path d="M22.4543 81.075C20.5807 78.0088 18.7176 77.5024 18.6623 79.9988C18.6227 83.1415 20.5559 86.0126 22.3144 85.3832C23.9582 84.7949 23.9927 83.5659 22.4543 81.075Z" fill="#F4A259"/>
<path d="M122.55 116.989C119.512 116.816 107.613 116.947 103.134 117.203C97.807 117.502 98.0015 117.562 96.9387 115.075C91.0261 100.723 89.2384 98.0174 88.2989 100.092C88.0545 100.614 90.7391 107.995 93.1171 113.314C96.0785 119.902 96.4946 120.1 105.506 119.613C111.256 119.293 113.586 119.415 115.887 119.46C102.508 124.249 75.8762 133.824 75.8211 133.669C75.7935 133.592 78.314 130.996 81.3743 127.858C88.198 120.897 87.864 122.494 84.3707 113.577C79.3184 100.786 79.3842 100.849 73.0691 100.676C68.6321 100.569 63.274 99.5757 60.1457 98.3056C57.6797 97.3197 57.409 97.2863 57.2121 98.1823C56.5972 100.923 50.3052 103.826 46.1541 103.313C28.644 101.02 23.3067 72.7321 40.1802 71.5596C42.5798 71.396 43.1671 71.2292 43.5889 70.6003C45.7147 67.6235 66.122 58.9729 78.2649 54.5836C79.3353 54.2005 89.688 51.7987 81.7931 51.6697C73.8461 51.5158 51.9243 59.1877 43.4568 66.737C42.7016 67.3984 41.4854 63.8796 42.0476 62.679C43.1507 60.4593 55.8595 53.4342 69.6405 49.2842C76.6839 47.1544 83.5293 46.399 87.2656 46.235C88.4601 46.1986 89.583 46.9264 89.9966 48.0819L90.3688 49.1219C91.444 52.1262 93.5007 54.2579 94.8387 53.779C95.4503 53.5601 95.4436 52.2155 94.8483 51.5161C93.7511 50.2577 98.6038 44.1758 101.547 43.1223C112.137 39.3325 117.638 56.873 115.064 68.961C112.698 80.0622 109.399 82.894 98.0892 83.4657C91.9013 83.7685 85.8623 85.4518 70.245 93.3876C65.8017 95.673 67.8639 96.9771 73.8244 94.7135C88.2027 89.22 96.2126 86.6574 95.7619 87.6877C95.2518 88.9132 92.1732 92.3613 89.9289 94.1639C86.3867 97.0393 89.6717 99.47 92.5333 96.621C94.6535 94.4717 98.0085 90.2294 99.2613 87.8257C100.343 85.7874 100.469 85.6557 101.451 85.8691C112.592 88.4426 120.066 78.5985 119.422 62.1002C118.723 44.3618 103.561 33.9287 94.2099 44.7925L92.559 46.6869L91.6837 45.5662C90.2374 43.6941 88.0421 42.7418 85.4069 42.729C72.7617 42.8227 47.8062 51.5369 39.0904 61.0435C37.9134 62.3338 37.5473 64.2028 38.14 65.859C38.1676 65.9361 39.3807 69.3256 39.3393 69.2101L38.1725 69.3235C21.6173 70.9034 20.763 95.6285 36.9749 104.295C43.486 107.787 51.1298 107.094 57.1105 102.477L59.1667 100.872L60.8831 101.692C63.4456 102.947 69.2654 103.906 73.4009 103.772L77.0991 103.622C78.7603 106.938 78.6193 106.424 83.8075 121.643C81.6597 123.715 69.8249 134.99 67.2886 136.94C64.5749 138.998 66.2781 140.865 68.5994 140.121C71.7373 139.128 81.7424 135.635 93.3257 131.489C109.802 125.592 124.8 120.746 124.762 120.759C126.436 120.377 126.077 117.204 122.55 116.989Z" fill="#F4A259"/>
<path d="M62.1788 111.699C61.0584 110.014 58.7145 111.418 59.6958 113.196C60.6909 115.012 60.0534 118.413 57.5097 117.932C54.9415 117.505 53.6287 113.716 57.8965 112.145C58.3553 111.981 58.9363 111.556 59.1732 111.254C60.3057 109.719 56.1244 110.086 54.3634 111.672C51.9236 113.892 53.1559 119.143 56.1997 119.574C60.6353 120.16 64.4472 115.145 62.1788 111.699Z" fill="#F4A259"/>
<path d="M43.6036 75.4615C36.561 73.3762 29.6953 79.1356 33.2958 88.2317C36.9896 97.4682 45.2779 101.106 53.3924 97.0291C56.3129 95.5494 56.3618 95.445 54.3171 92.7442C44.5509 79.5544 46.3095 76.2745 43.6036 75.4615ZM49.4062 95.8922C43.8438 96.0146 40.112 93.1789 37.5974 86.9964C34.821 80.0821 35.5016 77.4052 39.847 77.9791L42.0129 78.2468L43.1783 81.2623C44.4678 84.6244 47.7959 90.4288 50.2079 93.4327C52.0903 95.8006 52.1041 95.8391 49.4062 95.8922Z" fill="#F4A259"/>
<path d="M16.5473 71.197C18.8785 71.9269 19.4282 70.2094 18.0911 66.4732C16.2163 61.2349 13.823 59.0064 12.8716 61.6498C12.3783 63.043 15.3817 70.832 16.5473 71.197Z" fill="#F4A259"/>
<path d="M93.6458 37.4336C96.2711 35.9726 96.5854 31.4281 94.1057 30.4037C92.5866 29.7742 92.1722 30.1833 92.9636 31.5512C93.8484 33.0595 93.1496 36.0469 90.9838 35.7792C88.7798 35.5252 87.2622 31.7667 91.6447 30.1548C92.5622 29.8264 92.7131 29.1641 91.9254 29.0115C89.4061 28.4793 86.2306 30.5717 86.0074 33.5628C85.7277 36.8783 89.5497 39.7251 93.6458 37.4336Z" fill="#F4A259"/>
<path d="M19.6705 74.3805C20.084 75.536 24.2094 73.9292 28.4566 70.9752C32.3629 68.2737 27.7381 68.3646 23.4464 71.0738C20.4971 72.9549 19.4775 73.8412 19.6705 74.3805Z" fill="#F4A259"/>
<path d="M8.03454 77.4153C6.65391 78.257 6.79986 79.5083 8.30015 79.3624C10.0956 79.1977 16.7731 76.2865 17.2544 75.4625C18.3149 73.6056 11.9088 74.9859 8.03454 77.4153Z" fill="#F4A259"/>
<path d="M118.508 94.972C120.356 94.8322 120.615 93.8703 119.609 91.0586C118.299 87.3995 117.836 86.8267 116.536 87.2919C115.771 87.5656 115.51 87.9199 115.539 88.6046C115.807 91.1593 117.584 95.0419 118.508 94.972Z" fill="#F4A259"/>
<path d="M103.178 78.6456C113.635 80.0301 117.385 56.5282 107.818 49.4372C105.24 47.5356 101.563 47.5046 99.3325 49.3457C97.342 51.014 94.6733 57.0528 95.5456 58.0442C96.5251 59.2144 98.4905 68.2005 98.595 71.9867C98.7156 77.5052 99.1414 78.0915 103.178 78.6456ZM101.773 74.2386C101.733 70.9941 100.391 63.8704 99.1641 60.4424C97.1239 54.7419 101.125 47.9656 105.299 49.991C109.252 51.8785 110.706 65.219 107.767 72.3105C106.03 76.495 101.822 77.8708 101.773 74.2386Z" fill="#F4A259"/>
<path d="M120.521 104.332C120.434 108.186 123.082 111.366 125.273 110.017C126.946 109.028 126.339 106.247 123.829 103.452C122.586 102.028 120.543 102.586 120.521 104.332Z" fill="#F4A259"/>
<path d="M130.9 95.0118C129.132 95.2535 123.241 97.2313 122.549 97.8268C120.029 99.9451 127.287 99.2593 130.845 97.03C132.289 96.1224 132.334 94.8026 130.9 95.0118Z" fill="#F4A259"/>
<path d="M111.418 101.55C110.826 102.066 111.22 102.925 112.042 102.934C114.139 103.009 119.514 100.434 119.197 99.5481C118.932 98.6871 112.928 100.227 111.418 101.55Z" fill="#F4A259"/>
<path d="M81.02 60.1149C80.0086 59.2168 70.662 61.7798 63.7201 64.916C57.9219 67.5126 52.6776 70.693 50.3249 72.7951C48.1113 74.8039 49.3158 76.2413 51.7499 74.8487C55.1473 72.8941 68.5935 66.6045 72.6458 65.1542C80.3924 62.3383 82.2426 61.2416 81.02 60.1149Z" fill="#F4A259"/>
<path d="M1777.9 693.065C1777.78 688.532 1776.07 686.803 1774.43 689.496C1772.41 692.906 1772.71 697.263 1775.03 697.684C1777.19 698.079 1778.01 696.757 1777.9 693.065Z" fill="#F4A259"/>
<path d="M1864.62 795.461C1861.41 793.356 1848.32 785.992 1843.27 783.445C1837.26 780.411 1837.43 780.6 1837.84 777.212C1840.43 757.798 1840.19 753.713 1837.85 755.387C1837.26 755.804 1835.53 765.564 1834.78 772.876C1833.86 781.943 1834.18 782.423 1844.34 787.575C1850.82 790.854 1853.29 792.457 1855.78 793.958C1838.14 790.75 1803 784.411 1803.03 784.208C1803.05 784.106 1807.44 782.859 1812.77 781.361C1824.62 778.059 1823.24 779.594 1825.05 767.645C1827.6 750.48 1827.63 750.591 1820.84 746.417C1816.06 743.501 1810.83 739.035 1808.21 735.674C1806.14 733.04 1805.87 732.833 1805.09 733.688C1802.69 736.294 1793.98 735.498 1789.77 732.318C1772.08 718.765 1784.09 684.486 1803.27 693.85C1806 695.185 1806.74 695.373 1807.6 694.952C1811.8 693.041 1839.56 696.463 1855.6 699.327C1857.01 699.584 1869.84 703.491 1861.29 698.369C1852.71 693.187 1823.91 687.74 1809.89 690.647C1808.65 690.894 1809.54 686.281 1810.91 685.324C1813.52 683.594 1831.84 683.935 1849.52 688.095C1858.56 690.211 1866.52 693.705 1870.7 695.883C1872.03 696.597 1872.8 698.1 1872.52 699.624L1872.27 700.995C1871.55 704.957 1872.45 708.584 1874.22 708.904C1875.02 709.051 1875.87 707.578 1875.66 706.438C1875.25 704.37 1884.39 700.786 1888.27 701.492C1902.23 704.031 1897.18 726.67 1886.74 738.255C1877.15 748.893 1871.76 749.907 1859.04 743.396C1852.09 739.823 1844.43 737.852 1822.35 736.671C1816.06 736.365 1817.49 739.091 1825.43 740.378C1844.61 743.447 1854.98 745.7 1853.83 746.541C1852.5 747.559 1846.96 749.384 1843.37 749.938C1837.69 750.845 1839.74 755.574 1844.67 754.266C1848.34 753.255 1854.68 750.736 1857.57 748.9C1860.04 747.355 1860.26 747.29 1861.2 748.143C1871.75 757.985 1886.13 751.942 1895.83 733.508C1906.26 713.683 1896.27 692.716 1879.2 698.688L1876.2 699.716L1875.95 697.939C1875.55 694.981 1873.75 692.555 1870.88 690.879C1857.01 683.003 1824.24 676.781 1808.71 681.671C1806.61 682.338 1805.04 684.15 1804.64 686.333C1804.62 686.435 1803.81 690.904 1803.83 690.752L1802.49 690.14C1783.4 681.422 1766.87 707.901 1779.11 727.6C1784.03 735.524 1792.82 739.589 1802.27 738.317L1805.53 737.86L1806.88 739.839C1808.89 742.827 1814.65 747.547 1819.25 750.01L1823.39 752.179C1823.11 756.851 1823.28 756.2 1819.35 776.104C1815.69 777.014 1795.65 781.868 1791.64 782.399C1787.38 782.935 1788.06 786.05 1791.07 786.702C1795.13 787.597 1808.26 790.091 1823.54 792.869C1845.26 796.82 1864.71 800.986 1864.66 800.977C1866.73 801.616 1868.34 797.921 1864.62 795.461Z" fill="#F4A259"/>
<path d="M1801.99 751.592C1801.82 749.045 1798.38 749.1 1798.33 751.662C1798.27 754.274 1795.43 757.588 1792.95 755.458C1790.41 753.37 1791.37 748.402 1797.02 749.378C1797.63 749.488 1798.53 749.39 1798.98 749.21C1801.19 748.247 1796.39 746.01 1793.46 746.632C1789.4 747.519 1787.43 754.034 1790.48 756.426C1794.96 759.864 1802.29 756.79 1801.99 751.592Z" fill="#F4A259"/>
<path d="M1804.55 700.274C1798.17 693.552 1787.03 695.514 1785.23 707.726C1783.44 720.149 1790.2 729.354 1801.64 730.018C1805.76 730.244 1805.88 730.161 1805.35 725.919C1803 705.344 1806.99 702.87 1804.55 700.274ZM1798 726.261C1791.85 722.885 1789.56 717.432 1790.71 709.09C1792.04 699.782 1794.47 697.286 1798.86 700.655L1801.05 702.314L1800.43 706.345C1799.71 710.832 1799.69 719.275 1800.43 724.079C1800.99 727.854 1800.98 727.905 1798 726.261Z" fill="#F4A259"/>
<path d="M1777.67 678.544C1779.76 680.812 1781.45 679.282 1782.34 674.356C1783.6 667.449 1782.39 663.503 1779.68 665.792C1778.26 667.003 1776.63 677.409 1777.67 678.544Z" fill="#F4A259"/>
<path d="M1883.23 690.29C1887.02 690.35 1890.23 685.583 1888.16 682.899C1886.9 681.252 1886.19 681.438 1886.19 683.432C1886.21 685.638 1883.56 688.462 1881.36 686.803C1879.11 685.135 1879.83 680.07 1885.63 681.074C1886.84 681.294 1887.42 680.665 1886.66 680.002C1884.24 677.831 1879.45 678.114 1877.32 681.242C1874.92 684.688 1877.3 690.21 1883.23 690.29Z" fill="#F4A259"/>
<path d="M1779.08 683.993C1778.8 685.516 1784.32 686.363 1790.83 685.815C1796.8 685.327 1791.69 682.509 1785.29 682.762C1780.88 682.957 1779.21 683.282 1779.08 683.993Z" fill="#F4A259"/>
<path d="M1764.45 679.968C1762.41 680.017 1761.78 681.476 1763.51 682.263C1765.58 683.216 1774.71 684.248 1775.76 683.651C1778.09 682.291 1770.22 679.758 1764.45 679.968Z" fill="#F4A259"/>
<path d="M1874.09 768.852C1876.2 769.865 1877.09 768.978 1877.77 765.27C1878.64 760.445 1878.5 759.527 1876.78 759.215C1875.78 759.032 1875.27 759.254 1874.87 760.021C1873.55 762.981 1873.04 768.346 1874.09 768.852Z" fill="#F4A259"/>
<path d="M1867.64 741.339C1878.2 749.45 1897.12 726.134 1891.14 712.349C1889.52 708.644 1885.52 706.291 1881.92 706.895C1878.7 707.462 1871.97 712.378 1872.3 714.011C1872.63 715.908 1869.11 726.968 1866.83 731.171C1863.48 737.278 1863.58 738.187 1867.64 741.339ZM1868.89 735.637C1870.89 732.066 1873.92 723.435 1874.74 718.915C1876.11 711.399 1884.75 706.518 1888.04 711.365C1891.17 715.922 1884.34 731.417 1876.65 737.312C1872.12 740.789 1866.65 739.637 1868.89 735.637Z" fill="#F4A259"/>
<path d="M1870.39 780.35C1867.86 784.508 1868.75 789.653 1871.99 789.561C1874.45 789.535 1875.54 786.113 1874.56 781.476C1874.1 779.136 1871.51 778.456 1870.39 780.35Z" fill="#F4A259"/>
<path d="M1887.61 776.714C1885.53 775.862 1877.84 774.307 1876.71 774.521C1872.62 775.246 1880.98 779.076 1886.28 778.885C1888.43 778.804 1889.31 777.39 1887.61 776.714Z" fill="#F4A259"/>
<path d="M1862.2 771.567C1861.22 771.758 1861.11 772.944 1862 773.474C1864.25 774.879 1871.75 775.455 1871.96 774.287C1872.21 773.179 1864.68 771.075 1862.2 771.567Z" fill="#F4A259"/>
<path d="M1855.12 707.11C1854.58 705.491 1842.75 702.395 1833.19 701.442C1825.21 700.621 1817.47 700.788 1813.58 701.601C1809.89 702.399 1810.3 704.73 1813.84 704.744C1818.78 704.752 1837.45 706.362 1842.79 707.334C1853.03 709.144 1855.74 709.113 1855.12 707.11Z" fill="#F4A259"/>
<path fill-rule="evenodd" clip-rule="evenodd" d="M1880.14 0.249918C1879.52 0.471161 1877.26 2.4623 1875.14 4.63048C1868.94 10.9138 1862.97 13.1705 1859.03 10.781C1856.15 9.05535 1852.66 5.86946 1851.91 4.32076C1850.09 0.471139 1848.45 1.79861 1847.22 8.25889C1844.78 20.8255 1837.35 26.799 1826.24 25.2504C1819.91 24.3654 1819.43 24.6751 1822.39 28.1265C1831.6 38.8789 1826.91 56.7996 1813.41 62.4634C1811.02 63.4811 1811.37 63.9236 1816.77 66.6227C1825.4 70.9149 1830.31 82.7292 1827.61 92.5082C1826.73 95.6498 1826.73 97.11 1827.52 97.641C1828.41 98.2162 1830.18 98.1277 1830.98 97.4197C1832.97 95.694 1841.29 95.2958 1843.94 96.8002C1847.17 98.6144 1853.59 108.792 1853.59 112.11C1853.59 113.747 1855.49 116.668 1856.91 117.287C1859.38 118.349 1859.43 118.305 1863.54 112.818C1873.23 99.9419 1880.71 98.7472 1889.34 108.615C1894.16 114.101 1896.42 114.101 1897.22 108.57C1899.34 93.7913 1908.59 84.6319 1918.41 87.5965C1924.25 89.3665 1924.38 88.747 1921.07 77.6406C1919.69 73.1715 1920.05 68.4369 1921.95 64.9413C1924.34 60.5607 1928.1 55.0739 1929.92 53.3482C1932.35 51.003 1931.51 49.3658 1927.88 49.3658C1924.16 49.3658 1918.54 43.6135 1916.69 37.9054C1915.36 33.9673 1916.77 24.9406 1919.56 19.144C1920.58 17.0201 1920.05 15.6042 1918.01 15.1174C1916.86 14.8077 1915.14 15.4714 1915.14 16.1351C1915.14 17.5068 1901.46 18.5246 1896.99 17.5069C1889.91 15.8697 1882.53 7.72789 1883.5 2.59506C1883.76 0.648122 1882.22 -0.546556 1880.14 0.249918ZM1882.39 10.6926C1885.98 18.3476 1897.04 22.0644 1910.89 20.3387L1913.32 20.029L1912.44 22.0644C1907.39 33.8345 1912.17 46.6666 1923.23 50.8702C1925.71 51.7994 1925.8 51.357 1922.44 55.4278C1913.23 66.667 1912.17 71.6671 1917.08 81.3132C1918.19 83.4372 1918.9 85.1628 1918.72 85.1628C1918.54 85.1628 1916.86 84.8974 1914.96 84.5434C1909.78 83.6142 1907.17 84.3221 1902.44 87.8178C1895.76 92.7736 1892.92 97.9065 1892.92 105.207V106.889L1890.14 104.632C1879.91 96.3135 1868.45 98.2162 1859.96 109.632L1858.68 111.314L1856.82 107.42C1851.95 97.0657 1844.78 92.3311 1835.67 93.4374L1832.22 93.8356L1832.48 92.4639C1834.47 81.446 1829.47 70.0299 1820.58 65.3395L1817.92 63.9235L1821.68 60.0297C1831.73 49.6313 1833.81 39.5869 1827.83 29.9849L1826.95 28.569L1829.34 28.8345C1839.21 29.8522 1850.09 21.5777 1851.15 12.197L1851.46 9.58635L1853.5 11.0465C1861.64 16.8431 1869.56 16.1351 1877.3 8.87839C1880.18 6.22347 1880.36 6.09071 1880.76 6.97568C1880.93 7.55091 1881.68 9.18812 1882.39 10.6926ZM1863.9 23.6574C1824.87 34.1885 1832.57 96.3577 1872.57 93.5258C1907.75 91.0479 1921.33 40.8258 1890.31 27.1088C1885.31 24.8963 1884.25 27.4185 1889.21 30.7371C1920.76 51.8437 1889.65 105.96 1857.17 86.4461C1832.97 71.9325 1840.8 37.1974 1865.67 27.5513C1868.9 26.3123 1873.99 25.3388 1877.75 25.5601C1881.68 25.7813 1882.97 23.3919 1878.01 22.6397C1874.16 22.0202 1867.57 22.6396 1863.9 23.6574Z" fill="#091C00"/>
<path fill-rule="evenodd" clip-rule="evenodd" d="M640.367 580.652C629.247 583.621 619.442 592.296 620.235 607.423C620.853 618.703 620.945 618.775 631.422 615.301C640.257 612.359 639.825 612.911 638.991 606.024C638.281 600.162 639.518 596.643 643.708 593.806C653.017 587.562 661.759 599.98 662.265 604.161C662.822 608.752 659.835 611.568 649.868 615.812C641.721 619.294 639.438 623.106 640.168 631.877C640.399 634.47 640.361 636.554 640.113 636.917C639.031 638.628 643.632 639.527 648.296 638.546C662.285 635.561 662.095 635.709 660.67 630.475C659.776 627.214 660.044 626.682 663.281 625.25C671.1 621.807 675.166 616.573 676.632 608.077C680.505 586.145 664.709 574.209 640.367 580.652ZM653.906 581.507C663.293 581.742 673.346 592.628 672.875 602.127C672.442 610.914 668.41 616.768 659.527 621.379C655.221 623.606 654.045 625.912 654.61 630.918L654.947 633.705C650.006 634.803 649.678 634.843 646.458 635.732C645.567 623.57 644.598 622.439 658.925 615.38C667.914 610.963 669.015 602.885 661.805 594.525C650.24 581.119 626.202 593.848 633 609.786C633.299 610.54 633.506 611.222 633.434 611.314C633.326 611.452 628.141 613.286 627.731 613.336C627.69 613.341 626.793 608.334 626.338 606.642C622.373 592.107 636.975 581.146 653.906 581.507ZM645.624 643.611C638.653 647.866 639.459 656.919 646.945 658.632C661.877 662.064 673.802 652.009 664.61 643.765C661.894 641.265 649.572 641.178 645.624 643.611ZM656.416 644.799C659.755 644.894 662.942 647.169 663.24 649.629C663.792 654.179 652.915 657.784 648.446 654.541C646.255 652.935 644.561 644.447 656.416 644.799Z" fill="#091C00"/>
<path fill-rule="evenodd" clip-rule="evenodd" d="M955.507 61.1864C954.717 61.4982 951.48 63.5174 948.321 65.5925C940.294 70.9123 939.386 71.4234 938.071 72.3063C926.021 71.0278 923.113 69.8316 923.568 80.8368C923.649 82.5483 923.537 82.705 919.384 86.6716C909.486 96.1415 910.022 95.2236 912.092 98.9892C912.525 99.8412 919.234 113.22 919.234 113.22C918.163 117.278 918.23 117.681 916.177 119.101C914.031 120.551 909.798 124.2 906.551 127.394C905.309 128.637 903.878 129.981 903.379 130.382C901.174 132.214 894.689 140.215 893.389 142.669C889.627 149.702 892.929 150.612 904.308 145.599L908.051 143.964C906.837 158.672 906.492 160.317 909.3 160.757C910.109 160.884 916.619 154.673 920.945 149.6C925.74 144.036 935.441 134.709 935.934 135.179C939.019 137.753 940.532 139.776 946.13 143.005C946.77 143.367 947.543 143.445 948.228 143.247C949.329 142.897 951.079 142.3 955.168 140.414C959.256 138.528 959.348 138.499 960.079 139.398C961.792 141.539 970.237 159.982 972.026 165.533C974.371 172.827 976.171 174.416 978.768 169.247C980.615 165.529 982.742 158.631 983.984 154.6C983.984 154.6 993.052 162.948 993.845 163.725C995.433 165.281 996.922 165.514 999.072 164.588C1003 162.895 992.093 135.964 984.102 127.698C982.378 125.903 981.595 124.779 981.819 124.465C982.035 124.194 985.576 121.352 989.658 118.114C1000.49 109.619 1000.33 111.205 991.324 98.8601C987.161 93.1547 986.508 91.484 986.215 90.567C986.069 90.1085 986.614 87.1881 986.711 84.0669C986.87 77.2092 987.242 77.616 979.772 76.881C975.136 76.4159 974.292 76.2401 973.62 75.5248C962.008 63.3812 958.858 59.8383 955.507 61.1864ZM961.836 68.9301C967.854 75.3182 970.918 78.02 972.394 78.3384C973.997 78.6768 980.924 79.5445 982.76 79.7887L981.976 87.8552C981.858 88.8823 982.137 89.8843 982.655 90.7496C989.738 101.748 989.835 102.242 993.108 108.897C983.609 117.21 980.715 120.938 978.529 122.643C977.089 123.768 977.239 123.922 976.05 132.622C965.443 131.875 965.732 131.702 962.126 133.01C952.601 136.483 947.454 140.12 947.454 140.12L943.987 137.486C940.99 135.187 934.142 129.365 932.488 127.407C932.259 127.197 931.402 125.712 929.389 125.484L921.372 124.62L922.645 115.105C922.993 112.328 921.705 110.253 914.974 98.3955C925.34 86.7773 923.473 88.4014 927.389 83.4393C928.375 82.1563 928.913 77.8846 929.4 74.7809C929.486 74.2282 929.985 73.8272 930.545 73.8713C939.404 74.6497 940.284 74.8747 944.544 72.4495C950.106 69.2264 955.876 65.5131 956.224 64.9578C956.816 63.9616 957.836 64.6877 961.836 68.9301ZM967.204 80.5745C963.41 77.8018 955.387 75.5862 950.582 75.9224C917.134 78.2168 915.77 126.704 949.015 131.827C975.367 135.869 994.149 101.699 974.628 85.2227C970.851 82.0608 968.852 83.9691 972.468 87.3236C992.991 106.309 962.242 141.174 939.177 125.058C914.615 107.923 934.067 71.9838 963.003 81.7892C966.35 82.9671 969.28 82.0758 967.204 80.5745ZM948.714 85.3435C940.309 86.1174 932.518 103.846 936.518 104.472C937.283 104.592 937.77 103.71 938.117 101.499C938.943 96.2273 946.491 87.5653 950.867 86.9008C953.01 86.5831 951.013 85.1376 948.714 85.3435ZM954.584 91.8393C953.118 92.5679 949.856 96.4129 946.591 99.1682C946.086 99.6118 946.008 100.384 946.494 100.896C946.974 101.45 948.801 101.475 950.11 100.634C952.003 99.4065 952.094 99.3773 951.722 100.364C951.092 101.877 949.574 106.562 949.179 108.243C948.819 109.711 948.819 109.711 945.937 109.738C938.036 109.807 942.127 114.02 944.715 115.035C947.053 115.968 950.762 116.506 955.997 116.76C960.538 116.992 959.636 111.624 954.998 110.897C952.913 110.57 952.938 110.966 955.128 103.947C958.156 94.3593 958.365 93.303 957.336 92.3577C956.285 91.2781 955.859 91.2115 954.584 91.8393ZM971.227 104.423C970.381 109.823 966.541 115.406 961.74 118.226C957.467 120.736 956.915 122.305 960.337 122.449C966.096 122.698 976.246 107.17 973.13 102.848C972.148 101.605 971.593 102.084 971.227 104.423ZM987.37 141.061C990.758 147.821 994.212 156.377 993.85 157.018C993.738 157.174 991.395 155.718 988.607 153.757C981.662 148.835 980.99 148.947 979.373 155.097C976.676 165.347 976.676 165.347 973.375 157.207C969.237 146.888 967.925 145.245 962.416 137.281C964.749 135.469 965.131 134.701 972.777 135.986C978.763 137.011 978.438 137.135 979.785 132.99L980.885 129.59C982.235 131.544 983.361 132.984 987.37 141.061ZM917.556 124.763C917.316 127.687 919.153 128.759 925.932 129.734C933.434 130.823 933.47 130.872 928.57 135.157C918.671 143.799 915.236 148.749 911.266 154.052C912.239 140.613 912.599 140.539 909.905 140.204C908.367 140.006 902.864 142.019 900.523 143.046C898.457 143.986 898.67 142.625 899.088 141.906C900.598 139.225 917.007 122.15 917.444 122.698C917.545 122.888 917.611 123.856 917.556 124.763Z" fill="#F4A259"/>
<path fill-rule="evenodd" clip-rule="evenodd" d="M54.8114 579.333C53.9857 579.628 50.9782 582.282 48.1474 585.171C39.891 593.546 31.9293 596.553 26.6806 593.369C22.8473 591.069 18.1886 586.823 17.186 584.759C14.7681 579.628 12.5857 581.397 10.9344 590.007C7.69082 606.756 -2.21648 614.718 -17.019 612.653C-25.4523 611.474 -26.1011 611.887 -22.1499 616.487C-9.88324 630.818 -16.1344 654.702 -34.1215 662.251C-37.3061 663.607 -36.8345 664.197 -29.6397 667.794C-18.1397 673.515 -11.5936 689.261 -15.191 702.294C-16.3705 706.481 -16.3706 708.427 -15.3091 709.135C-14.1296 709.902 -11.7708 709.784 -10.7092 708.84C-8.05538 706.54 3.03221 706.009 6.57066 708.015C10.8758 710.433 19.4269 723.997 19.4269 728.42C19.4269 730.602 21.9628 734.494 23.85 735.32C27.1525 736.735 27.2115 736.676 32.6961 729.363C45.6114 712.202 55.5779 710.609 67.0779 723.761C73.5061 731.073 76.5136 731.074 77.5752 723.702C80.4059 704.004 92.7318 691.797 105.824 695.748C113.609 698.107 113.786 697.281 109.362 682.479C107.534 676.522 108.006 670.212 110.542 665.553C113.727 659.715 118.739 652.402 121.157 650.102C124.401 646.976 123.28 644.794 118.444 644.794C113.49 644.794 106.001 637.128 103.524 629.52C101.755 624.271 103.642 612.241 107.357 604.515C108.714 601.684 108.006 599.797 105.293 599.148C103.76 598.736 101.46 599.62 101.46 600.505C101.46 602.333 83.2367 603.689 77.2803 602.333C67.8444 600.151 57.9958 589.3 59.2932 582.459C59.647 579.864 57.5832 578.272 54.8114 579.333ZM57.8188 593.251C62.5957 603.453 77.3395 608.407 95.7984 606.107L99.042 605.694L97.8625 608.407C91.1395 624.094 97.5083 641.197 112.252 646.799C115.554 648.038 115.672 647.448 111.19 652.874C98.9238 667.853 97.5087 674.517 104.055 687.374C105.529 690.204 106.473 692.504 106.237 692.504C106.001 692.504 103.76 692.151 101.224 691.679C94.3242 690.44 90.8442 691.384 84.534 696.043C75.6289 702.648 71.8546 709.489 71.8546 719.22V721.461L68.1393 718.453C54.5163 707.366 39.2419 709.902 27.9188 725.117L26.2089 727.358L23.7319 722.168C17.2447 708.368 7.69106 702.058 -4.45762 703.533L-9.05748 704.063L-8.70387 702.235C-6.05003 687.551 -12.7143 672.335 -24.5681 666.084L-28.1066 664.197L-23.0938 659.007C-9.70666 645.148 -6.93464 631.761 -14.8962 618.964L-16.0756 617.077L-12.8908 617.43C0.260429 618.787 14.7679 607.759 16.1833 595.256L16.5963 591.777L19.3088 593.723C30.1601 601.448 40.7163 600.505 51.0368 590.833C54.8701 587.295 55.1059 587.118 55.6367 588.297C55.8726 589.064 56.8753 591.246 57.8188 593.251ZM33.1678 610.53C-18.8474 624.566 -8.58615 707.425 44.7265 703.651C91.6109 700.348 109.716 633.412 68.3754 615.13C61.7114 612.182 60.296 615.543 66.9011 619.966C108.95 648.097 67.4906 720.222 24.2036 694.215C-8.05527 674.871 2.38326 628.576 35.5267 615.72C39.8318 614.069 46.6138 612.771 51.6265 613.066C56.8753 613.361 58.5858 610.177 51.9807 609.174C46.85 608.348 38.0626 609.174 33.1678 610.53Z" fill="#091C00"/>
</svg>
