<svg width="57" height="75" viewBox="0 0 57 75" fill="none" xmlns="http://www.w3.org/2000/svg">
<path d="M54.5569 58.3083H54.4268L54.3011 58.3415C54.2343 58.3592 54.1865 58.3647 54.1518 58.3647H8.52875C5.25338 58.3647 2.73219 61.1843 2.55481 64.5146L2.55313 64.5461L2.55344 64.5776C2.55507 64.7428 2.55743 64.871 2.55919 64.9587L2.55842 64.9667L2.55606 64.9919C2.55431 65.0112 2.55201 65.0389 2.55041 65.0708L2.54825 65.114L2.54983 65.1573C2.67353 68.54 5.21542 71.4238 8.52875 71.4238H52.8209H53.8209V70.4238V65.0167C53.8209 64.3906 54.2587 64.0605 54.586 64.0605C54.9135 64.0605 55.3512 64.3905 55.3512 65.0167V72.3798C55.3512 73.0066 54.9138 73.3359 54.586 73.3359H8.26362C8.26197 73.3358 8.25711 73.3354 8.2481 73.3343C8.22917 73.332 8.20595 73.3283 8.16022 73.3205L8.11133 73.3122L8.06186 73.3088C4.21676 73.0411 1.0078 69.4571 1.0078 64.8942C1.0078 64.8706 1.00909 64.8411 1.0125 64.7872L1.01386 64.766C1.01688 64.7194 1.02127 64.6517 1.02326 64.5845L1.02383 64.5651L1.02365 64.5457C0.969908 58.7444 1.02369 14.571 1.02982 9.75745L1.02988 9.71146L1.02571 9.66566C1.02284 9.6341 1.01954 9.60585 1.01715 9.58605L1.01176 9.54148C1.01159 9.54 1.01144 9.53868 1.01131 9.5375C1.01871 4.79279 4.48374 1.11145 8.53123 1.11145H11.3518H54.1553H54.5862C54.9139 1.11145 55.3514 1.44121 55.3513 2.06744V2.06757V57.3542C55.3513 57.9653 54.9354 58.2937 54.6107 58.3096C54.5951 58.3088 54.577 58.3083 54.5569 58.3083ZM54.6732 58.3144L54.67 58.3141L54.6732 58.3144ZM11.4975 6.5966C9.87666 6.5966 8.73234 8.01977 8.73234 9.55272V49.2869C8.73234 50.8189 9.87646 52.243 11.4975 52.243C13.1184 52.243 14.2626 50.8192 14.2626 49.2869V9.55272C14.2626 8.01977 13.1183 6.5966 11.4975 6.5966Z" stroke="#3EBA04" stroke-width="2"/>
</svg>
