<svg width="914" height="1347" viewBox="0 0 914 1347" fill="none" xmlns="http://www.w3.org/2000/svg">
<g filter="url(#filter0_f_4_2902)">
<rect x="600" y="600" width="554" height="554" rx="277" fill="#4AD906"/>
</g>
<path d="M778.335 821.928C780.739 821.529 780.87 821.585 781.382 823.727C786.85 845.699 820.554 839.785 822.801 816.456C823.279 811.636 824.502 809.645 827.24 809.482C828.322 809.417 828.791 809.772 828.84 810.6C829.766 826.071 855.485 835.139 864.871 823.268C868.2 819.107 871.834 811.478 872.029 808.335L872.176 805.451L875.846 804.848C882.231 803.7 882.149 803.385 872.554 790.413C855.871 767.898 843.453 758.992 837.23 764.988C835.359 766.825 835.546 766.75 835.946 780.911C836.003 781.866 836.69 782.655 837.596 782.856C841.538 783.579 845.8 780.065 842.402 778.799C840.963 778.246 840.888 778.059 841.014 773.77C841.214 767.497 841.648 767.279 846.121 771.548C856.424 781.411 863.074 786.827 866.053 791.761C866.83 792.992 866.778 793.187 866.099 792.525C865.293 791.87 861 791.679 861.038 792.316C861.046 792.443 862.032 793.982 863.218 795.636C874.598 811.76 857.106 834.467 842.999 821.893C832.405 812.495 840.026 792.487 854.543 791.619C858.554 791.379 859.213 790.636 856.522 789.456C849.039 786.133 836.722 792.813 831.706 802.953L830.054 806.31L825.604 806.704C823.061 806.92 821.14 806.844 821.117 806.462C821.041 805.188 817.708 802.896 816.117 802.991C814.079 803.113 814.117 803.749 816.262 806.496C825.545 818.528 810.103 838.11 796.305 831.779C778.958 823.808 789.939 795.867 808.623 800.564C814.007 801.903 814.834 801.854 814.099 800.236C809.023 789.103 786.9 798.477 782.563 813.56C781.402 817.655 781.282 817.79 779.117 817.92C777.271 818.03 776.941 817.858 777.266 816.88C777.483 816.229 778.649 810.089 779.957 803.11C784.01 781.143 789.741 766.934 791.879 773.835C793.229 778.227 793.881 787.005 792.863 787.066C790.188 787.226 790.44 791.428 793.216 791.901C799.161 793.015 800.208 776.34 794.503 771.761C788.127 766.648 781.188 772.43 778.021 785.718C777.257 788.959 775.805 794.604 774.813 798.306C769.689 817.334 770.609 823.093 778.335 821.928Z" fill="white"/>
<path d="M908.462 871.52C901.833 857.924 899.796 862.327 903.437 869.776C905.479 873.999 905.798 875.066 904.952 874.797C890.935 870.141 863.759 880.521 847.861 896.743L840.272 904.481C839.505 898.073 839.093 894.392 838.653 892.374C838.292 890.606 835.396 890.268 835.196 892.261C834.955 894.64 835.27 898.838 835.67 905.523L833.563 903.413C823.091 892.858 794.252 891.452 767.622 900.266C763.173 901.746 763.246 902.956 766.69 886.84C771.321 864.902 772.411 854.294 773.306 850.023C773.701 848.083 794.499 846.455 802.433 847.705C809.851 848.859 826.525 855.209 829.041 857.742C829.858 858.588 830.716 862.243 832.295 871.541C834.661 885.456 834.795 884.49 836.035 884.927C838.249 885.625 836.432 873.402 834.678 857.98L842.661 851.496C861.554 836.181 878.825 836.49 881.847 835.734L886.292 841.666C896.148 854.75 897.79 859.763 898.817 856.635C899.194 855.462 886.414 833.032 884.536 831.547C880.982 828.757 852.778 829.422 834.681 849.482C829.948 854.749 830.51 854.524 827.714 852.646C809.67 840.5 770.732 837.973 769.211 848.863C768.266 855.5 760.67 882.344 758.396 899.859C757.835 904.366 757.84 905.515 758.624 906.874C759.551 908.48 760.004 908.581 762.648 907.911C763.782 907.652 764 908.086 764.72 912.644C765.519 917.452 766.967 920.304 768.195 919.464C769.056 918.901 768.87 920.063 767.931 921.461C765.702 924.789 768.761 931.059 772.375 930.587C773.959 930.365 774.424 930.657 775.092 932.214C776.204 934.767 777.429 934.949 779.992 932.943C782.68 930.865 787.523 927.445 795.81 924.968C804.096 922.492 830.638 922.884 833.321 923.938C834.958 924.607 835.794 924.684 836.082 924.156C836.314 923.759 838.448 923.12 840.92 922.78C849.219 921.581 862.435 919.257 868.359 917.88C877.182 915.819 893.958 915.326 899.615 916.968C905.921 918.763 907.698 916.421 903.289 912.148C901.729 910.644 901.654 910.457 902.819 910.707C911.937 912.525 913.406 909.306 907.558 900.2C904.951 896.139 904.962 896.33 908.336 896.128C912.348 895.888 912.066 894.371 906.927 887.522C902.277 881.347 902.273 881.283 907.469 882.698C913.704 884.369 913.851 882.571 908.462 871.52ZM792.261 915.852C784.598 917.013 777.692 921.196 777.007 921.493C775.943 921.876 775.201 921.217 775.548 919.535C775.741 918.501 775.987 917.273 776.021 916.76C776.332 913.418 797.659 908.884 807.949 909.993C818.045 911.05 819.551 911.663 828.329 914.205C813.624 914.062 800.429 914.596 792.261 915.852ZM834.393 909.817C801.758 902.632 789.132 903.068 772.465 911.797C770.238 913.016 768.309 913.898 768.238 913.775C768.099 913.591 767.504 910.049 766.841 906.447C782.089 901.764 794.235 897.587 809.507 898.654C814.062 898.957 820.312 900.883 825.127 903.406C833.376 907.769 837.244 910.477 834.393 909.817ZM852.558 900.487C869.284 884.215 881.422 878.825 895.822 881.35C897.306 881.58 903.535 888.492 902.936 889.167C902.816 889.302 901.468 889.191 899.917 888.9C887.854 887.002 881.166 888.425 865.6 896.321C861.508 898.418 857.224 900.528 856.105 901.042C851.504 903.17 840.542 912.196 852.558 900.487ZM899.866 901.938C892.074 900.934 883.239 901.719 875.391 904.041C869.489 905.8 851.504 910.646 850.9 910.171C850.567 909.935 859.334 904.81 863.71 902.12C872.585 896.669 883.501 894.355 896.645 895.102C899.466 895.253 899.867 895.548 902.421 898.718C905.804 902.924 905.92 902.726 899.866 901.938Z" fill="white"/>
<defs>
<filter id="filter0_f_4_2902" x="0" y="0" width="1754" height="1754" filterUnits="userSpaceOnUse" color-interpolation-filters="sRGB">
<feFlood flood-opacity="0" result="BackgroundImageFix"/>
<feBlend mode="normal" in="SourceGraphic" in2="BackgroundImageFix" result="shape"/>
<feGaussianBlur stdDeviation="300" result="effect1_foregroundBlur_4_2902"/>
</filter>
</defs>
</svg>
