<svg width="48" height="69" viewBox="0 0 48 69" fill="none" xmlns="http://www.w3.org/2000/svg">
<path d="M28.5504 58.248L27.8151 56.3881L27.8075 56.3911L27.8 56.3941L28.5504 58.248ZM31.8164 56.132L33.2552 57.5212L33.267 57.509L33.2785 57.4966L31.8164 56.132ZM33.7484 52.912L35.6361 53.5727L35.6386 53.5655L35.6411 53.5583L33.7484 52.912ZM31.8164 41.182L30.3421 42.5334L30.3538 42.5463L30.3658 42.5589L31.8164 41.182ZM16.1304 41.182L14.6683 39.8174L14.6675 39.8182L16.1304 41.182ZM14.2444 52.912L12.3517 53.5583L12.3542 53.5655L12.3567 53.5727L14.2444 52.912ZM16.1764 56.132L14.7143 57.4966L14.7258 57.509L14.7376 57.5212L16.1764 56.132ZM19.3964 58.248L18.646 60.1019L18.6535 60.1049L18.6611 60.1079L19.3964 58.248ZM19.9484 10.638L19.1546 8.80228L19.1453 8.80628L19.1361 8.81037L19.9484 10.638ZM17.1884 12.616L15.6936 11.2873L15.6904 11.2908L17.1884 12.616ZM15.6244 15.422L17.5324 16.0217L17.5324 16.0217L15.6244 15.422ZM15.5324 22.46L13.5836 22.9097L13.5862 22.9209L15.5324 22.46ZM16.9584 25.588L18.5712 24.4053V24.4053L16.9584 25.588ZM19.6724 27.796L18.7975 29.5945L18.7975 29.5945L19.6724 27.796ZM28.3204 27.796L29.1953 29.5945L29.1953 29.5945L28.3204 27.796ZM31.0344 25.588L29.4216 24.4053L29.4216 24.4053L31.0344 25.588ZM32.4604 22.46L34.4066 22.9209L34.4092 22.9097L32.4604 22.46ZM32.3684 15.422L30.4604 16.0217L30.4604 16.0217L32.3684 15.422ZM30.7584 12.616L29.2359 13.9129L29.2618 13.9433L29.2888 13.9726L30.7584 12.616ZM27.9984 10.638L27.1861 12.4656L27.1953 12.4697L27.2046 12.4737L27.9984 10.638ZM35.8644 33.224L35.0637 31.3913L30.2937 33.4753L35.232 35.1214L35.8644 33.224ZM44.6964 39.342L43.038 40.46L43.044 40.4687L44.6964 39.342ZM45.7544 57.19L47.5656 58.0383H47.5656L45.7544 57.19ZM40.9704 63.4L42.2394 64.9459L42.2462 64.9402L42.253 64.9346L40.9704 63.4ZM33.5644 67.356L34.1725 69.2613L34.1817 69.2584L34.1908 69.2554L33.5644 67.356ZM14.4284 67.356L13.802 69.2554L13.8112 69.2584L13.8203 69.2613L14.4284 67.356ZM7.02241 63.4L5.73979 64.9346L5.74658 64.9402L5.75342 64.9459L7.02241 63.4ZM2.23841 57.19L4.0496 56.3417L2.23841 57.19ZM3.29641 39.342L4.94888 40.4687L4.95475 40.46L3.29641 39.342ZM12.1284 33.224L12.7609 35.1214L17.6991 33.4753L12.9291 31.3913L12.1284 33.224ZM5.04441 27.428L3.34253 28.4785L3.3472 28.4861L3.35194 28.4936L5.04441 27.428ZM4.30841 11.42L6.11227 12.2838L6.1169 12.274L4.30841 11.42ZM8.67841 5.716L9.97588 7.23803L9.97797 7.23624L8.67841 5.716ZM15.4404 1.898L16.106 3.78398L16.106 3.78398L15.4404 1.898ZM32.5524 1.898L31.8868 3.78398L31.8868 3.78398L32.5524 1.898ZM39.2684 5.716L37.9567 7.22574L37.9698 7.23717L37.9832 7.24838L39.2684 5.716ZM43.6844 11.42L41.8759 12.274L41.8806 12.2838L43.6844 11.42ZM42.9024 27.428L41.2099 26.3624L41.2052 26.3699L41.2005 26.3775L42.9024 27.428ZM23.9964 61.03C25.9377 61.03 27.7216 60.7411 29.3008 60.1019L27.8 56.3941C26.8032 56.7976 25.5511 57.03 23.9964 57.03V61.03ZM29.2857 60.1079C30.8309 59.497 32.1712 58.6439 33.2552 57.5212L30.3776 54.7428C29.7443 55.3987 28.9073 55.9563 27.8151 56.3881L29.2857 60.1079ZM33.2785 57.4966C34.3325 56.3673 35.1183 55.0522 35.6361 53.5727L31.8607 52.2513C31.5199 53.2251 31.0176 54.0567 30.3543 54.7674L33.2785 57.4966ZM35.6411 53.5583C36.1473 52.076 36.3924 50.5066 36.3924 48.864H32.3924C32.3924 50.1041 32.2082 51.2334 31.8557 52.2657L35.6411 53.5583ZM36.3924 48.864C36.3924 45.212 35.4401 42.0947 33.267 39.8051L30.3658 42.5589C31.6273 43.888 32.3924 45.892 32.3924 48.864H36.3924ZM33.2907 39.8306C31.0901 37.4299 27.8463 36.422 23.9964 36.422V40.422C27.1998 40.422 29.1694 41.2541 30.3421 42.5334L33.2907 39.8306ZM23.9964 36.422C20.1435 36.422 16.8956 37.431 14.6683 39.8174L17.5925 42.5466C18.7999 41.253 20.796 40.422 23.9964 40.422V36.422ZM14.6675 39.8182C12.5324 42.1086 11.6004 45.221 11.6004 48.864H15.6004C15.6004 45.883 16.3551 43.874 17.5933 42.5458L14.6675 39.8182ZM11.6004 48.864C11.6004 50.5066 11.8455 52.076 12.3517 53.5583L16.1371 52.2657C15.7846 51.2334 15.6004 50.1041 15.6004 48.864H11.6004ZM12.3567 53.5727C12.8745 55.0522 13.6603 56.3673 14.7143 57.4966L17.6385 54.7674C16.9752 54.0567 16.473 53.2251 16.1321 52.2513L12.3567 53.5727ZM14.7376 57.5212C15.8135 58.6355 17.1308 59.4886 18.646 60.1019L20.1468 56.3941C19.086 55.9647 18.2567 55.4072 17.6152 54.7428L14.7376 57.5212ZM18.6611 60.1079C20.2614 60.7406 22.0534 61.03 23.9964 61.03V57.03C22.4434 57.03 21.1688 56.7981 20.1317 56.3881L18.6611 60.1079ZM23.9964 7.902C22.2292 7.902 20.5969 8.1786 19.1546 8.80228L20.7422 12.4737C21.5693 12.1161 22.6356 11.902 23.9964 11.902V7.902ZM19.1361 8.81037C17.7955 9.4062 16.6356 10.2276 15.6936 11.2873L18.6832 13.9447C19.2133 13.3484 19.8933 12.8511 20.7607 12.4656L19.1361 8.81037ZM15.6904 11.2908C14.7885 12.3104 14.1331 13.4966 13.7164 14.8223L17.5324 16.0217C17.7904 15.2007 18.1777 14.5162 18.6864 13.9411L15.6904 11.2908ZM13.7164 14.8223C13.3159 16.0966 13.1184 17.4186 13.1184 18.78H17.1184C17.1184 17.8107 17.2582 16.8941 17.5324 16.0217L13.7164 14.8223ZM13.1184 18.78C13.1184 20.185 13.2728 21.5627 13.5836 22.9097L17.4812 22.0103C17.24 20.9653 17.1184 19.8897 17.1184 18.78H13.1184ZM13.5862 22.9209C13.9208 24.3336 14.5048 25.6242 15.3456 26.7707L18.5712 24.4053C18.0627 23.7118 17.696 22.9171 17.4786 21.9991L13.5862 22.9209ZM15.3456 26.7707C16.2323 27.9798 17.402 28.9156 18.7975 29.5945L20.5473 25.9975C19.6735 25.5724 19.0339 25.0362 18.5712 24.4053L15.3456 26.7707ZM18.7975 29.5945C20.2889 30.32 22.0552 30.624 23.9964 30.624V26.624C22.4416 26.624 21.3253 26.376 20.5473 25.9975L18.7975 29.5945ZM23.9964 30.624C25.9376 30.624 27.704 30.32 29.1953 29.5945L27.4455 25.9975C26.6675 26.376 25.5512 26.624 23.9964 26.624V30.624ZM29.1953 29.5945C30.5908 28.9156 31.7606 27.9798 32.6472 26.7707L29.4216 24.4053C28.9589 25.0362 28.3193 25.5724 27.4455 25.9975L29.1953 29.5945ZM32.6472 26.7707C33.488 25.6242 34.072 24.3336 34.4066 22.9209L30.5142 21.9991C30.2968 22.9171 29.9301 23.7118 29.4216 24.4053L32.6472 26.7707ZM34.4092 22.9097C34.72 21.5627 34.8744 20.185 34.8744 18.78H30.8744C30.8744 19.8897 30.7528 20.9653 30.5116 22.0103L34.4092 22.9097ZM34.8744 18.78C34.8744 17.4186 34.6769 16.0966 34.2764 14.8223L30.4604 16.0217C30.7346 16.8941 30.8744 17.8107 30.8744 18.78H34.8744ZM34.2764 14.8223C33.8539 13.4781 33.1716 12.2817 32.228 11.2594L29.2888 13.9726C29.8172 14.545 30.2082 15.2192 30.4604 16.0217L34.2764 14.8223ZM32.2809 11.3191C31.3516 10.2281 30.1693 9.39776 28.7922 8.80228L27.2046 12.4737C28.0969 12.8596 28.7546 13.3479 29.2359 13.9129L32.2809 11.3191ZM28.8107 8.81037C27.3875 8.17784 25.7612 7.902 23.9964 7.902V11.902C25.3596 11.902 26.4013 12.1168 27.1861 12.4656L28.8107 8.81037ZM35.232 35.1214C38.9861 36.3728 41.5093 38.1923 43.0381 40.46L46.3548 38.224C44.2035 35.033 40.8387 32.7739 36.4969 31.3266L35.232 35.1214ZM43.044 40.4687C44.6221 42.7833 45.4564 45.6255 45.4564 49.094H49.4564C49.4564 44.9572 48.4507 41.298 46.3489 38.2153L43.044 40.4687ZM45.4564 49.094C45.4564 51.8086 44.9402 54.213 43.9432 56.3417L47.5656 58.0383C48.8379 55.3217 49.4564 52.3288 49.4564 49.094H45.4564ZM43.9432 56.3417C42.9326 58.4995 41.5185 60.3353 39.6878 61.8654L42.253 64.9346C44.5317 63.03 46.3069 60.7258 47.5656 58.0383L43.9432 56.3417ZM39.7014 61.8541C37.8624 63.3638 35.6194 64.5723 32.938 65.4566L34.1908 69.2554C37.2747 68.2383 39.9691 66.8095 42.2394 64.9459L39.7014 61.8541ZM32.9563 65.4507C30.2981 66.2991 27.3174 66.736 23.9964 66.736V70.736C27.6674 70.736 31.0654 70.2529 34.1725 69.2613L32.9563 65.4507ZM23.9964 66.736C20.6754 66.736 17.6947 66.2991 15.0365 65.4507L13.8203 69.2613C16.9274 70.2529 20.3254 70.736 23.9964 70.736V66.736ZM15.0548 65.4566C12.3734 64.5723 10.1304 63.3638 8.29139 61.8541L5.75342 64.9459C8.0237 66.8095 10.7181 68.2383 13.802 69.2554L15.0548 65.4566ZM8.30503 61.8654C6.47434 60.3353 5.0602 58.4995 4.0496 56.3417L0.427213 58.0383C1.68595 60.7258 3.46114 63.03 5.73979 64.9346L8.30503 61.8654ZM4.0496 56.3417C3.05259 54.213 2.53641 51.8086 2.53641 49.094H-1.46359C-1.46359 52.3288 -0.845109 55.3217 0.427214 58.0383L4.0496 56.3417ZM2.53641 49.094C2.53641 45.6255 3.37069 42.7833 4.94886 40.4687L1.64395 38.2153C-0.457874 41.298 -1.46359 44.9572 -1.46359 49.094H2.53641ZM4.95475 40.46C6.48351 38.1923 9.00667 36.3728 12.7609 35.1214L11.496 31.3266C7.15414 32.7739 3.7893 35.033 1.63806 38.224L4.95475 40.46ZM12.9291 31.3913C10.0723 30.1432 8.05205 28.4512 6.73687 26.3624L3.35194 28.4936C5.16476 31.3728 7.86717 33.5448 11.3277 35.0567L12.9291 31.3913ZM6.74628 26.3775C5.44001 24.2613 4.74441 21.68 4.74441 18.55H0.744407C0.744407 22.2893 1.58214 25.6267 3.34253 28.4785L6.74628 26.3775ZM4.74441 18.55C4.74441 16.2525 5.20727 14.1736 6.11224 12.2838L2.50457 10.5562C1.32421 13.0211 0.744407 15.6955 0.744407 18.55H4.74441ZM6.1169 12.274C7.03767 10.3242 8.31949 8.65003 9.97588 7.23803L7.38094 4.19397C5.29599 5.9713 3.66448 8.09984 2.49991 10.566L6.1169 12.274ZM9.97797 7.23624C11.6736 5.78674 13.707 4.63069 16.106 3.78398L14.7748 0.0120174C11.9605 1.0053 9.48587 2.39459 7.37885 4.19575L9.97797 7.23624ZM16.106 3.78398C18.4748 2.94795 21.0987 2.51799 23.9964 2.51799V-1.48201C20.6994 -1.48201 17.6194 -0.991963 14.7748 0.0120183L16.106 3.78398ZM23.9964 2.51799C26.8941 2.51799 29.518 2.94795 31.8868 3.78398L33.218 0.0120183C30.3734 -0.991963 27.2934 -1.48201 23.9964 -1.48201V2.51799ZM31.8868 3.78398C34.2836 4.62993 36.2965 5.7833 37.9567 7.22574L40.5802 4.20625C38.499 2.39802 36.0345 1.00606 33.218 0.0120175L31.8868 3.78398ZM37.9832 7.24838C39.6669 8.66049 40.9587 10.3316 41.8759 12.274L45.4929 10.566C44.3248 8.09237 42.6726 5.96084 40.5536 4.18361L37.9832 7.24838ZM41.8806 12.2838C42.7855 14.1736 43.2484 16.2525 43.2484 18.55H47.2484C47.2484 15.6955 46.6686 13.0211 45.4882 10.5562L41.8806 12.2838ZM43.2484 18.55C43.2484 21.6728 42.5409 24.2485 41.2099 26.3624L44.5949 28.4936C46.3919 25.6395 47.2484 22.2965 47.2484 18.55H43.2484ZM41.2005 26.3775C39.9174 28.4561 37.9185 30.1441 35.0637 31.3913L36.6651 35.0567C40.1277 33.5439 42.8207 31.3679 44.6043 28.4785L41.2005 26.3775Z" fill="#3EBA04"/>
</svg>
