<svg width="13" height="22" viewBox="0 0 13 22" fill="none" xmlns="http://www.w3.org/2000/svg">
<path d="M11.6111 0.00457742L8.7388 0C5.51188 0 3.42651 2.12507 3.42651 5.41417V7.91047H0.538553C0.289 7.91047 0.0869141 8.11142 0.0869141 8.35929V11.9761C0.0869141 12.224 0.28923 12.4247 0.538553 12.4247H3.42651V21.5512C3.42651 21.7991 3.62859 21.9998 3.87815 21.9998H7.64611C7.89566 21.9998 8.09775 21.7988 8.09775 21.5512V12.4247H11.4744C11.724 12.4247 11.9261 12.224 11.9261 11.9761L11.9275 8.35929C11.9275 8.24027 11.8798 8.1263 11.7952 8.04207C11.7106 7.95785 11.5954 7.91047 11.4756 7.91047H8.09775V5.79433C8.09775 4.77723 8.34177 4.26089 9.67572 4.26089L11.6106 4.26021C11.8599 4.26021 12.062 4.05926 12.062 3.81162V0.453165C12.062 0.205755 11.8602 0.00503516 11.6111 0.00457742Z" fill="white"/>
</svg>
