<svg width="46" height="68" viewBox="0 0 46 68" fill="none" xmlns="http://www.w3.org/2000/svg">
<path d="M16.7744 24.174L14.8032 23.8359L14.3108 26.7063L17.1666 26.1352L16.7744 24.174ZM20.7304 23.576L20.5408 21.585L20.5362 21.5854L20.7304 23.576ZM33.7024 25.002L32.9559 26.8575L32.9687 26.8626L32.9816 26.8676L33.7024 25.002ZM40.4644 29.326L39.0384 30.7283L39.0443 30.7343L39.0502 30.7402L40.4644 29.326ZM44.6044 35.812L42.7289 36.5066V36.5066L44.6044 35.812ZM44.0984 53.568L45.9347 54.3605L45.9377 54.3535L44.0984 53.568ZM38.8544 61.112L40.2277 62.566L40.2282 62.5655L38.8544 61.112ZM30.8964 65.988L30.1921 64.1161L30.186 64.1184L30.8964 65.988ZM14.7504 67.046L15.2136 65.1004L15.199 65.0969L15.1843 65.0936L14.7504 67.046ZM9.32241 65.298L8.48216 67.1129L8.50224 67.1222L8.52252 67.1311L9.32241 65.298ZM4.67641 62.676L5.80199 61.0228L4.67641 62.676ZM0.812407 59.594L-0.800845 58.4119L-1.84346 59.8347L-0.561993 61.0469L0.812407 59.594ZM4.72241 54.258L6.33566 55.4401L6.33799 55.4369L4.72241 54.258ZM13.0944 54.948L12.0578 56.6584L12.077 56.67L12.0965 56.6812L13.0944 54.948ZM26.7564 56.328L27.558 58.1603L27.5739 58.1534L27.5897 58.1461L26.7564 56.328ZM30.3904 53.614L28.8606 52.3257L28.8574 52.3296L30.3904 53.614ZM32.5524 49.52L30.6409 48.9318L30.6372 48.9437L30.6337 48.9557L32.5524 49.52ZM30.2984 36.41L28.9068 37.8465L28.9182 37.8575L28.9298 37.8684L30.2984 36.41ZM12.3584 35.306L11.8179 37.2316L12.4456 37.4078L13.0566 37.1802L12.3584 35.306ZM4.49241 33.098L2.52098 32.7611L2.21758 34.5368L3.95189 35.0236L4.49241 33.098ZM10.1044 0.253996V-1.746H8.41716L8.13298 -0.0828591L10.1044 0.253996ZM43.5924 0.253996H45.5924V-1.746H43.5924V0.253996ZM43.1784 8.028L41.3057 7.32575L41.2973 7.34825L41.2894 7.37095L43.1784 8.028ZM41.8904 9.914L43.224 11.4045L43.2283 11.4006L41.8904 9.914ZM39.5904 11.156L40.1651 13.0716L40.1848 13.0657L40.2044 13.0594L39.5904 11.156ZM18.9364 11.57V9.57H17.2503L16.9652 11.2319L18.9364 11.57ZM17.1666 26.1352C18.4884 25.8708 19.7407 25.682 20.9246 25.5665L20.5362 21.5854C19.2054 21.7153 17.8204 21.9252 16.3822 22.2128L17.1666 26.1352ZM20.92 25.567C22.1501 25.4498 23.3286 25.392 24.4564 25.392V21.392C23.1922 21.392 21.8868 21.4568 20.5408 21.585L20.92 25.567ZM24.4564 25.392C27.7503 25.392 30.5704 25.8978 32.9559 26.8575L34.4489 23.1465C31.4984 21.9596 28.1545 21.392 24.4564 21.392V25.392ZM32.9816 26.8676C35.4472 27.8202 37.4514 29.1144 39.0384 30.7283L41.8905 27.9237C39.8588 25.8576 37.355 24.2691 34.4232 23.1364L32.9816 26.8676ZM39.0502 30.7402C40.6826 32.3727 41.9072 34.2879 42.7289 36.5066L46.4799 35.1174C45.4616 32.3681 43.9262 29.9593 41.8786 27.9118L39.0502 30.7402ZM42.7289 36.5066C43.5605 38.7518 43.9844 41.1828 43.9844 43.816H47.9844C47.9844 40.7452 47.4884 37.8402 46.4799 35.1174L42.7289 36.5066ZM43.9844 43.816C43.9844 47.1334 43.3992 50.1131 42.2591 52.7825L45.9377 54.3535C47.3123 51.1349 47.9844 47.6132 47.9844 43.816H43.9844ZM42.2621 52.7755C41.1091 55.4471 39.5158 57.7348 37.4806 59.6585L40.2282 62.5655C42.6703 60.2572 44.573 57.5156 45.9347 54.3605L42.2621 52.7755ZM37.4812 59.658C35.4829 61.5452 33.0634 63.0358 30.1921 64.1161L31.6007 67.8599C34.9241 66.6095 37.8099 64.8494 40.2277 62.566L37.4812 59.658ZM30.186 64.1184C27.3703 65.1884 24.2562 65.736 20.8224 65.736V69.736C24.6873 69.736 28.2891 69.1183 31.6068 67.8576L30.186 64.1184ZM20.8224 65.736C18.8523 65.736 16.9843 65.522 15.2136 65.1004L14.2872 68.9916C16.3805 69.49 18.5605 69.736 20.8224 69.736V65.736ZM15.1843 65.0936C13.3685 64.6901 11.6826 64.1458 10.1223 63.4649L8.52252 67.1311C10.3356 67.9222 12.2683 68.5432 14.3165 68.9984L15.1843 65.0936ZM10.1627 63.4831C8.60144 62.7603 7.14871 61.9397 5.80199 61.0228L3.55082 64.3292C5.08677 65.3749 6.73138 66.3024 8.48216 67.1129L10.1627 63.4831ZM5.80199 61.0228C4.43879 60.0947 3.23568 59.1332 2.18681 58.1411L-0.561993 61.0469C0.658468 62.2014 2.03136 63.2947 3.55083 64.3292L5.80199 61.0228ZM2.42566 60.7761L6.33566 55.4401L3.10915 53.0759L-0.800845 58.4119L2.42566 60.7761ZM6.33799 55.4369C6.81821 54.7789 7.30972 54.556 7.94241 54.556V50.556C5.93776 50.556 4.28261 51.4678 3.10682 53.0791L6.33799 55.4369ZM7.94241 54.556C8.35365 54.556 8.80787 54.6726 9.33221 54.9953L11.4286 51.5887C10.3583 50.93 9.18716 50.556 7.94241 50.556V54.556ZM9.33221 54.9953C10.1342 55.4889 11.0429 56.0433 12.0578 56.6584L14.131 53.2376C13.1219 52.626 12.2212 52.0765 11.4286 51.5887L9.33221 54.9953ZM12.0965 56.6812C13.2286 57.3331 14.5184 57.916 15.9529 58.4376L17.3199 54.6784C16.0557 54.2187 14.9842 53.7283 14.0923 53.2148L12.0965 56.6812ZM15.9529 58.4376C17.5825 59.0302 19.4687 59.294 21.5584 59.294V55.294C19.7841 55.294 18.389 55.0672 17.3199 54.6784L15.9529 58.4376ZM21.5584 59.294C23.7632 59.294 25.7802 58.9381 27.558 58.1603L25.9548 54.4957C24.7886 55.0059 23.3403 55.294 21.5584 55.294V59.294ZM27.5897 58.1461C29.306 57.3595 30.7647 56.2815 31.9235 54.8984L28.8574 52.3296C28.1148 53.2159 27.1508 53.9472 25.9231 54.5099L27.5897 58.1461ZM31.9202 54.9023C33.0922 53.5106 33.9386 51.8951 34.4711 50.0843L30.6337 48.9557C30.2462 50.2729 29.6513 51.3867 28.8606 52.3257L31.9202 54.9023ZM34.464 50.1082C35.018 48.3076 35.2884 46.4059 35.2884 44.414H31.2884C31.2884 46.0407 31.0682 47.5431 30.6409 48.9318L34.464 50.1082ZM35.2884 44.414C35.2884 40.5532 34.165 37.2958 31.667 34.9516L28.9298 37.8684C30.4185 39.2655 31.2884 41.3441 31.2884 44.414H35.2884ZM31.69 34.9735C29.2315 32.5918 25.7872 31.558 21.6964 31.558V35.558C25.1496 35.558 27.44 36.4255 28.9068 37.8465L31.69 34.9735ZM21.6964 31.558C18.3428 31.558 14.9941 32.1898 11.6602 33.4318L13.0566 37.1802C15.9787 36.0916 18.8554 35.558 21.6964 35.558V31.558ZM12.8989 33.3804L5.03292 31.1724L3.95189 35.0236L11.8179 37.2316L12.8989 33.3804ZM6.46383 33.4349L12.0758 0.59085L8.13298 -0.0828591L2.52098 32.7611L6.46383 33.4349ZM10.1044 2.254H43.5924V-1.746H10.1044V2.254ZM41.5924 0.253996V5.59H45.5924V0.253996H41.5924ZM41.5924 5.59C41.5924 6.27073 41.4872 6.84179 41.3057 7.32575L45.0511 8.73024C45.4216 7.7422 45.5924 6.68793 45.5924 5.59H41.5924ZM41.2894 7.37095C41.1662 7.72523 40.942 8.07684 40.5525 8.42741L43.2283 11.4006C44.0655 10.6472 44.7 9.74143 45.0674 8.68504L41.2894 7.37095ZM40.5568 8.42351C40.2318 8.71432 39.7321 9.00881 38.9764 9.25258L40.2044 13.0594C41.3501 12.6898 42.3837 12.1563 43.224 11.4045L40.5568 8.42351ZM39.0157 9.24034C38.3405 9.44289 37.4133 9.57 36.1864 9.57V13.57C37.6582 13.57 39.0003 13.4211 40.1651 13.0716L39.0157 9.24034ZM36.1864 9.57H18.9364V13.57H36.1864V9.57ZM16.9652 11.2319L14.8032 23.8359L18.7456 24.5121L20.9076 11.9081L16.9652 11.2319Z" fill="#3EBA04"/>
</svg>
