<svg width="161" height="32" viewBox="0 0 161 32" fill="none" xmlns="http://www.w3.org/2000/svg">
<path d="M0.6 0.344H7.704V17.624H14.552V23H0.6V0.344ZM34.8995 13.976C34.8995 19.736 30.8035 23.224 25.3635 23.224C19.9235 23.224 15.8275 19.736 15.8275 13.976C15.8275 8.216 19.9235 4.728 25.3635 4.728C30.8035 4.728 34.8995 8.216 34.8995 13.976ZM23.0275 13.976C23.0275 16.12 24.0835 17.08 25.3635 17.08C26.6115 17.08 27.6995 16.12 27.6995 13.976C27.6995 11.832 26.6115 10.872 25.3635 10.872C24.1155 10.872 23.0275 11.832 23.0275 13.976ZM36.1713 13.976C36.1713 8.152 39.4673 4.728 43.6273 4.728C46.0273 4.728 47.7553 5.784 48.6193 7.416V4.952H55.6913V22.68C55.6913 27.448 53.2273 31.864 46.4753 31.864C40.5873 31.864 37.1633 28.888 36.6833 24.312H43.6593C43.8513 25.24 44.6513 25.72 45.9633 25.72C47.4033 25.72 48.6193 25.208 48.6193 22.68V20.536C47.7553 22.168 46.0273 23.224 43.6273 23.224C39.4673 23.224 36.1713 19.8 36.1713 13.976ZM48.6193 13.976C48.6193 11.992 47.4673 10.936 45.9953 10.936C44.5233 10.936 43.3713 11.992 43.3713 13.976C43.3713 15.96 44.5233 17.016 45.9953 17.016C47.4673 17.016 48.6193 15.96 48.6193 13.976ZM76.9933 13.976C76.9933 19.736 72.8973 23.224 67.4573 23.224C62.0173 23.224 57.9213 19.736 57.9213 13.976C57.9213 8.216 62.0173 4.728 67.4573 4.728C72.8973 4.728 76.9933 8.216 76.9933 13.976ZM65.1213 13.976C65.1213 16.12 66.1773 17.08 67.4573 17.08C68.7053 17.08 69.7933 16.12 69.7933 13.976C69.7933 11.832 68.7053 10.872 67.4573 10.872C66.2093 10.872 65.1213 11.832 65.1213 13.976ZM98.5185 23V14.168H91.7665V23H84.6625V0.344H91.7665V8.504H98.5185V0.344H105.623V23H98.5185ZM117.075 10.296C115.891 10.296 115.091 10.872 114.867 12.12H119.091C119.091 10.872 118.131 10.296 117.075 10.296ZM125.907 16.504C125.139 20.344 121.619 23.224 117.075 23.224C111.667 23.224 107.859 19.736 107.859 13.976C107.859 8.216 111.667 4.728 117.075 4.728C122.483 4.728 126.291 8.152 126.291 13.816C126.291 14.264 126.259 14.776 126.195 15.224H114.803C114.899 17.048 115.763 17.56 116.723 17.56C117.651 17.56 118.131 17.048 118.387 16.504H125.907ZM135.642 15.608V23H128.538V4.952H135.642V8.28C137.05 6.264 139.226 4.824 141.562 4.824V12.408H139.546C136.986 12.408 135.642 13.144 135.642 15.608ZM151.731 10.296C150.547 10.296 149.747 10.872 149.523 12.12H153.747C153.747 10.872 152.787 10.296 151.731 10.296ZM160.563 16.504C159.795 20.344 156.275 23.224 151.731 23.224C146.323 23.224 142.515 19.736 142.515 13.976C142.515 8.216 146.323 4.728 151.731 4.728C157.139 4.728 160.947 8.152 160.947 13.816C160.947 14.264 160.915 14.776 160.851 15.224H149.459C149.555 17.048 150.419 17.56 151.379 17.56C152.307 17.56 152.787 17.048 153.043 16.504H160.563Z" fill="white"/>
</svg>
