<svg width="52" height="67" viewBox="0 0 52 67" fill="none" xmlns="http://www.w3.org/2000/svg">
<path d="M32.7004 41.516V43.516H34.7004V41.516H32.7004ZM32.7924 18.332L30.7983 18.1786L30.7964 18.2027L30.7952 18.2269L32.7924 18.332ZM33.1604 14.606L35.1464 14.8424L31.5358 13.4396L33.1604 14.606ZM13.8404 41.516L12.2158 40.3496L9.94244 43.516H13.8404V41.516ZM51.4684 41.516H53.4684V39.516H51.4684V41.516ZM50.7784 50.44L49.3193 49.0721L49.3163 49.0754L50.7784 50.44ZM43.7404 51.13V49.13H41.7404V51.13H43.7404ZM43.7404 67V69H45.7404V67H43.7404ZM32.7004 67H30.7004V69H32.7004V67ZM32.7004 51.13H34.7004V49.13H32.7004V51.13ZM2.93841 50.394L1.72632 51.9849L1.74404 51.9984L1.76206 52.0115L2.93841 50.394ZM1.74241 48.462L3.70642 48.0843L3.70318 48.0675L3.69966 48.0507L1.74241 48.462ZM0.408406 42.114L-1.19433 40.9177L-1.73458 41.6414L-1.54884 42.5253L0.408406 42.114ZM31.6884 0.207999V-1.792H30.6855L30.0857 -0.988339L31.6884 0.207999ZM43.7404 0.207999H45.7404V-1.792H43.7404V0.207999ZM43.7404 41.516H41.7404V43.516H43.7404V41.516ZM34.7004 41.516V21.644H30.7004V41.516H34.7004ZM34.7004 21.644C34.7004 20.6402 34.7299 19.5715 34.7896 18.4371L30.7952 18.2269C30.7322 19.4232 30.7004 20.5624 30.7004 21.644H34.7004ZM34.7865 18.4854C34.8762 17.3193 34.9961 16.105 35.1464 14.8424L31.1744 14.3696C31.0181 15.683 30.8926 16.9527 30.7983 18.1786L34.7865 18.4854ZM31.5358 13.4396L12.2158 40.3496L15.4651 42.6824L34.7851 15.7724L31.5358 13.4396ZM13.8404 43.516H32.7004V39.516H13.8404V43.516ZM49.4684 41.516V48.692H53.4684V41.516H49.4684ZM49.4684 48.692C49.4684 48.8603 49.4306 48.9534 49.3193 49.0721L52.2375 51.8079C53.0462 50.9452 53.4684 49.873 53.4684 48.692H49.4684ZM49.3163 49.0754C49.3154 49.0763 49.3167 49.075 49.3182 49.074C49.3194 49.0732 49.3131 49.0777 49.2942 49.0848C49.2549 49.0996 49.1478 49.13 48.9384 49.13V53.13C50.1327 53.13 51.3375 52.7722 52.2405 51.8046L49.3163 49.0754ZM48.9384 49.13H43.7404V53.13H48.9384V49.13ZM41.7404 51.13V67H45.7404V51.13H41.7404ZM43.7404 65H32.7004V69H43.7404V65ZM34.7004 67V51.13H30.7004V67H34.7004ZM32.7004 49.13H5.14641V53.13H32.7004V49.13ZM5.14641 49.13C4.79214 49.13 4.46444 49.0308 4.11475 48.7765L1.76206 52.0115C2.76171 52.7385 3.906 53.13 5.14641 53.13V49.13ZM4.15049 48.8031C3.89905 48.6116 3.76714 48.4001 3.70642 48.0843L-0.221607 48.8397C0.0243367 50.1186 0.689761 51.1951 1.72632 51.9849L4.15049 48.8031ZM3.69966 48.0507L2.36566 41.7027L-1.54884 42.5253L-0.214844 48.8733L3.69966 48.0507ZM2.01115 43.3103L33.2911 1.40434L30.0857 -0.988339L-1.19433 40.9177L2.01115 43.3103ZM31.6884 2.208H43.7404V-1.792H31.6884V2.208ZM41.7404 0.207999V41.516H45.7404V0.207999H41.7404ZM43.7404 43.516H51.4684V39.516H43.7404V43.516Z" fill="#3EBA04"/>
</svg>
