<svg width="19" height="20" viewBox="0 0 19 20" fill="none" xmlns="http://www.w3.org/2000/svg">
<path d="M4.49772 12.1377L3.13104 18.0557C3.08872 18.2349 3.10143 18.4227 3.1675 18.5945C3.23357 18.7664 3.34993 18.9143 3.50139 19.0191C3.65285 19.1238 3.83237 19.1804 4.0165 19.1814C4.20062 19.1825 4.3808 19.1281 4.53349 19.0252L9.52783 15.6956L14.5222 19.0252C14.6784 19.1289 14.8627 19.1823 15.0502 19.1782C15.2377 19.1741 15.4194 19.1127 15.5709 19.0022C15.7225 18.8917 15.8365 18.7375 15.8978 18.5602C15.9591 18.383 15.9646 18.1912 15.9136 18.0107L14.236 12.1404L18.3966 8.39628C18.5298 8.27629 18.625 8.11988 18.6703 7.94638C18.7156 7.77289 18.709 7.58992 18.6515 7.4201C18.5939 7.25029 18.4878 7.10107 18.3463 6.99091C18.2048 6.88075 18.0342 6.81448 17.8554 6.80029L12.6263 6.38386L10.3634 1.37485C10.2913 1.21356 10.174 1.0766 10.0257 0.980493C9.87745 0.88439 9.70453 0.833252 9.52783 0.833252C9.35114 0.833252 9.17822 0.88439 9.02995 0.980493C8.88168 1.0766 8.76439 1.21356 8.69223 1.37485L6.42942 6.38386L1.20027 6.79937C1.02457 6.81329 0.856613 6.87753 0.716475 6.98441C0.576337 7.09128 0.469957 7.23627 0.410062 7.40202C0.350167 7.56777 0.339292 7.74727 0.37874 7.91904C0.418188 8.09081 0.506287 8.24758 0.632498 8.37059L4.49772 12.1377ZM7.11459 8.16972C7.27831 8.15682 7.43555 8.10012 7.56982 8.00555C7.70408 7.91098 7.81044 7.78203 7.87773 7.63222L9.52783 3.98071L11.1779 7.63222C11.2452 7.78203 11.3516 7.91098 11.4859 8.00555C11.6201 8.10012 11.7774 8.15682 11.9411 8.16972L15.5843 8.45865L12.5841 11.159C12.3236 11.3938 12.2199 11.7552 12.3153 12.0927L13.4646 16.1148L10.0378 13.83C9.88741 13.729 9.71036 13.6751 9.52921 13.6751C9.34806 13.6751 9.17101 13.729 9.0206 13.83L5.43972 16.2175L6.40282 12.0478C6.43813 11.8944 6.43339 11.7346 6.38906 11.5836C6.34472 11.4326 6.26228 11.2955 6.14966 11.1856L3.3631 8.46874L7.11459 8.16972Z" fill="#F3CD03"/>
</svg>
