<svg width="19" height="20" viewBox="0 0 19 20" fill="none" xmlns="http://www.w3.org/2000/svg">
<path d="M18.5969 7.41927C18.5392 7.24946 18.4331 7.10025 18.2916 6.99006C18.1501 6.87987 17.9795 6.81353 17.8007 6.79922L12.5716 6.38371L10.3087 1.3747C10.2367 1.21337 10.1195 1.07634 9.97125 0.980156C9.82303 0.883971 9.65014 0.832739 9.47344 0.832642C9.29675 0.832545 9.12381 0.883587 8.97548 0.979609C8.82715 1.07563 8.70979 1.21253 8.63755 1.37378L6.37473 6.38371L1.14558 6.79922C0.969887 6.81314 0.801925 6.87738 0.661787 6.98425C0.52165 7.09113 0.41527 7.23612 0.355374 7.40187C0.295479 7.56762 0.284605 7.74712 0.324053 7.91889C0.3635 8.09066 0.451599 8.24743 0.57781 8.37044L4.44212 12.1375L3.07544 18.0555C3.03394 18.2347 3.04724 18.4221 3.11361 18.5936C3.17999 18.7651 3.29637 18.9127 3.44765 19.0172C3.59894 19.1217 3.77815 19.1783 3.96202 19.1797C4.1459 19.1811 4.32594 19.1272 4.47881 19.025L9.47315 15.6955L14.4675 19.025C14.6237 19.1288 14.808 19.1822 14.9955 19.1781C15.183 19.1739 15.3647 19.1125 15.5162 19.002C15.6678 18.8916 15.7819 18.7373 15.8431 18.5601C15.9044 18.3828 15.9099 18.1911 15.8589 18.0106L14.1813 12.1403L18.3419 8.39612C18.6143 8.15031 18.7143 7.7669 18.5969 7.41927Z" fill="#F3CD03"/>
</svg>
