<svg width="82" height="71" viewBox="0 0 82 71" fill="none" xmlns="http://www.w3.org/2000/svg">
<path d="M76.1953 43.3186V44.0237L76.8594 44.2605C79.2719 45.1208 81 47.3993 81 50.0831C81 52.5402 79.5497 54.6597 77.4519 55.6645L76.6562 56.0456L76.9351 56.8826L80.6107 67.9096L77.952 68.7968L75.7417 62.1657L74.793 59.3196L73.8443 62.1657L71.634 68.7968L68.9752 67.9096L72.6508 56.8826L72.9298 56.0457L72.1341 55.6645C70.0362 54.6596 68.5859 52.54 68.5859 50.0831C68.5859 47.3993 70.3141 45.1208 72.7265 44.2605L73.3906 44.0237V43.3186V20.3605V18.8842L72.0196 19.4319L41.0008 31.8236L2.68548 16.4503L41 1.07749L79.3459 16.4629L76.8141 17.5068L76.1953 17.7619V18.4313V43.3186Z" fill="white" stroke="#3EBA04" stroke-width="2"/>
<path d="M40.6274 39.0064L41 39.156L41.3726 39.0064L61.6211 30.8758V35.669C61.6211 38.5859 59.6441 41.315 55.9472 43.3688C52.2657 45.414 47.0374 46.6807 41 46.6807C34.9626 46.6807 29.7343 45.414 26.0528 43.3688C22.3559 41.315 20.3789 38.5859 20.3789 35.669V30.8758L40.6274 39.0064Z" fill="white" stroke="#3EBA04" stroke-width="2"/>
</svg>
