<svg width="65" height="35" viewBox="0 0 65 35" fill="none" xmlns="http://www.w3.org/2000/svg">
<path d="M2.92489 8.16995C2.75536 10.5419 2.54747 12.8403 2.36484 15.4568C0.972565 14.851 0.414213 13.6887 0.389937 12.563C0.317114 9.18604 0.316979 5.76884 0.611655 2.37834C0.772107 0.438515 2.34101 -0.145017 3.8908 0.94321C6.50373 2.72453 9.00964 4.65999 11.5883 6.55523C11.7377 6.66238 11.9426 6.78627 11.9638 6.91691C12.1214 7.39928 12.1507 7.90514 12.2355 8.42774C11.7953 8.48151 11.2865 8.76313 10.9705 8.60578C9.85583 8.08358 8.83105 7.46418 7.78912 6.90174C7.21262 6.60379 6.70881 6.26561 5.73454 6.28273C6.13943 7.15028 6.52715 8.07478 6.93204 8.94233C16.0636 26.4805 35.0294 35.3011 54.2289 31.0826C56.6994 30.5222 59.0719 29.6838 61.5212 28.9927C62.3804 28.7545 63.2224 28.5733 64.0815 28.3351C64.2138 28.4992 64.2734 28.7036 64.4056 28.8677C64.0846 29.3301 63.8231 29.9969 63.3315 30.2216C61.7495 31.0497 60.1674 31.8777 58.4703 32.4848C41.6101 38.5885 22.3325 33.2154 10.458 18.9514C8.19231 16.2185 6.41428 13.0733 4.45654 10.1225C4.03854 9.49955 3.74875 8.85308 3.40344 8.18987C3.30954 8.09945 3.12579 8.10622 2.92489 8.16995Z" fill="#3EBA04" fill-opacity="0.68"/>
</svg>
