<svg width="58" height="32" viewBox="0 0 58 32" fill="none" xmlns="http://www.w3.org/2000/svg">
<path d="M54.9413 24.4689C55.1142 22.3687 55.3203 20.3342 55.5071 18.0174C56.735 18.5675 57.2186 19.6027 57.2294 20.6004C57.2617 23.5934 57.2293 26.6213 56.9358 29.6228C56.7752 31.3402 55.3794 31.8423 54.0165 30.8632C51.7182 29.2599 49.5162 27.521 47.2494 25.8171C47.118 25.7207 46.9376 25.609 46.92 25.493C46.7851 25.0641 46.7639 24.6156 46.6937 24.1517C47.0843 24.1082 47.5379 23.8635 47.8164 24.006C48.7991 24.4793 49.7012 25.0379 50.6191 25.5462C51.1271 25.8158 51.5703 26.1202 52.4337 26.1143C52.0832 25.3418 51.7485 24.5189 51.398 23.7463C43.4738 8.11878 26.7525 0.122075 9.69976 3.67692C7.50535 4.14994 5.39506 4.87026 3.21819 5.45925C2.45462 5.66211 1.7068 5.81467 0.943229 6.01753C0.827595 5.87086 0.776754 5.68923 0.661121 5.54255C0.949998 5.13584 1.18804 4.5475 1.62584 4.35313C3.03555 3.63444 4.44526 2.91576 5.95486 2.39407C20.9527 -2.85362 37.9832 2.09129 48.3691 14.8437C50.3506 17.2869 51.8962 20.0908 53.6028 22.7241C53.9672 23.2801 54.2178 23.8557 54.5175 24.4467C54.5998 24.5277 54.7627 24.5234 54.9413 24.4689Z" fill="#3EBA04" fill-opacity="0.68"/>
</svg>
