<svg width="1920" height="1071" viewBox="0 0 1920 1071" fill="none" xmlns="http://www.w3.org/2000/svg">
<g clip-path="url(#clip0_17_536)">
<rect width="1920" height="1071" fill="white"/>
<path d="M1781.9 937.065C1781.78 932.532 1780.07 930.803 1778.43 933.496C1776.41 936.906 1776.71 941.263 1779.03 941.684C1781.19 942.079 1782.01 940.757 1781.9 937.065Z" fill="#F4A259"/>
<path d="M1868.62 1039.46C1865.41 1037.36 1852.32 1029.99 1847.27 1027.45C1841.26 1024.41 1841.43 1024.6 1841.84 1021.21C1844.43 1001.8 1844.19 997.714 1841.85 999.388C1841.26 999.804 1839.53 1009.56 1838.78 1016.88C1837.86 1025.94 1838.18 1026.42 1848.34 1031.58C1854.83 1034.85 1857.29 1036.46 1859.78 1037.96C1842.14 1034.75 1807 1028.41 1807.03 1028.21C1807.05 1028.11 1811.44 1026.86 1816.77 1025.36C1828.62 1022.06 1827.24 1023.59 1829.05 1011.65C1831.6 994.48 1831.63 994.591 1824.84 990.417C1820.06 987.501 1814.83 983.035 1812.21 979.674C1810.14 977.041 1809.87 976.833 1809.09 977.688C1806.69 980.295 1797.98 979.498 1793.77 976.318C1776.08 962.765 1788.09 928.486 1807.27 937.85C1810 939.185 1810.74 939.374 1811.6 938.952C1815.8 937.041 1843.56 940.463 1859.6 943.327C1861.01 943.584 1873.84 947.491 1865.29 942.369C1856.71 937.187 1827.91 931.74 1813.89 934.647C1812.65 934.894 1813.54 930.281 1814.91 929.324C1817.52 927.594 1835.84 927.936 1853.52 932.095C1862.56 934.211 1870.52 937.705 1874.7 939.883C1876.03 940.597 1876.8 942.1 1876.52 943.624L1876.27 944.995C1875.55 948.957 1876.45 952.584 1878.22 952.905C1879.02 953.051 1879.87 951.578 1879.66 950.438C1879.25 948.37 1888.39 944.786 1892.27 945.492C1906.24 948.031 1901.18 970.67 1890.74 982.255C1881.15 992.893 1875.76 993.907 1863.04 987.396C1856.09 983.823 1848.43 981.852 1826.35 980.671C1820.06 980.365 1821.49 983.091 1829.43 984.378C1848.61 987.447 1858.98 989.7 1857.83 990.541C1856.5 991.559 1850.96 993.384 1847.37 993.938C1841.69 994.846 1843.74 999.574 1848.67 998.266C1852.34 997.255 1858.68 994.736 1861.57 992.9C1864.04 991.355 1864.26 991.29 1865.2 992.143C1875.75 1001.98 1890.13 995.942 1899.83 977.508C1910.26 957.683 1900.27 936.716 1883.2 942.688L1880.2 943.716L1879.95 941.939C1879.55 938.981 1877.75 936.555 1874.88 934.879C1861.01 927.003 1828.24 920.781 1812.71 925.671C1810.61 926.338 1809.04 928.15 1808.64 930.334C1808.62 930.435 1807.81 934.904 1807.83 934.752L1806.49 934.14C1787.4 925.422 1770.87 951.901 1783.12 971.6C1788.03 979.524 1796.82 983.589 1806.27 982.317L1809.53 981.86L1810.88 983.839C1812.89 986.827 1818.65 991.547 1823.25 994.01L1827.39 996.179C1827.11 1000.85 1827.28 1000.2 1823.35 1020.1C1819.69 1021.01 1799.65 1025.87 1795.64 1026.4C1791.38 1026.94 1792.06 1030.05 1795.07 1030.7C1799.13 1031.6 1812.26 1034.09 1827.54 1036.87C1849.26 1040.82 1868.71 1044.99 1868.66 1044.98C1870.73 1045.62 1872.34 1041.92 1868.62 1039.46Z" fill="#F4A259"/>
<path d="M1805.99 995.592C1805.82 993.045 1802.38 993.1 1802.33 995.662C1802.27 998.274 1799.43 1001.59 1796.95 999.458C1794.42 997.37 1795.37 992.402 1801.03 993.378C1801.63 993.488 1802.53 993.39 1802.98 993.21C1805.19 992.247 1800.39 990.01 1797.46 990.632C1793.4 991.519 1791.43 998.034 1794.48 1000.43C1798.96 1003.86 1806.29 1000.79 1805.99 995.592Z" fill="#F4A259"/>
<path d="M1808.55 944.274C1802.17 937.552 1791.03 939.514 1789.23 951.726C1787.44 964.149 1794.2 973.354 1805.64 974.018C1809.77 974.244 1809.88 974.161 1809.35 969.919C1807 949.344 1810.99 946.87 1808.55 944.274ZM1802 970.261C1795.85 966.885 1793.56 961.432 1794.71 953.09C1796.04 943.782 1798.47 941.286 1802.86 944.655L1805.05 946.314L1804.43 950.345C1803.71 954.832 1803.69 963.275 1804.43 968.079C1804.99 971.854 1804.98 971.905 1802 970.261Z" fill="#F4A259"/>
<path d="M1781.67 922.544C1783.76 924.812 1785.45 923.282 1786.34 918.356C1787.6 911.449 1786.39 907.504 1783.68 909.792C1782.26 911.003 1780.63 921.41 1781.67 922.544Z" fill="#F4A259"/>
<path d="M1887.23 934.291C1891.02 934.35 1894.23 929.583 1892.16 926.899C1890.9 925.252 1890.19 925.438 1890.19 927.432C1890.21 929.638 1887.56 932.462 1885.36 930.803C1883.11 929.135 1883.83 924.071 1889.63 925.074C1890.84 925.294 1891.42 924.665 1890.66 924.002C1888.24 921.831 1883.45 922.114 1881.32 925.242C1878.92 928.688 1881.3 934.21 1887.23 934.291Z" fill="#F4A259"/>
<path d="M1783.08 927.993C1782.8 929.517 1788.32 930.363 1794.83 929.815C1800.8 929.327 1795.69 926.509 1789.29 926.762C1784.88 926.957 1783.21 927.282 1783.08 927.993Z" fill="#F4A259"/>
<path d="M1768.45 923.968C1766.41 924.017 1765.78 925.476 1767.51 926.263C1769.58 927.216 1778.71 928.248 1779.76 927.651C1782.09 926.291 1774.22 923.758 1768.45 923.968Z" fill="#F4A259"/>
<path d="M1878.09 1012.85C1880.2 1013.87 1881.09 1012.98 1881.77 1009.27C1882.64 1004.45 1882.5 1003.53 1880.78 1003.22C1879.78 1003.03 1879.27 1003.25 1878.87 1004.02C1877.55 1006.98 1877.04 1012.35 1878.09 1012.85Z" fill="#F4A259"/>
<path d="M1871.64 985.339C1882.2 993.45 1901.12 970.134 1895.14 956.349C1893.52 952.644 1889.52 950.291 1885.93 950.895C1882.7 951.463 1875.97 956.378 1876.3 958.012C1876.63 959.908 1873.11 970.968 1870.84 975.171C1867.49 981.278 1867.58 982.187 1871.64 985.339ZM1872.89 979.637C1874.89 976.066 1877.92 967.435 1878.74 962.915C1880.11 955.399 1888.75 950.518 1892.04 955.365C1895.17 959.922 1888.34 975.417 1880.65 981.312C1876.12 984.789 1870.65 983.637 1872.89 979.637Z" fill="#F4A259"/>
<path d="M1874.39 1024.35C1871.86 1028.51 1872.75 1033.65 1875.99 1033.56C1878.45 1033.54 1879.54 1030.11 1878.56 1025.48C1878.1 1023.14 1875.51 1022.46 1874.39 1024.35Z" fill="#F4A259"/>
<path d="M1891.61 1020.71C1889.53 1019.86 1881.84 1018.31 1880.71 1018.52C1876.62 1019.25 1884.98 1023.08 1890.28 1022.88C1892.43 1022.8 1893.31 1021.39 1891.61 1020.71Z" fill="#F4A259"/>
<path d="M1866.2 1015.57C1865.22 1015.76 1865.11 1016.94 1866 1017.47C1868.25 1018.88 1875.75 1019.46 1875.96 1018.29C1876.21 1017.18 1868.68 1015.07 1866.2 1015.57Z" fill="#F4A259"/>
<path d="M1859.12 951.11C1858.58 949.491 1846.75 946.395 1837.19 945.442C1829.21 944.621 1821.47 944.788 1817.58 945.601C1813.89 946.4 1814.3 948.73 1817.84 948.744C1822.78 948.752 1841.45 950.362 1846.79 951.334C1857.03 953.144 1859.75 953.113 1859.12 951.11Z" fill="#F4A259"/>
<path fill-rule="evenodd" clip-rule="evenodd" d="M1899.14 37.2499C1898.52 37.4712 1896.26 39.4623 1894.14 41.6305C1887.94 47.9138 1881.97 50.1705 1878.03 47.781C1875.15 46.0553 1871.66 42.8695 1870.91 41.3208C1869.09 37.4711 1867.45 38.7986 1866.22 45.2589C1863.78 57.8255 1856.35 63.7991 1845.24 62.2504C1838.91 61.3654 1838.43 61.6751 1841.39 65.1265C1850.6 75.8789 1845.91 93.7996 1832.41 99.4634C1830.02 100.481 1830.37 100.924 1835.77 103.623C1844.4 107.915 1849.31 119.729 1846.61 129.508C1845.73 132.65 1845.73 134.11 1846.52 134.641C1847.41 135.216 1849.18 135.128 1849.98 134.42C1851.97 132.694 1860.29 132.296 1862.94 133.8C1866.17 135.614 1872.59 145.792 1872.59 149.11C1872.59 150.747 1874.49 153.668 1875.91 154.287C1878.38 155.349 1878.43 155.305 1882.54 149.818C1892.23 136.942 1899.71 135.747 1908.34 145.615C1913.16 151.101 1915.42 151.101 1916.22 145.57C1918.34 130.791 1927.59 121.632 1937.41 124.597C1943.25 126.366 1943.38 125.747 1940.07 114.641C1938.69 110.171 1939.05 105.437 1940.95 101.941C1943.34 97.5607 1947.1 92.0739 1948.92 90.3482C1951.35 88.003 1950.51 86.3658 1946.88 86.3658C1943.16 86.3658 1937.54 80.6135 1935.69 74.9054C1934.36 70.9673 1935.77 61.9406 1938.56 56.144C1939.58 54.0201 1939.05 52.6042 1937.01 52.1174C1935.86 51.8077 1934.14 52.4714 1934.14 53.1351C1934.14 54.5068 1920.46 55.5246 1915.99 54.5069C1908.91 52.8697 1901.53 44.7279 1902.5 39.5951C1902.76 37.6481 1901.22 36.4534 1899.14 37.2499ZM1901.39 47.6926C1904.98 55.3476 1916.04 59.0644 1929.89 57.3387L1932.32 57.029L1931.44 59.0644C1926.39 70.8345 1931.17 83.6666 1942.23 87.8702C1944.71 88.7994 1944.8 88.357 1941.44 92.4278C1932.23 103.667 1931.17 108.667 1936.08 118.313C1937.19 120.437 1937.9 122.163 1937.72 122.163C1937.54 122.163 1935.86 121.897 1933.96 121.543C1928.78 120.614 1926.17 121.322 1921.44 124.818C1914.76 129.774 1911.92 134.906 1911.92 142.207V143.889L1909.14 141.632C1898.91 133.313 1887.45 135.216 1878.96 146.632L1877.68 148.314L1875.82 144.42C1870.95 134.066 1863.78 129.331 1854.67 130.437L1851.22 130.836L1851.48 129.464C1853.47 118.446 1848.47 107.03 1839.58 102.34L1836.92 100.924L1840.68 97.0297C1850.73 86.6313 1852.81 76.5869 1846.83 66.9849L1845.95 65.569L1848.34 65.8345C1858.21 66.8522 1869.09 58.5777 1870.15 49.197L1870.46 46.5864L1872.5 48.0465C1880.64 53.8431 1888.56 53.1351 1896.3 45.8784C1899.18 43.2235 1899.36 43.0907 1899.76 43.9757C1899.93 44.5509 1900.68 46.1881 1901.39 47.6926ZM1882.9 60.6574C1843.87 71.1885 1851.57 133.358 1891.57 130.526C1926.75 128.048 1940.33 77.8258 1909.31 64.1088C1904.31 61.8963 1903.25 64.4185 1908.21 67.7371C1939.76 88.8437 1908.65 142.96 1876.17 123.446C1851.97 108.933 1859.8 74.1974 1884.67 64.5513C1887.9 63.3123 1892.99 62.3388 1896.75 62.5601C1900.68 62.7813 1901.97 60.3919 1897.01 59.6397C1893.16 59.0202 1886.57 59.6396 1882.9 60.6574Z" fill="#091C00"/>
<path fill-rule="evenodd" clip-rule="evenodd" d="M58.8114 850.333C57.9857 850.628 54.9782 853.282 52.1474 856.171C43.891 864.546 35.9293 867.553 30.6806 864.369C26.8473 862.069 22.1886 857.823 21.186 855.759C18.7681 850.628 16.5857 852.397 14.9344 861.007C11.6908 877.756 1.78352 885.718 -13.019 883.653C-21.4523 882.474 -22.1011 882.887 -18.1499 887.487C-5.88324 901.818 -12.1344 925.702 -30.1215 933.251C-33.3061 934.607 -32.8345 935.197 -25.6397 938.794C-14.1397 944.515 -7.5936 960.261 -11.191 973.294C-12.3705 977.481 -12.3706 979.427 -11.3091 980.135C-10.1296 980.902 -7.77075 980.784 -6.70922 979.84C-4.05538 977.54 7.03221 977.01 10.5707 979.015C14.8758 981.433 23.4269 994.997 23.4269 999.42C23.4269 1001.6 25.9628 1005.49 27.85 1006.32C31.1525 1007.74 31.2115 1007.68 36.6961 1000.36C49.6114 983.202 59.5779 981.609 71.0779 994.761C77.5061 1002.07 80.5136 1002.07 81.5752 994.702C84.4059 975.004 96.7317 962.797 109.824 966.748C117.609 969.107 117.786 968.281 113.362 953.479C111.534 947.522 112.006 941.212 114.542 936.553C117.727 930.715 122.739 923.402 125.157 921.102C128.401 917.976 127.28 915.794 122.444 915.794C117.49 915.794 110.001 908.128 107.524 900.52C105.755 895.271 107.642 883.241 111.357 875.515C112.714 872.684 112.006 870.797 109.293 870.148C107.76 869.736 105.46 870.62 105.46 871.505C105.46 873.333 87.2367 874.689 81.2803 873.333C71.8444 871.151 61.9958 860.3 63.2932 853.459C63.647 850.864 61.5832 849.272 58.8114 850.333ZM61.8188 864.251C66.5957 874.453 81.3395 879.407 99.7984 877.107L103.042 876.694L101.862 879.407C95.1394 895.094 101.508 912.197 116.252 917.799C119.554 919.038 119.672 918.448 115.19 923.874C102.924 938.853 101.509 945.517 108.055 958.374C109.529 961.204 110.473 963.504 110.237 963.504C110.001 963.504 107.76 963.151 105.224 962.679C98.3242 961.44 94.8442 962.384 88.534 967.043C79.6289 973.648 75.8546 980.489 75.8546 990.22V992.461L72.1393 989.453C58.5163 978.366 43.2419 980.902 31.9188 996.117L30.2089 998.358L27.7319 993.168C21.2447 979.368 11.6911 973.058 -0.457617 974.533L-5.05748 975.063L-4.70387 973.235C-2.05003 958.551 -8.71434 943.335 -20.5681 937.084L-24.1066 935.197L-19.0938 930.007C-5.70666 916.148 -2.93465 902.761 -10.8962 889.964L-12.0756 888.077L-8.8908 888.43C4.26043 889.787 18.7679 878.759 20.1833 866.256L20.5963 862.777L23.3088 864.723C34.1601 872.448 44.7163 871.505 55.0368 861.833C58.8701 858.295 59.1059 858.118 59.6367 859.297C59.8726 860.064 60.8752 862.246 61.8188 864.251ZM37.1678 881.53C-14.8474 895.566 -4.58615 978.425 48.7265 974.651C95.6109 971.348 113.716 904.412 72.3754 886.13C65.7114 883.182 64.296 886.543 70.9011 890.966C112.95 919.097 71.4906 991.222 28.2036 965.215C-4.05527 945.871 6.38326 899.576 39.5267 886.72C43.8318 885.069 50.6138 883.771 55.6266 884.066C60.8752 884.361 62.5858 881.177 55.9807 880.174C50.85 879.348 42.0626 880.174 37.1678 881.53Z" fill="#091C00"/>
<path d="M71.4543 99.0749C69.5806 96.0087 67.7176 95.5023 67.6623 97.9988C67.6226 101.141 69.5558 104.013 71.3143 103.383C72.9582 102.795 72.9927 101.566 71.4543 99.0749Z" fill="#F4A259"/>
<path d="M171.55 134.989C168.512 134.816 156.613 134.947 152.134 135.203C146.807 135.502 147.001 135.562 145.939 133.075C140.026 118.723 138.238 116.017 137.299 118.092C137.054 118.614 139.739 125.995 142.117 131.314C145.078 137.902 145.494 138.1 154.506 137.613C160.256 137.293 162.585 137.415 164.887 137.46C151.507 142.249 124.876 151.823 124.821 151.669C124.793 151.592 127.314 148.996 130.374 145.858C137.198 138.897 136.864 140.494 133.37 131.577C128.318 118.786 128.384 118.849 122.069 118.676C117.632 118.569 112.274 117.576 109.146 116.306C106.68 115.32 106.409 115.286 106.212 116.182C105.597 118.923 99.305 121.826 95.1539 121.313C77.6438 119.02 72.3065 90.732 89.18 89.5596C91.5796 89.396 92.1669 89.2292 92.5887 88.6003C94.7146 85.6235 115.122 76.9729 127.265 72.5835C128.335 72.2004 138.688 69.7987 130.793 69.6696C122.846 69.5157 100.924 77.1876 92.4566 84.737C91.7014 85.3983 90.4853 81.8796 91.0475 80.679C92.1505 78.4593 104.859 71.4342 118.64 67.2842C125.684 65.1544 132.529 64.399 136.265 64.235C137.46 64.1985 138.583 64.9264 138.996 66.0819L139.369 67.1218C140.444 70.1262 142.5 72.2578 143.838 71.779C144.45 71.5601 144.443 70.2155 143.848 69.5161C142.751 68.2577 147.604 62.1758 150.547 61.1223C161.136 57.3325 166.638 74.873 164.064 86.9609C161.698 98.0622 158.399 100.894 147.089 101.466C140.901 101.768 134.862 103.452 119.245 111.388C114.801 113.673 116.864 114.977 122.824 112.713C137.203 107.22 145.212 104.657 144.762 105.688C144.252 106.913 141.173 110.361 138.929 112.164C135.387 115.039 138.672 117.47 141.533 114.621C143.653 112.472 147.008 108.229 148.261 105.826C149.343 103.787 149.468 103.656 150.45 103.869C161.592 106.443 169.066 96.5984 168.422 80.1002C167.723 62.3618 152.561 51.9287 143.21 62.7925L141.559 64.6869L140.684 63.5662C139.237 61.6941 137.042 60.7417 134.407 60.7289C121.762 60.8227 96.806 69.5369 88.0902 79.0435C86.9133 80.3337 86.5471 82.2028 87.1398 83.859C87.1674 83.936 88.3805 87.3256 88.3392 87.21L87.1723 87.3234C70.6171 88.9034 69.7628 113.628 85.9747 122.295C92.4858 125.787 100.13 125.094 106.11 120.477L108.167 118.872L109.883 119.691C112.445 120.947 118.265 121.906 122.401 121.772L126.099 121.622C127.76 124.938 127.619 124.424 132.807 139.643C130.66 141.715 118.825 152.99 116.288 154.94C113.575 156.998 115.278 158.865 117.599 158.121C120.737 157.128 130.742 153.635 142.325 149.489C158.802 143.592 173.8 138.746 173.762 138.759C175.436 138.377 175.077 135.204 171.55 134.989Z" fill="#F4A259"/>
<path d="M111.179 129.699C110.058 128.014 107.715 129.418 108.696 131.196C109.691 133.012 109.053 136.413 106.51 135.932C103.942 135.505 102.629 131.716 106.897 130.145C107.355 129.981 107.936 129.556 108.173 129.254C109.306 127.719 105.125 128.086 103.363 129.672C100.924 131.892 102.156 137.143 105.2 137.574C109.635 138.159 113.447 133.145 111.179 129.699Z" fill="#F4A259"/>
<path d="M92.6036 93.4614C85.561 91.3762 78.6953 97.1356 82.2958 106.232C85.9896 115.468 94.2779 119.106 102.392 115.029C105.313 113.549 105.362 113.445 103.317 110.744C93.5509 97.5544 95.3095 94.2745 92.6036 93.4614ZM98.4062 113.892C92.8438 114.015 89.112 111.179 86.5974 104.996C83.821 98.082 84.5016 95.4052 88.847 95.9791L91.0129 96.2467L92.1783 99.2622C93.4678 102.624 96.7959 108.429 99.2079 111.433C101.09 113.801 101.104 113.839 98.4062 113.892Z" fill="#F4A259"/>
<path d="M65.5473 89.1969C67.8785 89.9268 68.4282 88.2093 67.0911 84.4732C65.2163 79.2349 62.823 77.0064 61.8716 79.6498C61.3783 81.0429 64.3817 88.832 65.5473 89.1969Z" fill="#F4A259"/>
<path d="M142.646 55.4335C145.271 53.9726 145.585 49.4281 143.106 48.4037C141.587 47.7742 141.172 48.1833 141.964 49.5512C142.848 51.0594 142.15 54.0469 139.984 53.7792C137.78 53.5252 136.262 49.7667 140.645 48.1548C141.562 47.8264 141.713 47.1641 140.925 47.0115C138.406 46.4793 135.231 48.5717 135.007 51.5628C134.728 54.8783 138.55 57.7251 142.646 55.4335Z" fill="#F4A259"/>
<path d="M68.6704 92.3804C69.084 93.536 73.2094 91.9291 77.4566 88.9752C81.3629 86.2737 76.7381 86.3646 72.4464 89.0738C69.4971 90.9549 68.4775 91.8412 68.6704 92.3804Z" fill="#F4A259"/>
<path d="M57.0343 95.4152C55.6537 96.257 55.7996 97.5082 57.2999 97.3623C59.0954 97.1977 65.7729 94.2865 66.2542 93.4624C67.3147 91.6056 60.9086 92.9858 57.0343 95.4152Z" fill="#F4A259"/>
<path d="M167.508 112.972C169.356 112.832 169.615 111.87 168.609 109.059C167.299 105.399 166.835 104.827 165.536 105.292C164.771 105.566 164.51 105.92 164.539 106.605C164.807 109.159 166.584 113.042 167.508 112.972Z" fill="#F4A259"/>
<path d="M152.178 96.6456C162.635 98.0301 166.385 74.5281 156.818 67.4372C154.24 65.5355 150.563 65.5045 148.332 67.3456C146.342 69.0139 143.673 75.0528 144.545 76.0441C145.525 77.2143 147.49 86.2004 147.595 89.9867C147.716 95.5052 148.141 96.0915 152.178 96.6456ZM150.773 92.2385C150.733 88.994 149.391 81.8704 148.164 78.4424C146.124 72.7418 150.124 65.9656 154.299 67.9909C158.252 69.8784 159.706 83.219 156.767 90.3104C155.03 94.495 150.822 95.8707 150.773 92.2385Z" fill="#F4A259"/>
<path d="M169.521 122.332C169.434 126.186 172.082 129.366 174.273 128.017C175.946 127.028 175.338 124.247 172.829 121.452C171.586 120.028 169.543 120.586 169.521 122.332Z" fill="#F4A259"/>
<path d="M179.899 113.012C178.132 113.253 172.241 115.231 171.549 115.827C169.029 117.945 176.287 117.259 179.845 115.03C181.288 114.122 181.334 112.803 179.899 113.012Z" fill="#F4A259"/>
<path d="M160.418 119.55C159.826 120.066 160.219 120.925 161.042 120.934C163.139 121.009 168.514 118.434 168.197 117.548C167.932 116.687 161.928 118.227 160.418 119.55Z" fill="#F4A259"/>
<path d="M130.02 78.1149C129.009 77.2168 119.662 79.7797 112.72 82.916C106.922 85.5126 101.678 88.693 99.3251 90.7951C97.1115 92.8039 98.316 94.2412 100.75 92.8487C104.147 90.8941 117.594 84.6044 121.646 83.1542C129.393 80.3382 131.243 79.2415 130.02 78.1149Z" fill="#F4A259"/>
<path fill-rule="evenodd" clip-rule="evenodd" d="M1236.51 303.186C1235.72 303.498 1232.48 305.517 1229.32 307.593C1221.29 312.912 1220.39 313.423 1219.07 314.306C1207.02 313.028 1204.11 311.832 1204.57 322.837C1204.65 324.548 1204.54 324.705 1200.38 328.672C1190.49 338.141 1191.02 337.224 1193.09 340.989C1193.52 341.841 1200.23 355.22 1200.23 355.22C1199.16 359.278 1199.23 359.681 1197.18 361.101C1195.03 362.551 1190.8 366.2 1187.55 369.394C1186.31 370.637 1184.88 371.981 1184.38 372.382C1182.17 374.214 1175.69 382.215 1174.39 384.669C1170.63 391.702 1173.93 392.612 1185.31 387.599L1189.05 385.964C1187.84 400.672 1187.49 402.317 1190.3 402.757C1191.11 402.884 1197.62 396.673 1201.94 391.6C1206.74 386.036 1216.44 376.709 1216.93 377.179C1220.02 379.753 1221.53 381.776 1227.13 385.005C1227.77 385.367 1228.54 385.445 1229.23 385.247C1230.33 384.897 1232.08 384.3 1236.17 382.414C1240.26 380.528 1240.35 380.499 1241.08 381.398C1242.79 383.539 1251.24 401.982 1253.03 407.533C1255.37 414.827 1257.17 416.416 1259.77 411.247C1261.61 407.529 1263.74 400.631 1264.98 396.6C1264.98 396.6 1274.05 404.948 1274.85 405.725C1276.43 407.281 1277.92 407.514 1280.07 406.588C1284 404.895 1273.09 377.964 1265.1 369.698C1263.38 367.903 1262.59 366.779 1262.82 366.465C1263.04 366.194 1266.58 363.352 1270.66 360.114C1281.49 351.619 1281.33 353.205 1272.32 340.86C1268.16 335.155 1267.51 333.484 1267.22 332.567C1267.07 332.108 1267.61 329.188 1267.71 326.067C1267.87 319.209 1268.24 319.616 1260.77 318.881C1256.14 318.416 1255.29 318.24 1254.62 317.525C1243.01 305.381 1239.86 301.838 1236.51 303.186ZM1242.84 310.93C1248.85 317.318 1251.92 320.02 1253.39 320.338C1255 320.677 1261.92 321.544 1263.76 321.789L1262.98 329.855C1262.86 330.882 1263.14 331.884 1263.66 332.75C1270.74 343.748 1270.83 344.242 1274.11 350.897C1264.61 359.21 1261.71 362.938 1259.53 364.643C1258.09 365.768 1258.24 365.922 1257.05 374.622C1246.44 373.875 1246.73 373.702 1243.13 375.01C1233.6 378.483 1228.45 382.12 1228.45 382.12L1224.99 379.486C1221.99 377.187 1215.14 371.365 1213.49 369.407C1213.26 369.197 1212.4 367.712 1210.39 367.484L1202.37 366.62L1203.64 357.105C1203.99 354.328 1202.7 352.253 1195.97 340.396C1206.34 328.777 1204.47 330.401 1208.39 325.439C1209.37 324.156 1209.91 319.885 1210.4 316.781C1210.49 316.228 1210.98 315.827 1211.54 315.871C1220.4 316.65 1221.28 316.875 1225.54 314.449C1231.11 311.226 1236.88 307.513 1237.22 306.958C1237.82 305.962 1238.84 306.688 1242.84 310.93ZM1248.2 322.574C1244.41 319.802 1236.39 317.586 1231.58 317.922C1198.13 320.217 1196.77 368.704 1230.01 373.827C1256.37 377.869 1275.15 343.699 1255.63 327.223C1251.85 324.061 1249.85 325.969 1253.47 329.324C1273.99 348.309 1243.24 383.174 1220.18 367.058C1195.62 349.923 1215.07 313.984 1244 323.789C1247.35 324.967 1250.28 324.076 1248.2 322.574ZM1229.71 327.344C1221.31 328.117 1213.52 345.846 1217.52 346.472C1218.28 346.592 1218.77 345.71 1219.12 343.499C1219.94 338.227 1227.49 329.565 1231.87 328.901C1234.01 328.583 1232.01 327.138 1229.71 327.344ZM1235.58 333.839C1234.12 334.568 1230.86 338.413 1227.59 341.168C1227.09 341.612 1227.01 342.384 1227.49 342.896C1227.97 343.45 1229.8 343.475 1231.11 342.634C1233 341.406 1233.09 341.377 1232.72 342.364C1232.09 343.877 1230.57 348.562 1230.18 350.243C1229.82 351.711 1229.82 351.711 1226.94 351.738C1219.04 351.807 1223.13 356.02 1225.71 357.035C1228.05 357.968 1231.76 358.506 1237 358.76C1241.54 358.992 1240.64 353.624 1236 352.897C1233.91 352.57 1233.94 352.966 1236.13 345.947C1239.16 336.359 1239.36 335.303 1238.34 334.358C1237.28 333.278 1236.86 333.211 1235.58 333.839ZM1252.23 346.423C1251.38 351.823 1247.54 357.406 1242.74 360.226C1238.47 362.736 1237.92 364.305 1241.34 364.449C1247.1 364.698 1257.25 349.17 1254.13 344.848C1253.15 343.605 1252.59 344.084 1252.23 346.423ZM1268.37 383.061C1271.76 389.821 1275.21 398.377 1274.85 399.018C1274.74 399.174 1272.39 397.718 1269.61 395.757C1262.66 390.835 1261.99 390.947 1260.37 397.097C1257.68 407.347 1257.68 407.347 1254.37 399.207C1250.24 388.888 1248.93 387.245 1243.42 379.281C1245.75 377.469 1246.13 376.701 1253.78 377.986C1259.76 379.011 1259.44 379.135 1260.79 374.99L1261.88 371.59C1263.23 373.544 1264.36 374.984 1268.37 383.061ZM1198.56 366.763C1198.32 369.687 1200.15 370.759 1206.93 371.734C1214.43 372.823 1214.47 372.872 1209.57 377.157C1199.67 385.799 1196.24 390.749 1192.27 396.052C1193.24 382.613 1193.6 382.539 1190.9 382.204C1189.37 382.006 1183.86 384.019 1181.52 385.046C1179.46 385.986 1179.67 384.625 1180.09 383.906C1181.6 381.225 1198.01 364.15 1198.44 364.698C1198.54 364.888 1198.61 365.856 1198.56 366.763Z" fill="#F4A259"/>
<path d="M588.661 763.708C590.11 763.467 590.189 763.501 590.497 764.792C593.792 778.03 614.098 774.467 615.452 760.411C615.74 757.507 616.477 756.308 618.126 756.209C618.778 756.17 619.06 756.384 619.09 756.883C619.648 766.204 635.143 771.667 640.798 764.515C642.804 762.009 644.993 757.412 645.111 755.519L645.199 753.781L647.41 753.418C651.257 752.726 651.208 752.536 645.427 744.721C635.376 731.156 627.894 725.79 624.145 729.402C623.018 730.509 623.13 730.464 623.371 738.996C623.406 739.571 623.819 740.047 624.366 740.168C626.74 740.603 629.308 738.486 627.261 737.724C626.394 737.39 626.348 737.278 626.425 734.694C626.545 730.914 626.807 730.783 629.502 733.355C635.709 739.297 639.716 742.56 641.51 745.533C641.978 746.275 641.947 746.392 641.538 745.993C641.052 745.599 638.466 745.484 638.489 745.867C638.494 745.944 639.088 746.871 639.802 747.868C646.658 757.582 636.12 771.263 627.621 763.687C621.238 758.025 625.829 745.97 634.576 745.447C636.992 745.302 637.389 744.855 635.768 744.144C631.259 742.142 623.839 746.166 620.817 752.276L619.821 754.299L617.141 754.536C615.608 754.666 614.451 754.62 614.437 754.39C614.391 753.623 612.383 752.241 611.424 752.299C610.197 752.372 610.22 752.756 611.512 754.411C617.105 761.66 607.801 773.457 599.488 769.643C589.037 764.841 595.653 748.007 606.91 750.836C610.153 751.643 610.652 751.613 610.208 750.639C607.151 743.931 593.822 749.579 591.209 758.667C590.509 761.134 590.437 761.215 589.133 761.293C588.02 761.36 587.822 761.256 588.017 760.667C588.148 760.274 588.851 756.575 589.638 752.37C592.08 739.136 595.534 730.575 596.822 734.733C597.635 737.379 598.028 742.668 597.414 742.704C595.803 742.801 595.955 745.333 597.627 745.617C601.209 746.289 601.84 736.242 598.402 733.483C594.561 730.402 590.38 733.886 588.473 741.892C588.012 743.844 587.137 747.246 586.539 749.476C583.452 760.94 584.006 764.41 588.661 763.708Z" fill="#091C00"/>
<path d="M667.061 793.587C663.067 785.395 661.84 788.048 664.033 792.536C665.264 795.08 665.456 795.723 664.946 795.561C656.501 792.756 640.128 799.009 630.55 808.783L625.978 813.445C625.516 809.585 625.267 807.367 625.002 806.151C624.785 805.086 623.04 804.882 622.919 806.083C622.774 807.516 622.964 810.045 623.205 814.073L621.935 812.802C615.626 806.442 598.251 805.596 582.207 810.906C579.527 811.797 579.57 812.526 581.646 802.816C584.435 789.599 585.092 783.208 585.631 780.635C585.869 779.466 598.4 778.485 603.18 779.239C607.649 779.934 617.695 783.76 619.211 785.286C619.703 785.795 620.22 787.997 621.171 793.599C622.597 801.983 622.678 801.401 623.425 801.664C624.759 802.085 623.664 794.72 622.607 785.429L627.417 781.523C638.8 772.296 649.205 772.481 651.026 772.026L653.704 775.6C659.642 783.483 660.631 786.503 661.25 784.618C661.477 783.912 653.777 770.399 652.646 769.504C650.505 767.823 633.512 768.223 622.609 780.309C619.758 783.482 620.096 783.347 618.411 782.216C607.54 774.897 584.081 773.375 583.164 779.936C582.595 783.935 578.019 800.108 576.648 810.661C576.31 813.376 576.313 814.068 576.786 814.887C577.344 815.855 577.617 815.915 579.21 815.512C579.894 815.356 580.025 815.617 580.459 818.363C580.94 821.26 581.813 822.978 582.552 822.472C583.071 822.133 582.959 822.833 582.393 823.675C581.05 825.68 582.893 829.458 585.071 829.174C586.025 829.04 586.305 829.215 586.708 830.154C587.377 831.692 588.115 831.802 589.66 830.593C591.279 829.341 594.197 827.28 599.19 825.788C604.182 824.296 620.173 824.533 621.79 825.168C622.776 825.571 623.28 825.617 623.453 825.299C623.593 825.06 624.878 824.675 626.368 824.47C631.368 823.748 639.33 822.347 642.9 821.518C648.215 820.276 658.322 819.979 661.731 820.969C665.53 822.05 666.601 820.639 663.944 818.064C663.004 817.158 662.959 817.045 663.661 817.196C669.155 818.292 670.04 816.352 666.516 810.866C664.945 808.419 664.952 808.534 666.985 808.412C669.402 808.268 669.232 807.354 666.136 803.228C663.334 799.507 663.332 799.469 666.463 800.321C670.219 801.328 670.308 800.245 667.061 793.587ZM597.052 820.296C592.435 820.995 588.274 823.516 587.861 823.694C587.221 823.925 586.773 823.529 586.982 822.515C587.099 821.892 587.247 821.152 587.267 820.843C587.455 818.83 600.304 816.098 606.503 816.766C612.586 817.403 613.493 817.772 618.782 819.304C609.923 819.218 601.973 819.539 597.052 820.296ZM622.435 816.66C602.773 812.331 595.166 812.594 585.125 817.853C583.783 818.587 582.621 819.119 582.578 819.044C582.495 818.934 582.136 816.8 581.737 814.629C590.923 811.808 598.241 809.292 607.442 809.935C610.187 810.117 613.952 811.277 616.853 812.798C621.823 815.426 624.153 817.057 622.435 816.66ZM633.379 811.039C643.457 801.235 650.77 797.988 659.446 799.509C660.34 799.648 664.092 803.812 663.732 804.218C663.659 804.3 662.847 804.233 661.912 804.058C654.645 802.914 650.615 803.771 641.237 808.529C638.772 809.792 636.191 811.063 635.517 811.373C632.744 812.655 626.14 818.093 633.379 811.039ZM661.882 811.913C657.188 811.308 651.865 811.781 647.136 813.18C643.58 814.24 632.745 817.159 632.381 816.873C632.18 816.731 637.462 813.643 640.099 812.023C645.446 808.739 652.022 807.344 659.942 807.794C661.641 807.885 661.883 808.063 663.421 809.973C665.459 812.507 665.529 812.388 661.882 811.913Z" fill="#091C00"/>
<path fill-rule="evenodd" clip-rule="evenodd" d="M1318.37 918.652C1307.25 921.621 1297.44 930.296 1298.24 945.423C1298.85 956.703 1298.95 956.775 1309.42 953.301C1318.26 950.359 1317.83 950.911 1316.99 944.024C1316.28 938.162 1317.52 934.643 1321.71 931.806C1331.02 925.562 1339.76 937.98 1340.27 942.161C1340.82 946.752 1337.84 949.568 1327.87 953.812C1319.72 957.294 1317.44 961.106 1318.17 969.877C1318.4 972.47 1318.36 974.554 1318.11 974.917C1317.03 976.628 1321.63 977.527 1326.3 976.546C1340.28 973.561 1340.09 973.709 1338.67 968.475C1337.78 965.214 1338.04 964.682 1341.28 963.25C1349.1 959.807 1353.17 954.573 1354.63 946.077C1358.5 924.145 1342.71 912.209 1318.37 918.652ZM1331.91 919.507C1341.29 919.742 1351.35 930.628 1350.87 940.127C1350.44 948.914 1346.41 954.768 1337.53 959.379C1333.22 961.606 1332.04 963.912 1332.61 968.918L1332.95 971.705C1328.01 972.803 1327.68 972.843 1324.46 973.732C1323.57 961.57 1322.6 960.439 1336.92 953.38C1345.91 948.963 1347.02 940.885 1339.81 932.525C1328.24 919.119 1304.2 931.848 1311 947.786C1311.3 948.54 1311.51 949.222 1311.43 949.314C1311.33 949.452 1306.14 951.286 1305.73 951.336C1305.69 951.341 1304.79 946.334 1304.34 944.642C1300.37 930.107 1314.97 919.146 1331.91 919.507ZM1323.62 981.611C1316.65 985.866 1317.46 994.919 1324.95 996.632C1339.88 1000.06 1351.8 990.009 1342.61 981.765C1339.89 979.265 1327.57 979.178 1323.62 981.611ZM1334.42 982.799C1337.76 982.894 1340.94 985.169 1341.24 987.629C1341.79 992.179 1330.92 995.784 1326.45 992.541C1324.25 990.935 1322.56 982.447 1334.42 982.799Z" fill="#091C00"/>
</g>
<defs>
<clipPath id="clip0_17_536">
<rect width="1920" height="1071" fill="white"/>
</clipPath>
</defs>
</svg>
