<svg width="37" height="36" viewBox="0 0 37 36" fill="none" xmlns="http://www.w3.org/2000/svg">
<ellipse cx="18.3744" cy="18" rx="18.1224" ry="18" fill="#091C00"/>
<path d="M18.3745 11.4546C16.5848 11.4546 16.3602 11.4624 15.6573 11.4941C14.9558 11.526 14.4769 11.6364 14.0579 11.7982C13.6245 11.9654 13.2569 12.189 12.8906 12.553C12.524 12.9168 12.2989 13.282 12.13 13.7124C11.9666 14.1287 11.8554 14.6045 11.8239 15.301C11.7924 15.9992 11.7842 16.2224 11.7842 18C11.7842 19.7777 11.7921 20.0001 11.824 20.6983C11.8563 21.3951 11.9673 21.8707 12.1301 22.2869C12.2986 22.7174 12.5237 23.0826 12.8902 23.4464C13.2563 23.8105 13.624 24.0347 14.0571 24.2019C14.4764 24.3637 14.9554 24.474 15.6568 24.5059C16.3597 24.5377 16.5841 24.5455 18.3737 24.5455C20.1635 24.5455 20.3874 24.5377 21.0903 24.5059C21.7919 24.474 22.2713 24.3637 22.6905 24.2019C23.1238 24.0347 23.4909 23.8105 23.8571 23.4464C24.2236 23.0826 24.4488 22.7174 24.6176 22.287C24.7796 21.8707 24.8908 21.3949 24.9238 20.6984C24.9554 20.0002 24.9636 19.7777 24.9636 18C24.9636 16.2224 24.9554 15.9993 24.9238 15.3011C24.8908 14.6043 24.7796 14.1287 24.6176 13.7125C24.4488 13.282 24.2236 12.9168 23.8571 12.553C23.4905 12.1889 23.124 11.9653 22.6901 11.7982C22.27 11.6364 21.7909 11.526 21.0894 11.4941C20.3865 11.4624 20.1627 11.4546 18.3725 11.4546H18.3745ZM17.7834 12.6341C17.9588 12.6339 18.1546 12.6341 18.3745 12.6341C20.134 12.6341 20.3425 12.6404 21.0373 12.6718C21.6798 12.701 22.0285 12.8076 22.2608 12.8972C22.5684 13.0158 22.7876 13.1576 23.0181 13.3867C23.2488 13.6158 23.3915 13.834 23.5112 14.1395C23.6014 14.3699 23.7089 14.7163 23.7382 15.3545C23.7698 16.0445 23.7766 16.2517 23.7766 17.9985C23.7766 19.7454 23.7698 19.9526 23.7382 20.6426C23.7088 21.2808 23.6014 21.6272 23.5112 21.8576C23.3918 22.1631 23.2488 22.3806 23.0181 22.6095C22.7875 22.8386 22.5685 22.9804 22.2608 23.0991C22.0288 23.1891 21.6798 23.2954 21.0373 23.3246C20.3427 23.356 20.134 23.3628 18.3745 23.3628C16.6149 23.3628 16.4064 23.356 15.7117 23.3246C15.0692 23.2952 14.7205 23.1885 14.488 23.0989C14.1805 22.9803 13.9609 22.8385 13.7302 22.6094C13.4996 22.3803 13.3568 22.1627 13.2371 21.8571C13.1469 21.6266 13.0394 21.2803 13.0102 20.6421C12.9786 19.9521 12.9723 19.7448 12.9723 17.9969C12.9723 16.249 12.9786 16.0428 13.0102 15.3528C13.0395 14.7146 13.1469 14.3683 13.2371 14.1375C13.3565 13.8321 13.4996 13.6139 13.7302 13.3848C13.9609 13.1557 14.1805 13.0139 14.488 12.895C14.7203 12.805 15.0692 12.6986 15.7117 12.6693C16.3196 12.642 16.5552 12.6339 17.7834 12.6325V12.6341ZM21.8921 13.721C21.4555 13.721 21.1013 14.0724 21.1013 14.5061C21.1013 14.9398 21.4555 15.2916 21.8921 15.2916C22.3287 15.2916 22.6829 14.9398 22.6829 14.5061C22.6829 14.0725 22.3287 13.7207 21.8921 13.7207V13.721ZM18.3745 14.6387C16.5056 14.6387 14.9904 16.1437 14.9904 18C14.9904 19.8564 16.5056 21.3607 18.3745 21.3607C20.2434 21.3607 21.7581 19.8564 21.7581 18C21.7581 16.1437 20.2433 14.6387 18.3744 14.6387H18.3745ZM18.3745 15.8182C19.5876 15.8182 20.5711 16.795 20.5711 18C20.5711 19.2049 19.5876 20.1819 18.3745 20.1819C17.1613 20.1819 16.1779 19.2049 16.1779 18C16.1779 16.795 17.1613 15.8182 18.3745 15.8182Z" fill="white"/>
</svg>
