<svg width="23" height="19" viewBox="0 0 23 19" fill="none" xmlns="http://www.w3.org/2000/svg">
<g clip-path="url(#clip0_4_2771)">
<path d="M21.9127 17.3732C21.9602 17.3736 22.0074 17.3645 22.0511 17.3463C22.0949 17.3281 22.1344 17.3013 22.1672 17.2674C22.2 17.2336 22.2254 17.1935 22.2418 17.1496C22.2582 17.1058 22.2652 17.059 22.2625 17.0124C22.2625 16.7565 22.1055 16.6343 21.7835 16.6343H21.2632V17.9738H21.4589V17.3899H21.6994L21.7049 17.397L22.0781 17.9738H22.2873L21.8858 17.3768L21.9127 17.3732ZM21.6864 17.239H21.4594V16.7861H21.7471C21.8957 16.7861 22.065 16.81 22.065 17.0013C22.065 17.2213 21.8936 17.239 21.6852 17.239" fill="white"/>
<path d="M16.8082 15.694H14.0331V11.42C14.0331 10.4008 14.0146 9.08882 12.5898 9.08882C11.1444 9.08882 10.9233 10.1993 10.9233 11.3458V15.6937H8.14822V6.90463H10.8123V8.10575H10.8496C11.1162 7.65744 11.5015 7.28864 11.9643 7.03863C12.4272 6.78861 12.9504 6.66675 13.4781 6.68602C16.2907 6.68602 16.8093 8.50546 16.8093 10.8724L16.8082 15.694ZM5.01703 5.70323C4.69852 5.70329 4.38714 5.61046 4.12228 5.43647C3.85742 5.26249 3.65098 5.01518 3.52904 4.7258C3.4071 4.43643 3.37514 4.11799 3.43722 3.81076C3.4993 3.50353 3.65263 3.2213 3.87781 2.99976C4.10299 2.77823 4.38991 2.62734 4.70229 2.56617C5.01466 2.50501 5.33846 2.53632 5.63275 2.65614C5.92703 2.77596 6.17858 2.97891 6.35558 3.23932C6.53258 3.49974 6.62709 3.80593 6.62715 4.11917C6.62719 4.32716 6.58556 4.53311 6.50467 4.72528C6.42377 4.91744 6.30519 5.09206 6.15568 5.23915C6.00617 5.38625 5.82865 5.50294 5.63328 5.58256C5.43791 5.66219 5.22851 5.70319 5.01703 5.70323V5.70323ZM6.40456 15.694H3.6266V6.90463H6.40456V15.694ZM18.1917 0.0012549H2.23214C1.8699 -0.00276533 1.52085 0.134812 1.2617 0.383756C1.00255 0.632699 0.854519 0.972641 0.850098 1.32888V17.0896C0.854367 17.446 1.00232 17.7861 1.26145 18.0353C1.52059 18.2845 1.86972 18.4224 2.23214 18.4186H18.1917C18.5548 18.4231 18.9049 18.2856 19.1651 18.0364C19.4252 17.7872 19.5742 17.4467 19.5792 17.0896V1.32775C19.574 0.970797 19.425 0.630469 19.1648 0.381531C18.9046 0.132594 18.5546 -0.00459043 18.1917 0.000117282" fill="white"/>
<path d="M21.7106 16.0371C21.373 16.0403 21.0504 16.1749 20.8134 16.4113C20.5763 16.6478 20.4442 16.967 20.4458 17.2991C20.4474 17.6311 20.5827 17.949 20.822 18.1833C21.0614 18.4175 21.3853 18.549 21.7229 18.549C22.0606 18.549 22.3845 18.4175 22.6238 18.1833C22.8631 17.949 22.9984 17.6311 23 17.2991C23.0016 16.967 22.8695 16.6478 22.6325 16.4113C22.3954 16.1749 22.0728 16.0403 21.7352 16.0371H21.7106ZM21.7106 18.4052C21.4892 18.4088 21.2716 18.3478 21.0854 18.2298C20.8992 18.1118 20.7528 17.9422 20.6647 17.7424C20.5765 17.5426 20.5506 17.3215 20.5902 17.1072C20.6298 16.8929 20.7331 16.6949 20.8871 16.5384C21.0411 16.3818 21.2388 16.2736 21.4553 16.2276C21.6717 16.1816 21.8973 16.1997 22.1033 16.2797C22.3093 16.3597 22.4865 16.4979 22.6126 16.677C22.7387 16.8561 22.808 17.0679 22.8117 17.2857C22.8117 17.292 22.8117 17.2979 22.8117 17.3042C22.8179 17.5899 22.7085 17.8663 22.5074 18.0727C22.3064 18.2791 22.0303 18.3985 21.7398 18.4047H21.7109" fill="white"/>
</g>
<defs>
<clipPath id="clip0_4_2771">
<rect width="22.1497" height="18.5714" fill="white" transform="translate(0.850098)"/>
</clipPath>
</defs>
</svg>
