<svg width="52" height="52" viewBox="0 0 52 52" fill="none" xmlns="http://www.w3.org/2000/svg">
<rect width="51.194" height="51.194" rx="10" fill="#4AD906" fill-opacity="0.43"/>
<g clip-path="url(#clip0_1_2403)">
<path d="M26.5761 20.65C26.0319 21.193 25.15 21.193 24.6058 20.65C24.0617 20.107 24.0617 19.2265 24.6058 18.6835C25.15 18.1405 26.0319 18.1405 26.5761 18.6835C27.1202 19.2265 27.1202 20.107 26.5761 20.65Z" fill="#F4A259"/>
<path d="M28.4791 22.757C28.3094 22.757 28.1397 22.6922 28.0104 22.5625C27.752 22.3037 27.7525 21.8844 28.0113 21.6261C28.5357 21.1027 28.8245 20.4068 28.8245 19.6668C28.8245 18.9268 28.5357 18.2309 28.0113 17.7075C27.7525 17.449 27.752 17.0299 28.0104 16.7709C28.2687 16.5121 28.688 16.5116 28.9468 16.7701C29.722 17.5438 30.1489 18.5724 30.1489 19.6668C30.1489 20.761 29.722 21.7898 28.9468 22.5635C28.8176 22.6926 28.6484 22.757 28.4791 22.757Z" fill="#F4A259"/>
<path d="M29.9772 24.7066C29.8074 24.7066 29.6377 24.6418 29.5085 24.5123C29.25 24.2533 29.2505 23.8342 29.5093 23.5757C30.5555 22.5315 31.1319 21.1434 31.1319 19.6668C31.1319 18.1903 30.5555 16.8021 29.5093 15.7579C29.2505 15.4994 29.25 15.0803 29.5085 14.8213C29.7669 14.5625 30.1861 14.562 30.4449 14.8205C31.7418 16.1149 32.4563 17.8361 32.4561 19.6668C32.4561 21.4976 31.7418 23.2189 30.4449 24.5133C30.3156 24.6422 30.1464 24.7066 29.9772 24.7066Z" fill="#F4A259"/>
<path d="M22.6992 22.7567C22.53 22.7567 22.3607 22.6922 22.2313 22.5632C21.4561 21.7895 21.0293 20.7607 21.0293 19.6665C21.0293 18.5721 21.4561 17.5435 22.2313 16.7698C22.4901 16.5113 22.9094 16.5117 23.1677 16.7706C23.4262 17.0294 23.4257 17.4487 23.1669 17.7072C22.6424 18.2306 22.3537 18.9264 22.3537 19.6665C22.3537 20.4065 22.6424 21.1024 23.1669 21.6258C23.4257 21.8841 23.4262 22.3034 23.1677 22.5622C23.0385 22.6917 22.8688 22.7567 22.6992 22.7567Z" fill="#F4A259"/>
<path d="M21.2012 24.7073C21.0318 24.7073 20.8626 24.6429 20.7334 24.5138C19.4364 23.2194 18.7222 21.4983 18.7222 19.6675C18.7222 17.8366 19.4364 16.1155 20.7334 14.821C20.9922 14.5627 21.4115 14.5631 21.6698 14.822C21.9282 15.0808 21.9277 15.5 21.6689 15.7584C20.6227 16.8026 20.0464 18.1908 20.0464 19.6673C20.0464 21.1439 20.6227 22.5322 21.6689 23.5764C21.9277 23.8349 21.9282 24.254 21.6698 24.513C21.5405 24.6425 21.3708 24.7073 21.2012 24.7073Z" fill="#F4A259"/>
<path d="M34.3165 25.8514H16.8615C16.006 25.8514 15.3125 26.5449 15.3125 27.4003V35.0181C15.3125 35.8736 16.006 36.5671 16.8615 36.5671H34.3164C35.1719 36.5671 35.8654 35.8736 35.8654 35.0181V27.4003C35.8654 26.5449 35.1719 25.8514 34.3165 25.8514V25.8514ZM20.4064 34.5797H17.9666C17.6011 34.5797 17.3046 34.2833 17.3046 33.9175V28.5011C17.3046 28.1355 17.6011 27.8389 17.9666 27.8389C18.3324 27.8389 18.6288 28.1353 18.6288 28.5011V33.2553H20.4064C20.7721 33.2553 21.0686 33.5518 21.0686 33.9175C21.0686 34.2833 20.7721 34.5797 20.4064 34.5797ZM23.1201 33.9175C23.1201 34.2833 22.8237 34.5797 22.4579 34.5797C22.0922 34.5797 21.7957 34.2833 21.7957 33.9175V28.5011C21.7957 28.1355 22.0922 27.8389 22.4579 27.8389C22.8237 27.8389 23.1201 28.1353 23.1201 28.5011V33.9175ZM28.6915 28.6926L27.0563 34.1088C27.0561 34.1093 27.056 34.1098 27.0558 34.1103C26.8782 34.7165 25.9728 34.7016 25.789 34.1103C25.7888 34.1098 25.7887 34.1093 25.7885 34.1088L24.1532 28.6926C24.0476 28.3424 24.2456 27.973 24.5958 27.8672C24.9457 27.7615 25.3154 27.9596 25.4211 28.3097L26.4224 31.6263L27.4237 28.3097C27.5295 27.9596 27.8989 27.7614 28.2491 27.8672C28.5991 27.973 28.7973 28.3424 28.6915 28.6926V28.6926ZM32.7653 30.2061C33.1311 30.2061 33.4275 30.5026 33.4275 30.8683C33.4275 31.2339 33.1311 31.5305 32.7653 31.5305H30.8862V33.2553H33.122C33.4878 33.2553 33.7842 33.5518 33.7842 33.9175C33.7842 34.2833 33.4878 34.5797 33.122 34.5797H30.224C29.8583 34.5797 29.5618 34.2833 29.5618 33.9175V28.5011C29.5618 28.1355 29.8583 27.8389 30.224 27.8389H33.2113C33.5768 27.8389 33.8735 28.1353 33.8735 28.5011C33.8735 28.8668 33.5768 29.1633 33.2113 29.1633H30.886V30.2061H32.7653Z" fill="#F4A259"/>
</g>
<defs>
<clipPath id="clip0_1_2403">
<rect width="21.9403" height="21.9403" fill="white" transform="translate(14.627 14.6268)"/>
</clipPath>
</defs>
</svg>
