<svg width="169" height="50" viewBox="0 0 169 50" fill="none" xmlns="http://www.w3.org/2000/svg">
<path d="M1.6 12.344H8.704V29.624H15.552V35H1.6V12.344ZM35.8995 25.976C35.8995 31.736 31.8035 35.224 26.3635 35.224C20.9235 35.224 16.8275 31.736 16.8275 25.976C16.8275 20.216 20.9235 16.728 26.3635 16.728C31.8035 16.728 35.8995 20.216 35.8995 25.976ZM24.0275 25.976C24.0275 28.12 25.0835 29.08 26.3635 29.08C27.6115 29.08 28.6995 28.12 28.6995 25.976C28.6995 23.832 27.6115 22.872 26.3635 22.872C25.1155 22.872 24.0275 23.832 24.0275 25.976ZM37.1713 25.976C37.1713 20.152 40.4673 16.728 44.6273 16.728C47.0273 16.728 48.7553 17.784 49.6193 19.416V16.952H56.6913V34.68C56.6913 39.448 54.2273 43.864 47.4753 43.864C41.5873 43.864 38.1633 40.888 37.6833 36.312H44.6593C44.8513 37.24 45.6513 37.72 46.9633 37.72C48.4033 37.72 49.6193 37.208 49.6193 34.68V32.536C48.7553 34.168 47.0273 35.224 44.6273 35.224C40.4673 35.224 37.1713 31.8 37.1713 25.976ZM49.6193 25.976C49.6193 23.992 48.4673 22.936 46.9953 22.936C45.5233 22.936 44.3713 23.992 44.3713 25.976C44.3713 27.96 45.5233 29.016 46.9953 29.016C48.4673 29.016 49.6193 27.96 49.6193 25.976ZM77.9933 25.976C77.9933 31.736 73.8973 35.224 68.4573 35.224C63.0173 35.224 58.9213 31.736 58.9213 25.976C58.9213 20.216 63.0173 16.728 68.4573 16.728C73.8973 16.728 77.9933 20.216 77.9933 25.976ZM66.1213 25.976C66.1213 28.12 67.1773 29.08 68.4573 29.08C69.7053 29.08 70.7933 28.12 70.7933 25.976C70.7933 23.832 69.7053 22.872 68.4573 22.872C67.2093 22.872 66.1213 23.832 66.1213 25.976ZM99.5185 35V26.168H92.7665V35H85.6625V12.344H92.7665V20.504H99.5185V12.344H106.623V35H99.5185ZM118.075 22.296C116.891 22.296 116.091 22.872 115.867 24.12H120.091C120.091 22.872 119.131 22.296 118.075 22.296ZM126.907 28.504C126.139 32.344 122.619 35.224 118.075 35.224C112.667 35.224 108.859 31.736 108.859 25.976C108.859 20.216 112.667 16.728 118.075 16.728C123.483 16.728 127.291 20.152 127.291 25.816C127.291 26.264 127.259 26.776 127.195 27.224H115.803C115.899 29.048 116.763 29.56 117.723 29.56C118.651 29.56 119.131 29.048 119.387 28.504H126.907ZM136.642 27.608V35H129.538V16.952H136.642V20.28C138.05 18.264 140.226 16.824 142.562 16.824V24.408H140.546C137.986 24.408 136.642 25.144 136.642 27.608ZM152.731 22.296C151.547 22.296 150.747 22.872 150.523 24.12H154.747C154.747 22.872 153.787 22.296 152.731 22.296ZM161.563 28.504C160.795 32.344 157.275 35.224 152.731 35.224C147.323 35.224 143.515 31.736 143.515 25.976C143.515 20.216 147.323 16.728 152.731 16.728C158.139 16.728 161.947 20.152 161.947 25.816C161.947 26.264 161.915 26.776 161.851 27.224H150.459C150.555 29.048 151.419 29.56 152.379 29.56C153.307 29.56 153.787 29.048 154.043 28.504H161.563Z" fill="#091C00"/>
<circle cx="166" cy="33" r="3" fill="#FF7F56"/>
</svg>
