<svg width="1920" height="6165" viewBox="0 0 1920 6165" fill="none" xmlns="http://www.w3.org/2000/svg">
<g clip-path="url(#clip0_1_2479)">
<rect width="1920" height="6165" fill="white"/>
<g filter="url(#filter0_f_1_2479)">
<rect x="-245" y="4503" width="554" height="554" rx="277" fill="#4AD906"/>
</g>
<g filter="url(#filter1_f_1_2479)">
<rect x="-245" y="2343" width="554" height="554" rx="277" fill="#4AD906"/>
</g>
<g filter="url(#filter2_f_1_2479)">
<rect x="1595" y="3497" width="554" height="554" rx="277" fill="#4AD906"/>
</g>
<g filter="url(#filter3_f_1_2479)">
<rect x="1606" y="5418" width="554" height="554" rx="277" fill="#4AD906"/>
</g>
<g filter="url(#filter4_f_1_2479)">
<rect x="1380" y="605" width="374" height="374" rx="187" fill="#4AD906"/>
</g>
<g filter="url(#filter5_f_1_2479)">
<rect x="161" y="434" width="374" height="374" rx="187" fill="#4AD906"/>
</g>
<path fill-rule="evenodd" clip-rule="evenodd" d="M99.1361 4698.39C97.9406 4698.86 93.0411 4701.92 88.2606 4705.06C76.1131 4713.11 74.7386 4713.88 72.7479 4715.22C54.512 4713.28 50.1114 4711.47 50.8002 4728.13C50.9221 4730.72 50.753 4730.95 44.4683 4736.96C29.4892 4751.29 30.3008 4749.9 33.4322 4755.6C34.0879 4756.89 44.2419 4777.14 44.2419 4777.14C42.6199 4783.28 42.7221 4783.89 39.6142 4786.03C36.3675 4788.23 29.9604 4793.75 25.0465 4798.58C23.1683 4800.47 21.0022 4802.5 20.2473 4803.11C16.9098 4805.88 7.09537 4817.99 5.12803 4821.7C-0.564545 4832.35 4.43157 4833.72 21.6522 4826.14L27.318 4823.66C25.4794 4845.92 24.9576 4848.41 29.2076 4849.08C30.4311 4849.27 40.2831 4839.87 46.8299 4832.19C54.0874 4823.77 68.7687 4809.66 69.5151 4810.37C74.1826 4814.26 76.4732 4817.32 84.9439 4822.21C85.9137 4822.76 87.0831 4822.88 88.1196 4822.58C89.7861 4822.05 92.435 4821.14 98.622 4818.29C104.809 4815.44 104.948 4815.39 106.054 4816.75C108.647 4819.99 121.427 4847.9 124.135 4856.3C127.683 4867.34 130.407 4869.75 134.338 4861.92C137.133 4856.3 140.352 4845.86 142.232 4839.76C142.232 4839.76 155.954 4852.39 157.155 4853.57C159.557 4855.92 161.811 4856.27 165.066 4854.87C171.009 4852.31 154.503 4811.55 142.41 4799.05C139.801 4796.33 138.616 4794.63 138.954 4794.15C139.282 4793.74 144.641 4789.44 150.819 4784.54C167.216 4771.69 166.972 4774.09 153.34 4755.4C147.04 4746.77 146.051 4744.24 145.608 4742.85C145.387 4742.16 146.212 4737.74 146.358 4733.02C146.599 4722.64 147.162 4723.25 135.857 4722.14C128.842 4721.44 127.564 4721.17 126.546 4720.09C108.974 4701.71 104.206 4696.35 99.1361 4698.39ZM108.713 4710.11C117.82 4719.78 122.457 4723.86 124.691 4724.35C127.118 4724.86 137.6 4726.17 140.379 4726.54L139.192 4738.75C139.014 4740.3 139.436 4741.82 140.221 4743.13C150.939 4759.77 151.086 4760.52 156.039 4770.59C141.664 4783.17 137.284 4788.82 133.976 4791.4C131.796 4793.1 132.024 4793.33 130.225 4806.5C114.172 4805.37 114.609 4805.1 109.153 4807.08C94.7379 4812.34 86.9477 4817.84 86.9477 4817.84L81.701 4813.86C77.1661 4810.38 66.8031 4801.57 64.2986 4798.61C63.9526 4798.29 62.6554 4796.04 59.6088 4795.69L47.4762 4794.39L49.4028 4779.99C49.9294 4775.79 47.9801 4772.64 37.7951 4754.7C53.4815 4737.12 50.6557 4739.58 56.5827 4732.07C58.0745 4730.12 58.8897 4723.66 59.6257 4718.96C59.7568 4718.13 60.5115 4717.52 61.3587 4717.59C74.765 4718.76 76.0969 4719.1 82.5439 4715.43C90.9614 4710.56 99.6934 4704.94 100.221 4704.1C101.117 4702.59 102.66 4703.69 108.713 4710.11ZM116.838 4727.73C111.096 4723.53 98.9539 4720.18 91.6829 4720.69C41.0635 4724.16 38.9989 4797.54 89.3107 4805.29C129.191 4811.41 157.615 4759.7 128.073 4734.76C122.357 4729.98 119.331 4732.87 124.803 4737.94C155.862 4766.68 109.328 4819.44 74.4222 4795.05C37.2514 4769.12 66.6884 4714.73 110.48 4729.57C115.544 4731.35 119.978 4730 116.838 4727.73ZM88.8546 4734.95C76.1357 4736.12 64.3445 4762.95 70.3975 4763.9C71.5566 4764.08 72.2934 4762.74 72.8177 4759.4C74.068 4751.42 85.4907 4738.31 92.1139 4737.3C95.356 4736.82 92.3341 4734.64 88.8546 4734.95ZM97.738 4744.78C95.52 4745.88 90.5841 4751.7 85.6423 4755.87C84.8774 4756.54 84.7599 4757.71 85.4962 4758.48C86.2224 4759.32 88.9875 4759.36 90.9682 4758.09C93.8325 4756.23 93.9711 4756.19 93.4071 4757.68C92.4545 4759.97 90.156 4767.06 89.5595 4769.6C89.0134 4771.82 89.0138 4771.82 84.6529 4771.87C72.6951 4771.97 78.8869 4778.35 82.8026 4779.88C86.342 4781.29 91.9543 4782.11 99.8771 4782.49C106.749 4782.84 105.384 4774.72 98.365 4773.62C95.2097 4773.12 95.2476 4773.72 98.5615 4763.1C103.144 4748.59 103.461 4746.99 101.903 4745.56C100.312 4743.93 99.6682 4743.83 97.738 4744.78ZM122.925 4763.82C121.645 4771.99 115.834 4780.44 108.568 4784.71C102.101 4788.51 101.267 4790.88 106.445 4791.1C115.16 4791.48 130.521 4767.98 125.806 4761.44C124.319 4759.56 123.48 4760.28 122.925 4763.82ZM147.356 4819.27C152.482 4829.5 157.71 4842.45 157.162 4843.42C156.993 4843.65 153.447 4841.45 149.228 4838.48C138.717 4831.03 137.701 4831.2 135.253 4840.51C131.172 4856.02 131.172 4856.02 126.176 4843.7C119.914 4828.09 117.929 4825.6 109.591 4813.55C113.122 4810.8 113.7 4809.64 125.27 4811.59C134.33 4813.14 133.839 4813.33 135.877 4807.05L137.541 4801.91C139.585 4804.87 141.289 4807.04 147.356 4819.27ZM41.7024 4794.6C41.3387 4799.03 44.1194 4800.65 54.3782 4802.13C65.7317 4803.77 65.786 4803.85 58.3701 4810.33C43.3895 4823.41 38.1907 4830.9 32.183 4838.93C33.6547 4818.59 34.2004 4818.48 30.1234 4817.97C27.7951 4817.67 19.4668 4820.72 15.9244 4822.27C12.7987 4823.69 13.1212 4821.64 13.7535 4820.55C16.0389 4816.49 40.8706 4790.65 41.5324 4791.48C41.6853 4791.77 41.7854 4793.23 41.7024 4794.6Z" fill="white"/>
<path d="M184.6 5828.34H191.704V5845.62H198.552V5851H184.6V5828.34ZM218.9 5841.98C218.9 5847.74 214.804 5851.22 209.364 5851.22C203.924 5851.22 199.828 5847.74 199.828 5841.98C199.828 5836.22 203.924 5832.73 209.364 5832.73C214.804 5832.73 218.9 5836.22 218.9 5841.98ZM207.028 5841.98C207.028 5844.12 208.084 5845.08 209.364 5845.08C210.612 5845.08 211.7 5844.12 211.7 5841.98C211.7 5839.83 210.612 5838.87 209.364 5838.87C208.116 5838.87 207.028 5839.83 207.028 5841.98ZM220.171 5841.98C220.171 5836.15 223.467 5832.73 227.627 5832.73C230.027 5832.73 231.755 5833.78 232.619 5835.42V5832.95H239.691V5850.68C239.691 5855.45 237.227 5859.86 230.475 5859.86C224.587 5859.86 221.163 5856.89 220.683 5852.31H227.659C227.851 5853.24 228.651 5853.72 229.963 5853.72C231.403 5853.72 232.619 5853.21 232.619 5850.68V5848.54C231.755 5850.17 230.027 5851.22 227.627 5851.22C223.467 5851.22 220.171 5847.8 220.171 5841.98ZM232.619 5841.98C232.619 5839.99 231.467 5838.94 229.995 5838.94C228.523 5838.94 227.371 5839.99 227.371 5841.98C227.371 5843.96 228.523 5845.02 229.995 5845.02C231.467 5845.02 232.619 5843.96 232.619 5841.98ZM260.993 5841.98C260.993 5847.74 256.897 5851.22 251.457 5851.22C246.017 5851.22 241.921 5847.74 241.921 5841.98C241.921 5836.22 246.017 5832.73 251.457 5832.73C256.897 5832.73 260.993 5836.22 260.993 5841.98ZM249.121 5841.98C249.121 5844.12 250.177 5845.08 251.457 5845.08C252.705 5845.08 253.793 5844.12 253.793 5841.98C253.793 5839.83 252.705 5838.87 251.457 5838.87C250.209 5838.87 249.121 5839.83 249.121 5841.98ZM282.519 5851V5842.17H275.767V5851H268.663V5828.34H275.767V5836.5H282.519V5828.34H289.623V5851H282.519ZM301.075 5838.3C299.891 5838.3 299.091 5838.87 298.867 5840.12H303.091C303.091 5838.87 302.131 5838.3 301.075 5838.3ZM309.907 5844.5C309.139 5848.34 305.619 5851.22 301.075 5851.22C295.667 5851.22 291.859 5847.74 291.859 5841.98C291.859 5836.22 295.667 5832.73 301.075 5832.73C306.483 5832.73 310.291 5836.15 310.291 5841.82C310.291 5842.26 310.259 5842.78 310.195 5843.22H298.803C298.899 5845.05 299.763 5845.56 300.723 5845.56C301.651 5845.56 302.131 5845.05 302.387 5844.5H309.907ZM319.642 5843.61V5851H312.538V5832.95H319.642V5836.28C321.05 5834.26 323.226 5832.82 325.562 5832.82V5840.41H323.546C320.986 5840.41 319.642 5841.14 319.642 5843.61ZM335.731 5838.3C334.547 5838.3 333.747 5838.87 333.523 5840.12H337.747C337.747 5838.87 336.787 5838.3 335.731 5838.3ZM344.563 5844.5C343.795 5848.34 340.275 5851.22 335.731 5851.22C330.323 5851.22 326.515 5847.74 326.515 5841.98C326.515 5836.22 330.323 5832.73 335.731 5832.73C341.139 5832.73 344.947 5836.15 344.947 5841.82C344.947 5842.26 344.915 5842.78 344.851 5843.22H333.459C333.555 5845.05 334.419 5845.56 335.379 5845.56C336.307 5845.56 336.787 5845.05 337.043 5844.5H344.563Z" fill="white"/>
<circle cx="349" cy="5848" r="3" fill="#FF7F56"/>
<path d="M184.232 5952.85H185.688V5962.82H189.592V5964H184.232V5952.85ZM199.458 5959.6C199.458 5962.38 197.458 5964.14 194.962 5964.14C192.482 5964.14 190.594 5962.38 190.594 5959.6C190.594 5956.83 192.546 5955.09 195.026 5955.09C197.522 5955.09 199.458 5956.83 199.458 5959.6ZM192.082 5959.6C192.082 5961.82 193.442 5962.86 194.962 5962.86C196.482 5962.86 197.97 5961.82 197.97 5959.6C197.97 5957.39 196.514 5956.35 195.01 5956.35C193.474 5956.35 192.082 5957.39 192.082 5959.6ZM202.829 5959.23V5964H201.373V5955.23H202.829V5956.66C203.325 5955.68 204.269 5955.07 205.661 5955.07V5956.58H205.277C203.885 5956.58 202.829 5957.2 202.829 5959.23ZM211.069 5956.32C209.645 5956.32 208.461 5957.26 208.301 5958.98H213.837C213.853 5957.26 212.573 5956.32 211.069 5956.32ZM215.165 5961.3C214.717 5962.9 213.309 5964.14 211.133 5964.14C208.637 5964.14 206.797 5962.38 206.797 5959.6C206.797 5956.83 208.573 5955.09 211.133 5955.09C213.677 5955.09 215.341 5956.88 215.341 5959.28C215.341 5959.6 215.325 5959.86 215.293 5960.16H208.285C208.397 5961.94 209.645 5962.91 211.133 5962.91C212.445 5962.91 213.277 5962.24 213.597 5961.3H215.165ZM229.919 5964V5959.04C229.919 5957.25 228.959 5956.34 227.519 5956.34C226.047 5956.34 225.039 5957.28 225.039 5959.17V5964H223.599V5959.04C223.599 5957.25 222.639 5956.34 221.199 5956.34C219.727 5956.34 218.719 5957.28 218.719 5959.17V5964H217.263V5955.23H218.719V5956.5C219.295 5955.57 220.335 5955.07 221.487 5955.07C222.927 5955.07 224.127 5955.71 224.703 5957.02C225.215 5955.76 226.463 5955.07 227.807 5955.07C229.807 5955.07 231.359 5956.32 231.359 5958.83V5964H229.919ZM238.013 5964V5955.23H239.469V5964H238.013ZM238.765 5953.81C238.205 5953.81 237.773 5953.38 237.773 5952.82C237.773 5952.26 238.205 5951.82 238.765 5951.82C239.293 5951.82 239.725 5952.26 239.725 5952.82C239.725 5953.38 239.293 5953.81 238.765 5953.81ZM243.407 5956.85C243.935 5955.92 245.087 5955.09 246.687 5955.09C249.039 5955.09 250.847 5956.85 250.847 5959.58C250.847 5962.3 249.039 5964.14 246.687 5964.14C245.087 5964.14 243.951 5963.28 243.407 5962.38V5968.16H241.951V5955.23H243.407V5956.85ZM249.359 5959.58C249.359 5957.52 247.999 5956.35 246.383 5956.35C244.799 5956.35 243.407 5957.57 243.407 5959.6C243.407 5961.66 244.799 5962.86 246.383 5962.86C247.999 5962.86 249.359 5961.65 249.359 5959.58ZM259.067 5961.62C259.067 5963.06 257.803 5964.14 255.867 5964.14C253.819 5964.14 252.379 5963.02 252.283 5961.42H253.787C253.867 5962.27 254.619 5962.91 255.851 5962.91C257.003 5962.91 257.643 5962.34 257.643 5961.62C257.643 5959.66 252.459 5960.8 252.459 5957.54C252.459 5956.19 253.723 5955.09 255.675 5955.09C257.611 5955.09 258.891 5956.13 258.987 5957.84H257.531C257.467 5956.96 256.795 5956.32 255.627 5956.32C254.555 5956.32 253.915 5956.83 253.915 5957.54C253.915 5959.62 259.003 5958.48 259.067 5961.62ZM268.899 5955.23V5964H267.443V5962.7C266.883 5963.62 265.811 5964.13 264.643 5964.13C262.627 5964.13 261.043 5962.88 261.043 5960.37V5955.23H262.483V5960.18C262.483 5961.95 263.459 5962.86 264.931 5962.86C266.435 5962.86 267.443 5961.94 267.443 5960.05V5955.23H268.899ZM284.013 5964V5959.04C284.013 5957.25 283.053 5956.34 281.613 5956.34C280.141 5956.34 279.133 5957.28 279.133 5959.17V5964H277.693V5959.04C277.693 5957.25 276.733 5956.34 275.293 5956.34C273.821 5956.34 272.813 5957.28 272.813 5959.17V5964H271.357V5955.23H272.813V5956.5C273.389 5955.57 274.429 5955.07 275.581 5955.07C277.021 5955.07 278.221 5955.71 278.797 5957.02C279.309 5955.76 280.557 5955.07 281.901 5955.07C283.901 5955.07 285.453 5956.32 285.453 5958.83V5964H284.013ZM291.563 5959.58C291.563 5956.85 293.371 5955.09 295.739 5955.09C297.115 5955.09 298.379 5955.79 298.987 5956.8V5952.16H300.459V5964H298.987V5962.35C298.459 5963.33 297.323 5964.14 295.723 5964.14C293.371 5964.14 291.563 5962.3 291.563 5959.58ZM298.987 5959.6C298.987 5957.57 297.611 5956.35 296.011 5956.35C294.411 5956.35 293.051 5957.52 293.051 5959.58C293.051 5961.65 294.411 5962.86 296.011 5962.86C297.611 5962.86 298.987 5961.66 298.987 5959.6ZM311.24 5959.6C311.24 5962.38 309.24 5964.14 306.744 5964.14C304.264 5964.14 302.376 5962.38 302.376 5959.6C302.376 5956.83 304.328 5955.09 306.808 5955.09C309.304 5955.09 311.24 5956.83 311.24 5959.6ZM303.864 5959.6C303.864 5961.82 305.224 5962.86 306.744 5962.86C308.264 5962.86 309.752 5961.82 309.752 5959.6C309.752 5957.39 308.296 5956.35 306.792 5956.35C305.256 5956.35 303.864 5957.39 303.864 5959.6ZM313.154 5964V5952.16H314.61V5964H313.154ZM325.411 5959.6C325.411 5962.38 323.411 5964.14 320.915 5964.14C318.435 5964.14 316.547 5962.38 316.547 5959.6C316.547 5956.83 318.499 5955.09 320.979 5955.09C323.475 5955.09 325.411 5956.83 325.411 5959.6ZM318.035 5959.6C318.035 5961.82 319.395 5962.86 320.915 5962.86C322.435 5962.86 323.923 5961.82 323.923 5959.6C323.923 5957.39 322.467 5956.35 320.963 5956.35C319.427 5956.35 318.035 5957.39 318.035 5959.6ZM328.782 5959.23V5964H327.326V5955.23H328.782V5956.66C329.278 5955.68 330.222 5955.07 331.614 5955.07V5956.58H331.23C329.838 5956.58 328.782 5957.2 328.782 5959.23ZM343.864 5961.62C343.864 5963.06 342.6 5964.14 340.664 5964.14C338.616 5964.14 337.176 5963.02 337.08 5961.42H338.584C338.664 5962.27 339.416 5962.91 340.648 5962.91C341.8 5962.91 342.44 5962.34 342.44 5961.62C342.44 5959.66 337.256 5960.8 337.256 5957.54C337.256 5956.19 338.52 5955.09 340.472 5955.09C342.408 5955.09 343.688 5956.13 343.784 5957.84H342.328C342.264 5956.96 341.592 5956.32 340.424 5956.32C339.352 5956.32 338.712 5956.83 338.712 5957.54C338.712 5959.62 343.8 5958.48 343.864 5961.62ZM345.92 5964V5955.23H347.376V5964H345.92ZM346.672 5953.81C346.112 5953.81 345.68 5953.38 345.68 5952.82C345.68 5952.26 346.112 5951.82 346.672 5951.82C347.2 5951.82 347.632 5952.26 347.632 5952.82C347.632 5953.38 347.2 5953.81 346.672 5953.81ZM350.177 5961.6V5956.43H349.041V5955.23H350.177V5953.02H351.633V5955.23H353.921V5956.43H351.633V5961.6C351.633 5962.46 351.953 5962.77 352.849 5962.77H353.921V5964H352.609C351.057 5964 350.177 5963.36 350.177 5961.6ZM359.407 5959.58C359.407 5956.85 361.215 5955.09 363.567 5955.09C365.199 5955.09 366.319 5955.92 366.831 5956.83V5955.23H368.303V5964H366.831V5962.37C366.303 5963.31 365.167 5964.14 363.551 5964.14C361.215 5964.14 359.407 5962.3 359.407 5959.58ZM366.831 5959.6C366.831 5957.57 365.455 5956.35 363.855 5956.35C362.255 5956.35 360.895 5957.52 360.895 5959.58C360.895 5961.65 362.255 5962.86 363.855 5962.86C365.455 5962.86 366.831 5961.66 366.831 5959.6ZM383.419 5964V5959.04C383.419 5957.25 382.459 5956.34 381.019 5956.34C379.547 5956.34 378.539 5957.28 378.539 5959.17V5964H377.099V5959.04C377.099 5957.25 376.139 5956.34 374.699 5956.34C373.227 5956.34 372.219 5957.28 372.219 5959.17V5964H370.763V5955.23H372.219V5956.5C372.795 5955.57 373.835 5955.07 374.987 5955.07C376.427 5955.07 377.627 5955.71 378.203 5957.02C378.715 5955.76 379.963 5955.07 381.307 5955.07C383.307 5955.07 384.859 5956.32 384.859 5958.83V5964H383.419ZM390.976 5956.32C389.552 5956.32 388.368 5957.26 388.208 5958.98H393.744C393.76 5957.26 392.48 5956.32 390.976 5956.32ZM395.072 5961.3C394.624 5962.9 393.216 5964.14 391.04 5964.14C388.544 5964.14 386.704 5962.38 386.704 5959.6C386.704 5956.83 388.48 5955.09 391.04 5955.09C393.584 5955.09 395.248 5956.88 395.248 5959.28C395.248 5959.6 395.232 5959.86 395.2 5960.16H388.192C388.304 5961.94 389.552 5962.91 391.04 5962.91C392.352 5962.91 393.184 5962.24 393.504 5961.3H395.072ZM397.49 5961.6V5956.43H396.354V5955.23H397.49V5953.02H398.946V5955.23H401.234V5956.43H398.946V5961.6C398.946 5962.46 399.266 5962.77 400.161 5962.77H401.234V5964H399.922C398.37 5964 397.49 5963.36 397.49 5961.6ZM183.688 5987.6C183.688 5984.85 185.464 5983.09 187.96 5983.09C190.136 5983.09 191.56 5984.21 192.008 5986.05H190.44C190.136 5984.99 189.256 5984.32 187.96 5984.32C186.36 5984.32 185.176 5985.46 185.176 5987.6C185.176 5989.78 186.36 5990.91 187.96 5990.91C189.256 5990.91 190.12 5990.29 190.44 5989.18H192.008C191.56 5990.93 190.136 5992.14 187.96 5992.14C185.464 5992.14 183.688 5990.38 183.688 5987.6ZM202.271 5987.6C202.271 5990.38 200.271 5992.14 197.775 5992.14C195.295 5992.14 193.407 5990.38 193.407 5987.6C193.407 5984.83 195.359 5983.09 197.839 5983.09C200.335 5983.09 202.271 5984.83 202.271 5987.6ZM194.895 5987.6C194.895 5989.82 196.255 5990.86 197.775 5990.86C199.295 5990.86 200.783 5989.82 200.783 5987.6C200.783 5985.39 199.327 5984.35 197.823 5984.35C196.287 5984.35 194.895 5985.39 194.895 5987.6ZM210.601 5992V5987.04C210.601 5985.25 209.625 5984.34 208.153 5984.34C206.665 5984.34 205.641 5985.26 205.641 5987.15V5992H204.185V5983.23H205.641V5984.48C206.217 5983.57 207.273 5983.07 208.457 5983.07C210.489 5983.07 212.041 5984.32 212.041 5986.83V5992H210.601ZM220.724 5989.62C220.724 5991.06 219.46 5992.14 217.524 5992.14C215.476 5992.14 214.036 5991.02 213.94 5989.42H215.444C215.524 5990.27 216.276 5990.91 217.508 5990.91C218.66 5990.91 219.3 5990.34 219.3 5989.62C219.3 5987.66 214.116 5988.8 214.116 5985.54C214.116 5984.19 215.38 5983.09 217.332 5983.09C219.268 5983.09 220.548 5984.13 220.644 5985.84H219.188C219.124 5984.96 218.452 5984.32 217.284 5984.32C216.212 5984.32 215.572 5984.83 215.572 5985.54C215.572 5987.62 220.66 5986.48 220.724 5989.62ZM226.507 5984.32C225.083 5984.32 223.899 5985.26 223.739 5986.98H229.275C229.291 5985.26 228.011 5984.32 226.507 5984.32ZM230.603 5989.3C230.155 5990.9 228.747 5992.14 226.571 5992.14C224.075 5992.14 222.235 5990.38 222.235 5987.6C222.235 5984.83 224.011 5983.09 226.571 5983.09C229.115 5983.09 230.779 5984.88 230.779 5987.28C230.779 5987.6 230.763 5987.86 230.731 5988.16H223.723C223.835 5989.94 225.083 5990.91 226.571 5990.91C227.883 5990.91 228.715 5990.24 229.035 5989.3H230.603ZM232.157 5987.6C232.157 5984.85 233.933 5983.09 236.429 5983.09C238.605 5983.09 240.029 5984.21 240.477 5986.05H238.909C238.605 5984.99 237.725 5984.32 236.429 5984.32C234.829 5984.32 233.645 5985.46 233.645 5987.6C233.645 5989.78 234.829 5990.91 236.429 5990.91C237.725 5990.91 238.589 5990.29 238.909 5989.18H240.477C240.029 5990.93 238.605 5992.14 236.429 5992.14C233.933 5992.14 232.157 5990.38 232.157 5987.6ZM242.74 5989.6V5984.43H241.604V5983.23H242.74V5981.02H244.196V5983.23H246.484V5984.43H244.196V5989.6C244.196 5990.46 244.516 5990.77 245.411 5990.77H246.484V5992H245.172C243.62 5992 242.74 5991.36 242.74 5989.6ZM251.976 5984.32C250.552 5984.32 249.368 5985.26 249.208 5986.98H254.744C254.76 5985.26 253.48 5984.32 251.976 5984.32ZM256.072 5989.3C255.624 5990.9 254.216 5992.14 252.04 5992.14C249.544 5992.14 247.704 5990.38 247.704 5987.6C247.704 5984.83 249.48 5983.09 252.04 5983.09C254.584 5983.09 256.248 5984.88 256.248 5987.28C256.248 5987.6 256.232 5987.86 256.2 5988.16H249.192C249.304 5989.94 250.552 5990.91 252.04 5990.91C253.352 5990.91 254.184 5990.24 254.504 5989.3H256.072ZM258.49 5989.6V5984.43H257.354V5983.23H258.49V5981.02H259.946V5983.23H262.234V5984.43H259.946V5989.6C259.946 5990.46 260.266 5990.77 261.161 5990.77H262.234V5992H260.922C259.37 5992 258.49 5991.36 258.49 5989.6ZM271.774 5983.23V5992H270.318V5990.7C269.758 5991.62 268.686 5992.13 267.518 5992.13C265.502 5992.13 263.918 5990.88 263.918 5988.37V5983.23H265.358V5988.18C265.358 5989.95 266.334 5990.86 267.806 5990.86C269.31 5990.86 270.318 5989.94 270.318 5988.05V5983.23H271.774ZM275.688 5987.23V5992H274.232V5983.23H275.688V5984.66C276.184 5983.68 277.128 5983.07 278.52 5983.07V5984.58H278.136C276.744 5984.58 275.688 5985.2 275.688 5987.23ZM281.625 5991.1C281.625 5991.66 281.193 5992.1 280.665 5992.1C280.105 5992.1 279.673 5991.66 279.673 5991.1C279.673 5990.54 280.105 5990.11 280.665 5990.11C281.193 5990.11 281.625 5990.54 281.625 5991.1ZM287.826 5992V5980.85H294.13V5982.03H289.282V5985.79H293.218V5986.98H289.282V5992H287.826ZM295.344 5987.58C295.344 5984.85 297.152 5983.09 299.504 5983.09C301.136 5983.09 302.256 5983.92 302.768 5984.83V5983.23H304.24V5992H302.768V5990.37C302.24 5991.31 301.104 5992.14 299.488 5992.14C297.152 5992.14 295.344 5990.3 295.344 5987.58ZM302.768 5987.6C302.768 5985.57 301.392 5984.35 299.792 5984.35C298.192 5984.35 296.832 5985.52 296.832 5987.58C296.832 5989.65 298.192 5990.86 299.792 5990.86C301.392 5990.86 302.768 5989.66 302.768 5987.6ZM306.157 5987.6C306.157 5984.85 307.933 5983.09 310.429 5983.09C312.605 5983.09 314.029 5984.21 314.477 5986.05H312.909C312.605 5984.99 311.725 5984.32 310.429 5984.32C308.829 5984.32 307.645 5985.46 307.645 5987.6C307.645 5989.78 308.829 5990.91 310.429 5990.91C311.725 5990.91 312.589 5990.29 312.909 5989.18H314.477C314.029 5990.93 312.605 5992.14 310.429 5992.14C307.933 5992.14 306.157 5990.38 306.157 5987.6ZM316.42 5992V5983.23H317.876V5992H316.42ZM317.172 5981.81C316.612 5981.81 316.18 5981.38 316.18 5980.82C316.18 5980.26 316.612 5979.82 317.172 5979.82C317.7 5979.82 318.132 5980.26 318.132 5980.82C318.132 5981.38 317.7 5981.81 317.172 5981.81ZM320.357 5992V5980.16H321.813V5992H320.357ZM324.295 5992V5983.23H325.751V5992H324.295ZM325.047 5981.81C324.487 5981.81 324.055 5981.38 324.055 5980.82C324.055 5980.26 324.487 5979.82 325.047 5979.82C325.575 5979.82 326.007 5980.26 326.007 5980.82C326.007 5981.38 325.575 5981.81 325.047 5981.81ZM334.536 5989.62C334.536 5991.06 333.272 5992.14 331.336 5992.14C329.288 5992.14 327.848 5991.02 327.752 5989.42H329.256C329.336 5990.27 330.088 5990.91 331.32 5990.91C332.472 5990.91 333.112 5990.34 333.112 5989.62C333.112 5987.66 327.928 5988.8 327.928 5985.54C327.928 5984.19 329.192 5983.09 331.144 5983.09C333.08 5983.09 334.36 5984.13 334.456 5985.84H333C332.936 5984.96 332.264 5984.32 331.096 5984.32C330.024 5984.32 329.384 5984.83 329.384 5985.54C329.384 5987.62 334.472 5986.48 334.536 5989.62ZM336.591 5992V5983.23H338.047V5992H336.591ZM337.343 5981.81C336.783 5981.81 336.351 5981.38 336.351 5980.82C336.351 5980.26 336.783 5979.82 337.343 5979.82C337.871 5979.82 338.303 5980.26 338.303 5980.82C338.303 5981.38 337.871 5981.81 337.343 5981.81ZM346.833 5989.62C346.833 5991.06 345.569 5992.14 343.633 5992.14C341.585 5992.14 340.145 5991.02 340.049 5989.42H341.553C341.633 5990.27 342.385 5990.91 343.617 5990.91C344.769 5990.91 345.409 5990.34 345.409 5989.62C345.409 5987.66 340.225 5988.8 340.225 5985.54C340.225 5984.19 341.489 5983.09 343.441 5983.09C345.377 5983.09 346.657 5984.13 346.753 5985.84H345.297C345.233 5984.96 344.561 5984.32 343.393 5984.32C342.321 5984.32 341.681 5984.83 341.681 5985.54C341.681 5987.62 346.769 5986.48 346.833 5989.62ZM353.474 5989.6V5984.43H352.338V5983.23H353.474V5981.02H354.93V5983.23H357.218V5984.43H354.93V5989.6C354.93 5990.46 355.25 5990.77 356.146 5990.77H357.218V5992H355.906C354.354 5992 353.474 5991.36 353.474 5989.6ZM366.758 5983.23V5992H365.302V5990.7C364.742 5991.62 363.67 5992.13 362.502 5992.13C360.486 5992.13 358.902 5990.88 358.902 5988.37V5983.23H360.342V5988.18C360.342 5989.95 361.318 5990.86 362.79 5990.86C364.294 5990.86 365.302 5989.94 365.302 5988.05V5983.23H366.758ZM370.672 5987.23V5992H369.216V5983.23H370.672V5984.66C371.168 5983.68 372.112 5983.07 373.504 5983.07V5984.58H373.12C371.728 5984.58 370.672 5985.2 370.672 5987.23ZM376.641 5984.85C377.169 5983.92 378.321 5983.09 379.921 5983.09C382.273 5983.09 384.081 5984.85 384.081 5987.58C384.081 5990.3 382.273 5992.14 379.921 5992.14C378.321 5992.14 377.185 5991.28 376.641 5990.38V5996.16H375.185V5983.23H376.641V5984.85ZM382.593 5987.58C382.593 5985.52 381.233 5984.35 379.617 5984.35C378.033 5984.35 376.641 5985.57 376.641 5987.6C376.641 5989.66 378.033 5990.86 379.617 5990.86C381.233 5990.86 382.593 5989.65 382.593 5987.58ZM385.998 5992V5983.23H387.454V5992H385.998ZM386.75 5981.81C386.19 5981.81 385.758 5981.38 385.758 5980.82C385.758 5980.26 386.19 5979.82 386.75 5979.82C387.278 5979.82 387.71 5980.26 387.71 5980.82C387.71 5981.38 387.278 5981.81 386.75 5981.81ZM396.239 5989.62C396.239 5991.06 394.975 5992.14 393.039 5992.14C390.991 5992.14 389.551 5991.02 389.455 5989.42H390.959C391.039 5990.27 391.791 5990.91 393.023 5990.91C394.175 5990.91 394.815 5990.34 394.815 5989.62C394.815 5987.66 389.631 5988.8 389.631 5985.54C389.631 5984.19 390.895 5983.09 392.847 5983.09C394.783 5983.09 396.063 5984.13 396.159 5985.84H394.703C394.639 5984.96 393.967 5984.32 392.799 5984.32C391.727 5984.32 391.087 5984.83 391.087 5985.54C391.087 5987.62 396.175 5986.48 396.239 5989.62ZM404.016 5984.86C404.576 5983.89 405.744 5983.09 407.296 5983.09C409.664 5983.09 411.456 5984.85 411.456 5987.58C411.456 5990.3 409.648 5992.14 407.296 5992.14C405.696 5992.14 404.56 5991.34 404.016 5990.38V5992H402.56V5980.16H404.016V5984.86ZM409.968 5987.58C409.968 5985.52 408.608 5984.35 406.992 5984.35C405.408 5984.35 404.016 5985.57 404.016 5987.6C404.016 5989.66 405.408 5990.86 406.992 5990.86C408.608 5990.86 409.968 5989.65 409.968 5987.58ZM413.373 5992V5983.23H414.829V5992H413.373ZM414.125 5981.81C413.565 5981.81 413.133 5981.38 413.133 5980.82C413.133 5980.26 413.565 5979.82 414.125 5979.82C414.653 5979.82 415.085 5980.26 415.085 5980.82C415.085 5981.38 414.653 5981.81 414.125 5981.81ZM418.766 5984.86C419.326 5983.89 420.494 5983.09 422.046 5983.09C424.414 5983.09 426.206 5984.85 426.206 5987.58C426.206 5990.3 424.398 5992.14 422.046 5992.14C420.446 5992.14 419.31 5991.34 418.766 5990.38V5992H417.31V5980.16H418.766V5984.86ZM424.718 5987.58C424.718 5985.52 423.358 5984.35 421.742 5984.35C420.158 5984.35 418.766 5985.57 418.766 5987.6C418.766 5989.66 420.158 5990.86 421.742 5990.86C423.358 5990.86 424.718 5989.65 424.718 5987.58ZM431.851 5984.32C430.427 5984.32 429.243 5985.26 429.083 5986.98H434.619C434.635 5985.26 433.355 5984.32 431.851 5984.32ZM435.947 5989.3C435.499 5990.9 434.091 5992.14 431.915 5992.14C429.419 5992.14 427.579 5990.38 427.579 5987.6C427.579 5984.83 429.355 5983.09 431.915 5983.09C434.459 5983.09 436.123 5984.88 436.123 5987.28C436.123 5987.6 436.107 5987.86 436.075 5988.16H429.067C429.179 5989.94 430.427 5990.91 431.915 5990.91C433.227 5990.91 434.059 5990.24 434.379 5989.3H435.947ZM444.461 5992V5987.04C444.461 5985.25 443.485 5984.34 442.013 5984.34C440.525 5984.34 439.501 5985.26 439.501 5987.15V5992H438.045V5983.23H439.501V5984.48C440.077 5983.57 441.133 5983.07 442.317 5983.07C444.349 5983.07 445.901 5984.32 445.901 5986.83V5992H444.461ZM447.735 5987.58C447.735 5984.85 449.543 5983.09 451.911 5983.09C453.287 5983.09 454.551 5983.79 455.159 5984.8V5980.16H456.631V5992H455.159V5990.35C454.631 5991.33 453.495 5992.14 451.895 5992.14C449.543 5992.14 447.735 5990.3 447.735 5987.58ZM455.159 5987.6C455.159 5985.57 453.783 5984.35 452.183 5984.35C450.583 5984.35 449.223 5985.52 449.223 5987.58C449.223 5989.65 450.583 5990.86 452.183 5990.86C453.783 5990.86 455.159 5989.66 455.159 5987.6ZM466.867 5983.23V5992H465.411V5990.7C464.851 5991.62 463.779 5992.13 462.611 5992.13C460.595 5992.13 459.011 5990.88 459.011 5988.37V5983.23H460.451V5988.18C460.451 5989.95 461.427 5990.86 462.899 5990.86C464.403 5990.86 465.411 5989.94 465.411 5988.05V5983.23H466.867ZM481.982 5992V5987.04C481.982 5985.25 481.022 5984.34 479.582 5984.34C478.11 5984.34 477.102 5985.28 477.102 5987.17V5992H475.662V5987.04C475.662 5985.25 474.702 5984.34 473.262 5984.34C471.79 5984.34 470.782 5985.28 470.782 5987.17V5992H469.326V5983.23H470.782V5984.5C471.358 5983.57 472.398 5983.07 473.55 5983.07C474.99 5983.07 476.19 5983.71 476.766 5985.02C477.278 5983.76 478.526 5983.07 479.87 5983.07C481.87 5983.07 483.422 5984.32 483.422 5986.83V5992H481.982ZM183.192 6011.23H184.76L187.496 6018.66L190.216 6011.23H191.768L188.328 6020H186.632L183.192 6011.23ZM192.657 6015.58C192.657 6012.85 194.465 6011.09 196.817 6011.09C198.449 6011.09 199.569 6011.92 200.081 6012.83V6011.23H201.553V6020H200.081V6018.37C199.553 6019.31 198.417 6020.14 196.801 6020.14C194.465 6020.14 192.657 6018.3 192.657 6015.58ZM200.081 6015.6C200.081 6013.57 198.705 6012.35 197.105 6012.35C195.505 6012.35 194.145 6013.52 194.145 6015.58C194.145 6017.65 195.505 6018.86 197.105 6018.86C198.705 6018.86 200.081 6017.66 200.081 6015.6ZM205.469 6015.23V6020H204.013V6011.23H205.469V6012.66C205.965 6011.68 206.909 6011.07 208.301 6011.07V6012.58H207.917C206.525 6012.58 205.469 6013.2 205.469 6015.23ZM209.982 6020V6011.23H211.438V6020H209.982ZM210.734 6009.81C210.174 6009.81 209.742 6009.38 209.742 6008.82C209.742 6008.26 210.174 6007.82 210.734 6007.82C211.262 6007.82 211.694 6008.26 211.694 6008.82C211.694 6009.38 211.262 6009.81 210.734 6009.81ZM221.696 6011.23V6020H220.24V6018.7C219.68 6019.62 218.608 6020.13 217.44 6020.13C215.424 6020.13 213.84 6018.88 213.84 6016.37V6011.23H215.28V6016.18C215.28 6017.95 216.256 6018.86 217.728 6018.86C219.232 6018.86 220.24 6017.94 220.24 6016.05V6011.23H221.696ZM230.458 6017.62C230.458 6019.06 229.194 6020.14 227.258 6020.14C225.21 6020.14 223.77 6019.02 223.674 6017.42H225.178C225.258 6018.27 226.01 6018.91 227.242 6018.91C228.394 6018.91 229.034 6018.34 229.034 6017.62C229.034 6015.66 223.85 6016.8 223.85 6013.54C223.85 6012.19 225.114 6011.09 227.066 6011.09C229.002 6011.09 230.282 6012.13 230.378 6013.84H228.922C228.858 6012.96 228.186 6012.32 227.018 6012.32C225.946 6012.32 225.306 6012.83 225.306 6013.54C225.306 6015.62 230.394 6014.48 230.458 6017.62ZM236.235 6015.58C236.235 6012.85 238.043 6011.09 240.395 6011.09C242.027 6011.09 243.147 6011.92 243.659 6012.83V6011.23H245.131V6020H243.659V6018.37C243.131 6019.31 241.995 6020.14 240.379 6020.14C238.043 6020.14 236.235 6018.3 236.235 6015.58ZM243.659 6015.6C243.659 6013.57 242.283 6012.35 240.683 6012.35C239.083 6012.35 237.723 6013.52 237.723 6015.58C237.723 6017.65 239.083 6018.86 240.683 6018.86C242.283 6018.86 243.659 6017.66 243.659 6015.6ZM251.319 6012.32C249.895 6012.32 248.711 6013.26 248.551 6014.98H254.087C254.103 6013.26 252.823 6012.32 251.319 6012.32ZM255.415 6017.3C254.967 6018.9 253.559 6020.14 251.383 6020.14C248.887 6020.14 247.047 6018.38 247.047 6015.6C247.047 6012.83 248.823 6011.09 251.383 6011.09C253.927 6011.09 255.591 6012.88 255.591 6015.28C255.591 6015.6 255.575 6015.86 255.543 6016.16H248.535C248.647 6017.94 249.895 6018.91 251.383 6018.91C252.695 6018.91 253.527 6018.24 253.847 6017.3H255.415ZM263.929 6020V6015.04C263.929 6013.25 262.953 6012.34 261.481 6012.34C259.993 6012.34 258.969 6013.26 258.969 6015.15V6020H257.513V6011.23H258.969V6012.48C259.545 6011.57 260.601 6011.07 261.785 6011.07C263.817 6011.07 265.369 6012.32 265.369 6014.83V6020H263.929ZM271.476 6012.32C270.052 6012.32 268.868 6013.26 268.708 6014.98H274.244C274.26 6013.26 272.98 6012.32 271.476 6012.32ZM275.572 6017.3C275.124 6018.9 273.716 6020.14 271.54 6020.14C269.044 6020.14 267.204 6018.38 267.204 6015.6C267.204 6012.83 268.98 6011.09 271.54 6011.09C274.084 6011.09 275.748 6012.88 275.748 6015.28C275.748 6015.6 275.732 6015.86 275.7 6016.16H268.692C268.804 6017.94 270.052 6018.91 271.54 6018.91C272.852 6018.91 273.684 6018.24 274.004 6017.3H275.572ZM277.126 6015.58C277.126 6012.85 278.934 6011.09 281.286 6011.09C282.918 6011.09 284.038 6011.92 284.55 6012.83V6011.23H286.022V6020H284.55V6018.37C284.022 6019.31 282.886 6020.14 281.27 6020.14C278.934 6020.14 277.126 6018.3 277.126 6015.58ZM284.55 6015.6C284.55 6013.57 283.174 6012.35 281.574 6012.35C279.974 6012.35 278.614 6013.52 278.614 6015.58C278.614 6017.65 279.974 6018.86 281.574 6018.86C283.174 6018.86 284.55 6017.66 284.55 6015.6ZM294.898 6020V6015.04C294.898 6013.25 293.922 6012.34 292.45 6012.34C290.962 6012.34 289.938 6013.26 289.938 6015.15V6020H288.482V6011.23H289.938V6012.48C290.514 6011.57 291.57 6011.07 292.754 6011.07C294.786 6011.07 296.338 6012.32 296.338 6014.83V6020H294.898ZM300.14 6019.1C300.14 6019.66 299.708 6020.1 299.18 6020.1C298.62 6020.1 298.188 6019.66 298.188 6019.1C298.188 6018.54 298.62 6018.11 299.18 6018.11C299.708 6018.11 300.14 6018.54 300.14 6019.1Z" fill="white"/>
<path fill-rule="evenodd" clip-rule="evenodd" d="M1850.81 3671.33C1849.99 3671.63 1846.98 3674.28 1844.15 3677.17C1835.89 3685.55 1827.93 3688.55 1822.68 3685.37C1818.85 3683.07 1814.19 3678.82 1813.19 3676.76C1810.77 3671.63 1808.59 3673.4 1806.93 3682.01C1803.69 3698.76 1793.78 3706.72 1778.98 3704.65C1770.55 3703.47 1769.9 3703.89 1773.85 3708.49C1786.12 3722.82 1779.87 3746.7 1761.88 3754.25C1758.69 3755.61 1759.17 3756.2 1766.36 3759.79C1777.86 3765.51 1784.41 3781.26 1780.81 3794.29C1779.63 3798.48 1779.63 3800.43 1780.69 3801.14C1781.87 3801.9 1784.23 3801.78 1785.29 3800.84C1787.94 3798.54 1799.03 3798.01 1802.57 3800.01C1806.88 3802.43 1815.43 3816 1815.43 3820.42C1815.43 3822.6 1817.96 3826.49 1819.85 3827.32C1823.15 3828.74 1823.21 3828.68 1828.7 3821.36C1841.61 3804.2 1851.58 3802.61 1863.08 3815.76C1869.51 3823.07 1872.51 3823.07 1873.58 3815.7C1876.41 3796 1888.73 3783.8 1901.82 3787.75C1909.61 3790.11 1909.79 3789.28 1905.36 3774.48C1903.53 3768.52 1904.01 3762.21 1906.54 3757.55C1909.73 3751.71 1914.74 3744.4 1917.16 3742.1C1920.4 3738.98 1919.28 3736.79 1914.44 3736.79C1909.49 3736.79 1902 3729.13 1899.52 3721.52C1897.75 3716.27 1899.64 3704.24 1903.36 3696.52C1904.71 3693.68 1904.01 3691.8 1901.29 3691.15C1899.76 3690.74 1897.46 3691.62 1897.46 3692.5C1897.46 3694.33 1879.24 3695.69 1873.28 3694.33C1863.84 3692.15 1854 3681.3 1855.29 3674.46C1855.65 3671.86 1853.58 3670.27 1850.81 3671.33ZM1853.82 3685.25C1858.6 3695.45 1873.34 3700.41 1891.8 3698.11L1895.04 3697.69L1893.86 3700.41C1887.14 3716.09 1893.51 3733.2 1908.25 3738.8C1911.55 3740.04 1911.67 3739.45 1907.19 3744.87C1894.92 3759.85 1893.51 3766.52 1900.05 3779.37C1901.53 3782.2 1902.47 3784.5 1902.24 3784.5C1902 3784.5 1899.76 3784.15 1897.22 3783.68C1890.32 3782.44 1886.84 3783.38 1880.53 3788.04C1871.63 3794.65 1867.85 3801.49 1867.85 3811.22V3813.46L1864.14 3810.45C1850.52 3799.37 1835.24 3801.9 1823.92 3817.12L1822.21 3819.36L1819.73 3814.17C1813.24 3800.37 1803.69 3794.06 1791.54 3795.53L1786.94 3796.06L1787.3 3794.24C1789.95 3779.55 1783.29 3764.34 1771.43 3758.08L1767.89 3756.2L1772.91 3751.01C1786.29 3737.15 1789.07 3723.76 1781.1 3710.96L1779.92 3709.08L1783.11 3709.43C1796.26 3710.79 1810.77 3699.76 1812.18 3687.26L1812.6 3683.78L1815.31 3685.72C1826.16 3693.45 1836.72 3692.5 1847.04 3682.83C1850.87 3679.29 1851.11 3679.12 1851.64 3680.3C1851.87 3681.06 1852.88 3683.25 1853.82 3685.25ZM1829.17 3702.53C1777.15 3716.57 1787.41 3799.42 1840.73 3795.65C1887.61 3792.35 1905.72 3725.41 1864.38 3707.13C1857.71 3704.18 1856.3 3707.54 1862.9 3711.97C1904.95 3740.1 1863.49 3812.22 1820.2 3786.21C1787.94 3766.87 1798.38 3720.58 1831.53 3707.72C1835.83 3706.07 1842.61 3704.77 1847.63 3705.07C1852.88 3705.36 1854.59 3702.18 1847.98 3701.17C1842.85 3700.35 1834.06 3701.17 1829.17 3702.53Z" fill="white"/>
<path d="M27.2767 2526.52C27.1075 2519.73 24.5358 2517.14 22.0855 2521.17C19.0499 2526.28 19.5011 2532.81 22.9751 2533.44C26.2226 2534.03 27.4408 2532.05 27.2767 2526.52Z" fill="white"/>
<path d="M157.21 2679.94C152.401 2676.78 132.795 2665.75 125.219 2661.93C116.215 2657.39 116.476 2657.67 117.087 2652.59C120.973 2623.51 120.604 2617.39 117.105 2619.9C116.211 2620.52 113.629 2635.14 112.495 2646.1C111.116 2659.68 111.61 2660.4 126.824 2668.12C136.542 2673.03 140.24 2675.44 143.966 2677.69C117.533 2672.88 64.8799 2663.38 64.9353 2663.08C64.9629 2662.92 71.5443 2661.06 79.5205 2658.81C97.2727 2653.86 95.2165 2656.16 97.9262 2638.26C101.745 2612.54 101.793 2612.71 91.6175 2606.46C84.4538 2602.09 76.6204 2595.4 72.6991 2590.36C69.5936 2586.41 69.1818 2586.1 68.0126 2587.38C64.4156 2591.29 51.3692 2590.1 45.0576 2585.33C18.5566 2565.03 36.558 2513.67 65.2927 2527.7C69.3761 2529.7 70.4952 2529.98 71.7803 2529.35C78.0748 2526.48 119.664 2531.61 143.694 2535.9C145.809 2536.29 165.029 2542.14 152.225 2534.47C139.359 2526.7 96.2157 2518.54 75.216 2522.9C73.3544 2523.27 74.6893 2516.36 76.7447 2514.92C80.6489 2512.33 108.097 2512.84 134.583 2519.07C148.128 2522.24 160.05 2527.48 166.322 2530.74C168.313 2531.81 169.463 2534.06 169.048 2536.35L168.674 2538.4C167.595 2544.34 168.947 2549.77 171.59 2550.25C172.799 2550.47 174.059 2548.26 173.745 2546.56C173.138 2543.46 186.832 2538.09 192.648 2539.15C213.568 2542.95 205.994 2576.87 190.354 2594.23C175.986 2610.17 167.908 2611.68 148.85 2601.93C138.433 2596.58 126.954 2593.62 93.8832 2591.85C84.4479 2591.4 86.5916 2595.48 98.4902 2597.41C127.224 2602.01 142.761 2605.38 141.049 2606.64C139.055 2608.17 130.755 2610.9 125.377 2611.73C116.86 2613.09 119.94 2620.18 127.319 2618.22C132.821 2616.7 142.325 2612.93 146.648 2610.18C150.346 2607.86 150.676 2607.76 152.082 2609.04C167.891 2623.79 189.432 2614.73 203.974 2587.11C219.597 2557.41 204.635 2526 179.056 2534.94L174.562 2536.49L174.188 2533.82C173.59 2529.39 170.896 2525.76 166.593 2523.24C145.801 2511.44 96.7053 2502.12 73.4489 2509.45C70.3023 2510.45 67.936 2513.16 67.3409 2516.43C67.3133 2516.59 66.0954 2523.28 66.1369 2523.05L64.1193 2522.14C35.5206 2509.07 10.75 2548.75 29.1005 2578.26C36.4598 2590.14 49.6302 2596.23 63.7866 2594.32L68.6704 2593.64L70.7058 2596.6C73.7145 2601.08 82.337 2608.15 89.2337 2611.84L95.4307 2615.09C95.0159 2622.09 95.2714 2621.11 89.3794 2650.94C83.9042 2652.3 53.8698 2659.57 47.8734 2660.37C41.4856 2661.17 42.5092 2665.84 47.0129 2666.81C53.0888 2668.15 72.7726 2671.89 95.6561 2676.05C128.206 2681.97 157.343 2688.22 157.268 2688.2C160.37 2689.16 162.782 2683.62 157.21 2679.94Z" fill="white"/>
<path d="M63.368 2614.21C63.126 2610.39 57.9615 2610.48 57.8876 2614.31C57.7998 2618.23 53.5421 2623.19 49.8312 2620C46.0309 2616.87 47.4624 2609.43 55.9349 2610.89C56.8411 2611.06 58.1944 2610.91 58.8678 2610.64C62.173 2609.2 54.9805 2605.85 50.5978 2606.78C44.5045 2608.11 41.5585 2617.87 46.1342 2621.45C52.8435 2626.6 63.8243 2622 63.368 2614.21Z" fill="white"/>
<path d="M67.2087 2537.32C57.6493 2527.25 40.9643 2530.19 38.2608 2548.49C35.5776 2567.1 45.7086 2580.89 62.8484 2581.89C69.0286 2582.22 69.2075 2582.1 68.4127 2575.74C64.8908 2544.92 70.8706 2541.21 67.2087 2537.32ZM57.3966 2576.26C48.1737 2571.2 44.7443 2563.03 46.4715 2550.53C48.4616 2536.58 52.1062 2532.84 58.6783 2537.89L61.9715 2540.38L61.029 2546.42C59.9622 2553.14 59.9244 2565.79 61.0339 2572.99C61.8777 2578.64 61.864 2578.72 57.3966 2576.26Z" fill="white"/>
<path d="M26.9425 2504.76C30.0694 2508.16 32.5929 2505.87 33.9353 2498.49C35.8175 2488.14 34.0056 2482.23 29.9491 2485.66C27.8246 2487.47 25.3791 2503.06 26.9425 2504.76Z" fill="white"/>
<path d="M185.088 2522.36C190.767 2522.45 195.578 2515.31 192.486 2511.29C190.594 2508.82 189.529 2509.1 189.532 2512.09C189.555 2515.39 185.587 2519.62 182.294 2517.14C178.925 2514.64 179.993 2507.05 188.692 2508.55C190.505 2508.88 191.378 2507.94 190.232 2506.95C186.611 2503.69 179.434 2504.12 176.241 2508.81C172.649 2513.97 176.216 2522.24 185.088 2522.36Z" fill="white"/>
<path d="M29.0468 2512.93C28.6316 2515.21 36.9049 2516.48 46.651 2515.66C55.6002 2514.93 47.9422 2510.7 38.3547 2511.08C31.7478 2511.37 29.2406 2511.86 29.0468 2512.93Z" fill="white"/>
<path d="M7.12632 2506.9C4.07021 2506.97 3.12638 2509.16 5.72065 2510.34C8.81591 2511.76 22.5006 2513.31 24.0676 2512.42C27.5591 2510.38 15.766 2506.58 7.12632 2506.9Z" fill="white"/>
<path d="M171.405 2640.07C174.562 2641.59 175.896 2640.26 176.906 2634.7C178.221 2627.47 178.003 2626.1 175.435 2625.63C173.925 2625.36 173.162 2625.69 172.563 2626.84C170.586 2631.27 169.826 2639.31 171.405 2640.07Z" fill="white"/>
<path d="M161.737 2598.85C177.55 2611 205.906 2576.07 196.945 2555.41C194.521 2549.86 188.53 2546.34 183.138 2547.24C178.302 2548.09 168.224 2555.46 168.715 2557.9C169.213 2560.75 163.937 2577.32 160.529 2583.61C155.51 2592.76 155.652 2594.13 161.737 2598.85ZM163.603 2590.3C166.604 2584.95 171.141 2572.02 172.373 2565.25C174.421 2553.99 187.377 2546.68 192.297 2553.94C196.985 2560.77 186.755 2583.98 175.24 2592.81C168.441 2598.02 160.25 2596.3 163.603 2590.3Z" fill="white"/>
<path d="M165.853 2657.3C162.068 2663.53 163.397 2671.24 168.259 2671.1C171.933 2671.06 173.568 2665.93 172.101 2658.98C171.412 2655.48 167.54 2654.46 165.853 2657.3Z" fill="white"/>
<path d="M191.655 2651.85C188.532 2650.57 177.018 2648.24 175.322 2648.56C169.194 2649.65 181.726 2655.39 189.658 2655.1C192.879 2654.98 194.201 2652.86 191.655 2651.85Z" fill="white"/>
<path d="M153.577 2644.14C152.121 2644.42 151.954 2646.2 153.292 2646.99C156.654 2649.1 167.888 2649.96 168.206 2648.21C168.586 2646.55 157.301 2643.4 153.577 2644.14Z" fill="white"/>
<path d="M142.977 2547.56C142.169 2545.14 124.444 2540.5 110.114 2539.07C98.166 2537.84 86.5733 2538.09 80.7343 2539.31C75.2113 2540.51 75.8246 2544 81.1262 2544.02C88.5362 2544.03 116.497 2546.44 124.502 2547.9C139.847 2550.61 143.913 2550.56 142.977 2547.56Z" fill="white"/>
<path d="M1784.33 5639.93C1786.74 5639.53 1786.87 5639.58 1787.38 5641.73C1792.85 5663.7 1826.55 5657.78 1828.8 5634.46C1829.28 5629.64 1830.5 5627.65 1833.24 5627.48C1834.32 5627.42 1834.79 5627.77 1834.84 5628.6C1835.77 5644.07 1861.48 5653.14 1870.87 5641.27C1874.2 5637.11 1877.83 5629.48 1878.03 5626.34L1878.18 5623.45L1881.85 5622.85C1888.23 5621.7 1888.15 5621.38 1878.55 5608.41C1861.87 5585.9 1849.45 5576.99 1843.23 5582.99C1841.36 5584.82 1841.55 5584.75 1841.95 5598.91C1842 5599.87 1842.69 5600.66 1843.6 5600.86C1847.54 5601.58 1851.8 5598.07 1848.4 5596.8C1846.96 5596.25 1846.89 5596.06 1847.01 5591.77C1847.21 5585.5 1847.65 5585.28 1852.12 5589.55C1862.42 5599.41 1869.07 5604.83 1872.05 5609.76C1872.83 5610.99 1872.78 5611.19 1872.1 5610.52C1871.29 5609.87 1867 5609.68 1867.04 5610.32C1867.05 5610.44 1868.03 5611.98 1869.22 5613.64C1880.6 5629.76 1863.11 5652.47 1849 5639.89C1838.4 5630.5 1846.03 5610.49 1860.54 5609.62C1864.55 5609.38 1865.21 5608.64 1862.52 5607.46C1855.04 5604.13 1842.72 5610.81 1837.71 5620.95L1836.05 5624.31L1831.6 5624.7C1829.06 5624.92 1827.14 5624.84 1827.12 5624.46C1827.04 5623.19 1823.71 5620.9 1822.12 5620.99C1820.08 5621.11 1820.12 5621.75 1822.26 5624.5C1831.54 5636.53 1816.1 5656.11 1802.3 5649.78C1784.96 5641.81 1795.94 5613.87 1814.62 5618.56C1820.01 5619.9 1820.83 5619.85 1820.1 5618.24C1815.02 5607.1 1792.9 5616.48 1788.56 5631.56C1787.4 5635.66 1787.28 5635.79 1785.12 5635.92C1783.27 5636.03 1782.94 5635.86 1783.27 5634.88C1783.48 5634.23 1784.65 5628.09 1785.96 5621.11C1790.01 5599.14 1795.74 5584.93 1797.88 5591.83C1799.23 5596.23 1799.88 5605.01 1798.86 5605.07C1796.19 5605.23 1796.44 5609.43 1799.22 5609.9C1805.16 5611.02 1806.21 5594.34 1800.5 5589.76C1794.13 5584.65 1787.19 5590.43 1784.02 5603.72C1783.26 5606.96 1781.81 5612.6 1780.81 5616.31C1775.69 5635.33 1776.61 5641.09 1784.33 5639.93Z" fill="white"/>
<path d="M1914.46 5689.52C1907.83 5675.92 1905.8 5680.33 1909.44 5687.78C1911.48 5692 1911.8 5693.07 1910.95 5692.8C1896.93 5688.14 1869.76 5698.52 1853.86 5714.74L1846.27 5722.48C1845.51 5716.07 1845.09 5712.39 1844.65 5710.37C1844.29 5708.61 1841.4 5708.27 1841.2 5710.26C1840.95 5712.64 1841.27 5716.84 1841.67 5723.52L1839.56 5721.41C1829.09 5710.86 1800.25 5709.45 1773.62 5718.27C1769.17 5719.75 1769.25 5720.96 1772.69 5704.84C1777.32 5682.9 1778.41 5672.29 1779.31 5668.02C1779.7 5666.08 1800.5 5664.45 1808.43 5665.71C1815.85 5666.86 1832.52 5673.21 1835.04 5675.74C1835.86 5676.59 1836.72 5680.24 1838.29 5689.54C1840.66 5703.46 1840.79 5702.49 1842.04 5702.93C1844.25 5703.63 1842.43 5691.4 1840.68 5675.98L1848.66 5669.5C1867.55 5654.18 1884.83 5654.49 1887.85 5653.73L1892.29 5659.67C1902.15 5672.75 1903.79 5677.76 1904.82 5674.63C1905.19 5673.46 1892.41 5651.03 1890.54 5649.55C1886.98 5646.76 1858.78 5647.42 1840.68 5667.48C1835.95 5672.75 1836.51 5672.52 1833.71 5670.65C1815.67 5658.5 1776.73 5655.97 1775.21 5666.86C1774.27 5673.5 1766.67 5700.34 1764.4 5717.86C1763.83 5722.37 1763.84 5723.52 1764.62 5724.87C1765.55 5726.48 1766 5726.58 1768.65 5725.91C1769.78 5725.65 1770 5726.09 1770.72 5730.64C1771.52 5735.45 1772.97 5738.3 1774.2 5737.46C1775.06 5736.9 1774.87 5738.06 1773.93 5739.46C1771.7 5742.79 1774.76 5749.06 1778.38 5748.59C1779.96 5748.36 1780.42 5748.66 1781.09 5750.21C1782.2 5752.77 1783.43 5752.95 1785.99 5750.94C1788.68 5748.87 1793.52 5745.44 1801.81 5742.97C1810.1 5740.49 1836.64 5740.88 1839.32 5741.94C1840.96 5742.61 1841.79 5742.68 1842.08 5742.16C1842.31 5741.76 1844.45 5741.12 1846.92 5740.78C1855.22 5739.58 1868.43 5737.26 1874.36 5735.88C1883.18 5733.82 1899.96 5733.33 1905.62 5734.97C1911.92 5736.76 1913.7 5734.42 1909.29 5730.15C1907.73 5728.64 1907.65 5728.46 1908.82 5728.71C1917.94 5730.53 1919.41 5727.31 1913.56 5718.2C1910.95 5714.14 1910.96 5714.33 1914.34 5714.13C1918.35 5713.89 1918.07 5712.37 1912.93 5705.52C1908.28 5699.35 1908.27 5699.28 1913.47 5700.7C1919.7 5702.37 1919.85 5700.57 1914.46 5689.52ZM1798.26 5733.85C1790.6 5735.01 1783.69 5739.2 1783.01 5739.49C1781.94 5739.88 1781.2 5739.22 1781.55 5737.54C1781.74 5736.5 1781.99 5735.27 1782.02 5734.76C1782.33 5731.42 1803.66 5726.88 1813.95 5727.99C1824.04 5729.05 1825.55 5729.66 1834.33 5732.2C1819.62 5732.06 1806.43 5732.6 1798.26 5733.85ZM1840.39 5727.82C1807.76 5720.63 1795.13 5721.07 1778.47 5729.8C1776.24 5731.02 1774.31 5731.9 1774.24 5731.77C1774.1 5731.59 1773.5 5728.05 1772.84 5724.45C1788.09 5719.76 1800.24 5715.59 1815.51 5716.65C1820.06 5716.96 1826.31 5718.88 1831.13 5721.41C1839.38 5725.77 1843.24 5728.48 1840.39 5727.82ZM1858.56 5718.49C1875.28 5702.22 1887.42 5696.82 1901.82 5699.35C1903.31 5699.58 1909.53 5706.49 1908.94 5707.17C1908.82 5707.3 1907.47 5707.19 1905.92 5706.9C1893.85 5705 1887.17 5706.42 1871.6 5714.32C1867.51 5716.42 1863.22 5718.53 1862.1 5719.04C1857.5 5721.17 1846.54 5730.2 1858.56 5718.49ZM1905.87 5719.94C1898.07 5718.93 1889.24 5719.72 1881.39 5722.04C1875.49 5723.8 1857.5 5728.65 1856.9 5728.17C1856.57 5727.94 1865.33 5722.81 1869.71 5720.12C1878.59 5714.67 1889.5 5712.35 1902.65 5713.1C1905.47 5713.25 1905.87 5713.55 1908.42 5716.72C1911.8 5720.92 1911.92 5720.73 1905.87 5719.94Z" fill="white"/>
<g filter="url(#filter6_f_1_2479)">
<rect x="1249" y="1517" width="431" height="431" rx="215.5" fill="#4AD906"/>
</g>
</g>
<defs>
<filter id="filter0_f_1_2479" x="-845" y="3903" width="1754" height="1754" filterUnits="userSpaceOnUse" color-interpolation-filters="sRGB">
<feFlood flood-opacity="0" result="BackgroundImageFix"/>
<feBlend mode="normal" in="SourceGraphic" in2="BackgroundImageFix" result="shape"/>
<feGaussianBlur stdDeviation="300" result="effect1_foregroundBlur_1_2479"/>
</filter>
<filter id="filter1_f_1_2479" x="-845" y="1743" width="1754" height="1754" filterUnits="userSpaceOnUse" color-interpolation-filters="sRGB">
<feFlood flood-opacity="0" result="BackgroundImageFix"/>
<feBlend mode="normal" in="SourceGraphic" in2="BackgroundImageFix" result="shape"/>
<feGaussianBlur stdDeviation="300" result="effect1_foregroundBlur_1_2479"/>
</filter>
<filter id="filter2_f_1_2479" x="995" y="2897" width="1754" height="1754" filterUnits="userSpaceOnUse" color-interpolation-filters="sRGB">
<feFlood flood-opacity="0" result="BackgroundImageFix"/>
<feBlend mode="normal" in="SourceGraphic" in2="BackgroundImageFix" result="shape"/>
<feGaussianBlur stdDeviation="300" result="effect1_foregroundBlur_1_2479"/>
</filter>
<filter id="filter3_f_1_2479" x="1006" y="4818" width="1754" height="1754" filterUnits="userSpaceOnUse" color-interpolation-filters="sRGB">
<feFlood flood-opacity="0" result="BackgroundImageFix"/>
<feBlend mode="normal" in="SourceGraphic" in2="BackgroundImageFix" result="shape"/>
<feGaussianBlur stdDeviation="300" result="effect1_foregroundBlur_1_2479"/>
</filter>
<filter id="filter4_f_1_2479" x="1080" y="305" width="974" height="974" filterUnits="userSpaceOnUse" color-interpolation-filters="sRGB">
<feFlood flood-opacity="0" result="BackgroundImageFix"/>
<feBlend mode="normal" in="SourceGraphic" in2="BackgroundImageFix" result="shape"/>
<feGaussianBlur stdDeviation="150" result="effect1_foregroundBlur_1_2479"/>
</filter>
<filter id="filter5_f_1_2479" x="-139" y="134" width="974" height="974" filterUnits="userSpaceOnUse" color-interpolation-filters="sRGB">
<feFlood flood-opacity="0" result="BackgroundImageFix"/>
<feBlend mode="normal" in="SourceGraphic" in2="BackgroundImageFix" result="shape"/>
<feGaussianBlur stdDeviation="150" result="effect1_foregroundBlur_1_2479"/>
</filter>
<filter id="filter6_f_1_2479" x="949" y="1217" width="1031" height="1031" filterUnits="userSpaceOnUse" color-interpolation-filters="sRGB">
<feFlood flood-opacity="0" result="BackgroundImageFix"/>
<feBlend mode="normal" in="SourceGraphic" in2="BackgroundImageFix" result="shape"/>
<feGaussianBlur stdDeviation="150" result="effect1_foregroundBlur_1_2479"/>
</filter>
<clipPath id="clip0_1_2479">
<rect width="1920" height="6165" fill="white"/>
</clipPath>
</defs>
</svg>
