<svg width="26" height="26" viewBox="0 0 26 26" fill="none" xmlns="http://www.w3.org/2000/svg">
<path d="M13.0002 0.5C10.5758 0.504606 8.20504 1.21414 6.17672 2.54217C4.1484 3.87021 2.55005 5.75943 1.57636 7.97971C0.602666 10.2 0.295653 12.6555 0.692716 15.0472C1.08978 17.4389 2.17378 19.6635 3.81268 21.45C4.98321 22.7188 6.40386 23.7314 7.98511 24.424C9.56635 25.1166 11.2739 25.4742 13.0002 25.4742C14.7265 25.4742 16.434 25.1166 18.0153 24.424C19.5965 23.7314 21.0172 22.7188 22.1877 21.45C23.8266 19.6635 24.9106 17.4389 25.3077 15.0472C25.7047 12.6555 25.3977 10.2 24.424 7.97971C23.4503 5.75943 21.852 3.87021 19.8236 2.54217C17.7953 1.21414 15.4246 0.504606 13.0002 0.5ZM13.0002 23C10.4108 22.9961 7.92383 21.9878 6.06268 20.1875C6.62774 18.8119 7.58897 17.6354 8.82425 16.8074C10.0595 15.9793 11.5131 15.5373 13.0002 15.5373C14.4873 15.5373 15.9408 15.9793 17.1761 16.8074C18.4114 17.6354 19.3726 18.8119 19.9377 20.1875C18.0765 21.9878 15.5896 22.9961 13.0002 23ZM10.5002 10.5C10.5002 10.0055 10.6468 9.5222 10.9215 9.11107C11.1962 8.69995 11.5867 8.37952 12.0435 8.1903C12.5003 8.00108 13.003 7.95157 13.4879 8.04804C13.9729 8.1445 14.4183 8.3826 14.7679 8.73223C15.1176 9.08186 15.3557 9.52732 15.4521 10.0123C15.5486 10.4972 15.4991 10.9999 15.3099 11.4567C15.1207 11.9135 14.8002 12.304 14.3891 12.5787C13.978 12.8534 13.4946 13 13.0002 13C12.3371 13 11.7013 12.7366 11.2324 12.2678C10.7636 11.7989 10.5002 11.163 10.5002 10.5ZM21.6377 18C20.5208 16.0897 18.8019 14.6038 16.7502 13.775C17.3866 13.0533 17.8013 12.1633 17.9445 11.2118C18.0877 10.2603 17.9533 9.28764 17.5574 8.41062C17.1615 7.5336 16.5209 6.78945 15.7126 6.26746C14.9042 5.74547 13.9624 5.46781 13.0002 5.46781C12.0379 5.46781 11.0961 5.74547 10.2878 6.26746C9.47945 6.78945 8.8389 7.5336 8.44299 8.41062C8.04709 9.28764 7.91267 10.2603 8.05584 11.2118C8.19902 12.1633 8.61372 13.0533 9.25018 13.775C7.19843 14.6038 5.47952 16.0897 4.36268 18C3.47261 16.4839 3.00233 14.7581 3.00018 13C3.00018 10.3478 4.05375 7.8043 5.92912 5.92893C7.80448 4.05357 10.348 3 13.0002 3C15.6523 3 18.1959 4.05357 20.0713 5.92893C21.9466 7.8043 23.0002 10.3478 23.0002 13C22.998 14.7581 22.5278 16.4839 21.6377 18Z" fill="#4AD906"/>
</svg>
