<svg width="44" height="67" viewBox="0 0 44 67" fill="none" xmlns="http://www.w3.org/2000/svg">
<path d="M43.2484 57.662H45.2484V55.662H43.2484V57.662ZM43.2484 67V69H45.2484V67H43.2484ZM5.80441 67H3.80441V69H5.80441V67ZM5.80441 57.662V55.662H3.80441V57.662H5.80441ZM19.0524 57.662V59.662H21.0524V57.662H19.0524ZM19.0984 18.7L17.0998 18.626L19.0984 18.7ZM19.2364 16.17L21.2313 16.3125L21.5657 11.6319L17.9576 14.6322L19.2364 16.17ZM10.4964 23.438L11.6964 25.038L11.7366 25.0079L11.7752 24.9758L10.4964 23.438ZM7.04641 24.358L6.58833 26.3048L6.64326 26.3178L6.69883 26.3276L7.04641 24.358ZM5.66641 23.806L4.52799 25.4504L4.5723 25.4811L4.61821 25.5093L5.66641 23.806ZM4.74641 22.978L3.14148 24.1714L3.15441 24.1888L3.16771 24.2059L4.74641 22.978ZM0.744407 17.596L-0.548704 16.0703L-1.98025 17.2836L-0.860518 18.7894L0.744407 17.596ZM21.2604 0.207999V-1.792H20.5269L19.9673 -1.31773L21.2604 0.207999ZM31.7024 0.207999H33.7024V-1.792H31.7024V0.207999ZM31.7024 57.662H29.7024V59.662H31.7024V57.662ZM41.2484 57.662V67H45.2484V57.662H41.2484ZM43.2484 65H5.80441V69H43.2484V65ZM7.80441 67V57.662H3.80441V67H7.80441ZM5.80441 59.662H19.0524V55.662H5.80441V59.662ZM21.0524 57.662V21.138H17.0524V57.662H21.0524ZM21.0524 21.138C21.0524 20.3663 21.0672 19.5783 21.097 18.774L17.0998 18.626C17.0682 19.4777 17.0524 20.315 17.0524 21.138H21.0524ZM21.097 18.774C21.1268 17.9697 21.1716 17.1492 21.2313 16.3125L17.2415 16.0275C17.1786 16.9081 17.1313 17.7743 17.0998 18.626L21.097 18.774ZM17.9576 14.6322L9.21763 21.9002L11.7752 24.9758L20.5152 17.7078L17.9576 14.6322ZM9.29641 21.838C8.85189 22.1714 8.51776 22.307 8.29038 22.3549L9.11443 26.2691C10.0524 26.0716 10.9143 25.6246 11.6964 25.038L9.29641 21.838ZM8.29038 22.3549C7.92672 22.4315 7.63416 22.4308 7.39398 22.3884L6.69883 26.3276C7.50133 26.4692 8.31276 26.4379 9.11443 26.2691L8.29038 22.3549ZM7.50449 22.4112C7.1621 22.3306 6.90671 22.2209 6.7146 22.1027L4.61821 25.5093C5.22343 25.8818 5.88805 26.1401 6.58833 26.3048L7.50449 22.4112ZM6.80483 22.1616C6.51369 21.9601 6.37723 21.8171 6.32511 21.7501L3.16771 24.2059C3.54492 24.6909 4.02179 25.0999 4.52799 25.4504L6.80483 22.1616ZM6.35133 21.7846L2.34933 16.4026L-0.860518 18.7894L3.14148 24.1714L6.35133 21.7846ZM2.03752 19.1217L22.5535 1.73373L19.9673 -1.31773L-0.548704 16.0703L2.03752 19.1217ZM21.2604 2.208H31.7024V-1.792H21.2604V2.208ZM29.7024 0.207999V57.662H33.7024V0.207999H29.7024ZM31.7024 59.662H43.2484V55.662H31.7024V59.662Z" fill="#3EBA04"/>
</svg>
