<svg width="52" height="52" viewBox="0 0 52 52" fill="none" xmlns="http://www.w3.org/2000/svg">
<rect width="51.194" height="51.194" rx="10" fill="#4AD906" fill-opacity="0.43"/>
<g clip-path="url(#clip0_1_2394)">
<path d="M25.5971 14.6268C19.5384 14.6268 14.627 19.5383 14.627 25.597C14.627 31.6556 19.5384 36.5671 25.5971 36.5671C31.6557 36.5671 36.5672 31.6556 36.5672 25.597C36.5608 19.541 31.653 14.6333 25.5971 14.6268ZM30.217 25.9465C30.1411 26.0988 30.0176 26.2223 29.8652 26.2983V26.3022L23.5966 29.4365C23.2095 29.63 22.7389 29.473 22.5454 29.0858C22.4904 28.9758 22.462 28.8543 22.4627 28.7313V22.4627C22.4626 22.0299 22.8132 21.6789 23.246 21.6787C23.3677 21.6787 23.4877 21.7069 23.5966 21.7613L29.8652 24.8957C30.2526 25.0887 30.4101 25.5592 30.217 25.9465Z" fill="#F4A259"/>
</g>
<defs>
<clipPath id="clip0_1_2394">
<rect width="21.9403" height="21.9403" fill="white" transform="translate(14.627 14.6268)"/>
</clipPath>
</defs>
</svg>
