<svg width="45" height="69" viewBox="0 0 45 69" fill="none" xmlns="http://www.w3.org/2000/svg">
<path d="M13.1084 47.1393H31.2875V55.2288H13.1084V47.1393Z" stroke="#3EBA04" stroke-width="2"/>
<path d="M10.0895 24.9601H9.08954V25.9601V29.9959V30.9959H10.0895H25.2328V34.0317V35.0317H26.2328H30.2686H31.2686V34.0317V30.9959H34.3044H35.3044V29.9959V25.9601V24.9601H34.3044H10.0895ZM36.3223 61.2645H37.3223V60.2645V42.1034V41.1034H36.3223H8.07163H7.07163V42.1034V60.2645V61.2645H8.07163H36.3223ZM1 29.9959C1 18.3089 10.5099 8.79895 22.197 8.79895C33.8843 8.79895 43.394 18.3088 43.394 29.9959V60.2645C43.394 64.163 40.2208 67.3362 36.3223 67.3362H8.07163C4.17322 67.3362 1 64.163 1 60.2645V29.9959Z" stroke="#3EBA04" stroke-width="2"/>
<path d="M31.0687 4.24854L32.0897 1.27027L41.6508 4.54834L39.9887 9.39628C37.3959 7.15399 34.3764 5.39138 31.0687 4.24854Z" stroke="#3EBA04" stroke-width="2"/>
<path d="M12.304 1.27027L13.3252 4.24855C10.0174 5.39141 6.99786 7.1541 4.40508 9.39631L2.74293 4.54834L12.304 1.27027Z" stroke="#3EBA04" stroke-width="2"/>
</svg>
