<svg width="909" height="1754" viewBox="0 0 909 1754" fill="none" xmlns="http://www.w3.org/2000/svg">
<g filter="url(#filter0_f_4_2901)">
<rect x="-245" y="600" width="554" height="554" rx="277" fill="#4AD906"/>
</g>
<path fill-rule="evenodd" clip-rule="evenodd" d="M99.1361 795.389C97.9406 795.861 93.0411 798.917 88.2606 802.057C76.1131 810.108 74.7386 810.881 72.7479 812.217C54.512 810.283 50.1114 808.472 50.8002 825.127C50.9221 827.717 50.753 827.954 44.4683 833.957C29.4892 848.289 30.3008 846.9 33.4322 852.598C34.0879 853.888 44.2419 874.135 44.2419 874.135C42.6199 880.276 42.7221 880.885 39.6142 883.035C36.3675 885.229 29.9604 890.751 25.0465 895.585C23.1683 897.466 21.0022 899.5 20.2473 900.107C16.9098 902.88 7.09537 914.988 5.12803 918.701C-0.564546 929.346 4.43157 930.722 21.6523 923.136L27.318 920.662C25.4794 942.92 24.9576 945.409 29.2076 946.075C30.4311 946.267 40.2831 936.867 46.8299 929.191C54.0875 920.77 68.7687 906.656 69.5151 907.366C74.1826 911.262 76.4732 914.323 84.9439 919.211C85.9137 919.758 87.0831 919.876 88.1196 919.577C89.7861 919.047 92.435 918.143 98.622 915.289C104.809 912.435 104.948 912.391 106.054 913.751C108.647 916.992 121.427 944.903 124.135 953.304C127.683 964.342 130.407 966.746 134.338 958.924C137.133 953.297 140.352 942.858 142.232 936.758C142.232 936.758 155.954 949.391 157.155 950.568C159.557 952.922 161.811 953.275 165.066 951.873C171.009 949.311 154.503 908.554 142.41 896.045C139.801 893.329 138.616 891.627 138.954 891.153C139.282 890.743 144.641 886.441 150.819 881.542C167.216 868.685 166.972 871.086 153.34 852.403C147.04 843.769 146.051 841.24 145.608 839.852C145.387 839.159 146.212 834.739 146.358 830.015C146.599 819.637 147.162 820.253 135.857 819.141C128.842 818.437 127.564 818.171 126.546 817.088C108.974 798.711 104.206 793.349 99.1361 795.389ZM108.713 807.108C117.82 816.776 122.457 820.864 124.691 821.346C127.118 821.858 137.6 823.171 140.379 823.541L139.192 835.749C139.014 837.303 139.436 838.819 140.221 840.129C150.939 856.773 151.086 857.521 156.039 867.593C141.664 880.173 137.284 885.815 133.976 888.395C131.796 890.097 132.024 890.331 130.225 903.497C114.172 902.366 114.609 902.105 109.153 904.084C94.7379 909.341 86.9477 914.844 86.9477 914.844L81.701 910.858C77.1661 907.378 66.8031 898.569 64.2986 895.605C63.9526 895.287 62.6554 893.04 59.6088 892.695L47.4762 891.387L49.4028 876.988C49.9294 872.785 47.9801 869.645 37.7951 851.7C53.4816 834.117 50.6557 836.575 56.5827 829.066C58.0745 827.124 58.8897 820.659 59.6257 815.962C59.7568 815.126 60.5115 814.519 61.3587 814.586C74.765 815.764 76.0969 816.104 82.5439 812.434C90.9614 807.556 99.6934 801.937 100.221 801.097C101.117 799.589 102.66 800.688 108.713 807.108ZM116.838 824.73C111.096 820.534 98.9539 817.181 91.6829 817.69C41.0635 821.162 38.9989 894.541 89.3107 902.293C129.191 908.411 157.615 856.699 128.073 831.765C122.357 826.979 119.331 829.867 124.803 834.944C155.862 863.675 109.328 916.439 74.4222 892.049C37.2514 866.118 66.6884 811.729 110.48 826.569C115.544 828.351 119.978 827.002 116.838 824.73ZM88.8545 831.947C76.1357 833.119 64.3445 859.948 70.3975 860.896C71.5566 861.078 72.2934 859.743 72.8177 856.397C74.068 848.419 85.4907 835.31 92.1139 834.304C95.356 833.823 92.3341 831.636 88.8545 831.947ZM97.738 841.778C95.52 842.881 90.5841 848.699 85.6423 852.869C84.8774 853.54 84.7599 854.709 85.4962 855.483C86.2224 856.322 88.9875 856.36 90.9682 855.088C93.8324 853.23 93.9711 853.186 93.4071 854.679C92.4545 856.969 90.156 864.058 89.5595 866.602C89.0134 868.824 89.0138 868.824 84.6529 868.865C72.6951 868.969 78.8869 875.345 82.8026 876.882C86.342 878.294 91.9543 879.107 99.8771 879.492C106.749 879.843 105.384 871.719 98.365 870.619C95.2097 870.124 95.2476 870.724 98.5615 860.102C103.144 845.592 103.461 843.993 101.903 842.562C100.312 840.929 99.6682 840.828 97.738 841.778ZM122.925 860.821C121.645 868.993 115.834 877.444 108.568 881.711C102.101 885.51 101.267 887.884 106.445 888.102C115.16 888.479 130.521 864.978 125.806 858.438C124.319 856.557 123.48 857.283 122.925 860.821ZM147.356 916.268C152.482 926.498 157.71 939.448 157.162 940.417C156.993 940.654 153.447 938.45 149.228 935.481C138.717 928.033 137.701 928.203 135.253 937.51C131.172 953.022 131.172 953.022 126.176 940.703C119.914 925.086 117.929 922.6 109.591 910.548C113.122 907.805 113.7 906.643 125.27 908.588C134.33 910.139 133.839 910.326 135.877 904.053L137.541 898.908C139.585 901.865 141.289 904.044 147.356 916.268ZM41.7024 891.603C41.3387 896.028 44.1194 897.651 54.3782 899.127C65.7317 900.774 65.786 900.848 58.3701 907.333C43.3895 920.412 38.1907 927.904 32.183 935.928C33.6547 915.59 34.2004 915.478 30.1234 914.971C27.7951 914.672 19.4668 917.718 15.9244 919.272C12.7987 920.694 13.1212 918.635 13.7535 917.548C16.0389 913.489 40.8706 887.649 41.5324 888.478C41.6853 888.765 41.7854 890.231 41.7024 891.603Z" fill="white"/>
<defs>
<filter id="filter0_f_4_2901" x="-845" y="0" width="1754" height="1754" filterUnits="userSpaceOnUse" color-interpolation-filters="sRGB">
<feFlood flood-opacity="0" result="BackgroundImageFix"/>
<feBlend mode="normal" in="SourceGraphic" in2="BackgroundImageFix" result="shape"/>
<feGaussianBlur stdDeviation="300" result="effect1_foregroundBlur_4_2901"/>
</filter>
</defs>
</svg>
