<svg width="47" height="67" viewBox="0 0 47 67" fill="none" xmlns="http://www.w3.org/2000/svg">
<path d="M46.7784 0.253996H48.7784V-1.746H46.7784V0.253996ZM46.2264 9.546L44.3537 8.84375L44.344 8.86966L44.335 8.89584L46.2264 9.546ZM45.2144 12.03L43.4256 11.1356L43.4179 11.1509L43.4104 11.1664L45.2144 12.03ZM20.9264 62.768L22.6962 63.6995L22.714 63.6658L22.7304 63.6315L20.9264 62.768ZM18.4424 65.758L19.6862 67.3242L18.4424 65.758ZM5.01041 67L3.22321 66.1023L1.76762 69H5.01041V67ZM29.8964 17.458L28.1266 16.5265L28.1177 16.5433L28.1092 16.5603L29.8964 17.458ZM31.7824 14.284L30.1266 13.1623L30.1266 13.1623L31.7824 14.284ZM33.9444 11.57L35.41 12.9309L38.5308 9.57H33.9444V11.57ZM1.14641 10.696L-0.267805 12.1102L-0.249679 12.1283L-0.231095 12.146L1.14641 10.696ZM0.272407 0.253996V-1.746H-1.72759V0.253996H0.272407ZM44.7784 0.253996V5.682H48.7784V0.253996H44.7784ZM44.7784 5.682C44.7784 7.14892 44.6056 8.17225 44.3537 8.84375L48.0991 10.2482C48.5833 8.95708 48.7784 7.40441 48.7784 5.682H44.7784ZM44.335 8.89584C44.0166 9.8222 43.7118 10.5631 43.4256 11.1356L47.0033 12.9244C47.3917 12.1476 47.7616 11.2325 48.1178 10.1962L44.335 8.89584ZM43.4104 11.1664L19.1224 61.9045L22.7304 63.6315L47.0184 12.8935L43.4104 11.1664ZM19.1566 61.8365C18.6741 62.7532 18.0263 63.5346 17.1986 64.1918L19.6862 67.3242C20.9439 66.3254 21.9521 65.1134 22.6962 63.6995L19.1566 61.8365ZM17.1986 64.1918C16.6125 64.6572 15.689 65 14.2104 65V69C16.2891 69 18.187 68.5148 19.6862 67.3242L17.1986 64.1918ZM14.2104 65H5.01041V69H14.2104V65ZM6.7976 67.8977L31.6836 18.3557L28.1092 16.5603L3.22321 66.1023L6.7976 67.8977ZM31.6662 18.3895C32.25 17.2803 32.8412 16.287 33.4382 15.4057L30.1266 13.1623C29.4356 14.1823 28.7695 15.305 28.1266 16.5265L31.6662 18.3895ZM33.4382 15.4057C34.0239 14.5412 34.6807 13.7163 35.41 12.9309L32.4788 10.2091C31.6135 11.141 30.829 12.1255 30.1266 13.1623L33.4382 15.4057ZM33.9444 9.57H3.17041V13.57H33.9444V9.57ZM3.17041 9.57C3.024 9.57 2.82531 9.53233 2.52391 9.246L-0.231095 12.146C0.694169 13.025 1.84481 13.57 3.17041 13.57V9.57ZM2.56062 9.28178C2.304 9.02516 2.27241 8.85803 2.27241 8.718H-1.72759C-1.72759 10.05 -1.17652 11.2015 -0.267805 12.1102L2.56062 9.28178ZM2.27241 8.718V0.253996H-1.72759V8.718H2.27241ZM0.272407 2.254H46.7784V-1.746H0.272407V2.254Z" fill="#3EBA04"/>
</svg>
