<svg width="49" height="68" viewBox="0 0 49 68" fill="none" xmlns="http://www.w3.org/2000/svg">
<path d="M22.2484 24.22L23.7872 25.4975L23.7909 25.4931L22.2484 24.22ZM20.2244 26.658L18.6856 25.3805L21.0411 28.4836L20.2244 26.658ZM23.9964 25.462L24.3972 27.4214L24.3972 27.4214L23.9964 25.462ZM35.6344 26.29L36.2962 24.4027L36.2962 24.4027L35.6344 26.29ZM41.9364 30.016L40.5985 31.5026L40.5985 31.5026L41.9364 30.016ZM46.3524 36.272L44.5211 37.076L44.5271 37.0895L44.5332 37.103L46.3524 36.272ZM46.3064 53.844L44.4639 53.0661L44.4602 53.0748L44.4566 53.0835L46.3064 53.844ZM41.4304 61.066L40.0371 59.6311L40.0319 59.6362L40.0267 59.6413L41.4304 61.066ZM33.8864 65.942L33.1336 64.0891L33.1269 64.0918L33.8864 65.942ZM14.3364 66.034L13.5868 67.8882L13.5953 67.8917L13.6039 67.895L14.3364 66.034ZM6.97641 61.158L5.54125 62.551L5.54125 62.551L6.97641 61.158ZM2.33041 53.706L0.453709 54.3974L0.456114 54.4039L2.33041 53.706ZM2.60641 34.294L0.742397 33.5691L0.739473 33.5766L0.736609 33.5842L2.60641 34.294ZM8.44841 24.082L10.0518 25.2775L10.0543 25.2741L8.44841 24.082ZM23.9504 3.198L22.3652 1.97858L22.3547 1.99217L22.3445 2.00593L23.9504 3.198ZM26.6644 1.128L27.5403 2.92598L27.5403 2.92598L26.6644 1.128ZM42.0284 0.253996L43.5709 1.52707L46.2723 -1.746H42.0284V0.253996ZM28.5044 56.65L29.2679 58.4985L29.2679 58.4985L28.5044 56.65ZM32.1384 54.212L30.7032 52.819L30.7032 52.819L32.1384 54.212ZM34.5304 50.578L36.3729 51.3559L36.3759 51.3487L36.3789 51.3415L34.5304 50.578ZM32.2304 37.468L30.8162 38.8822L30.8271 38.8931L30.8381 38.9038L32.2304 37.468ZM19.4424 35.26L20.1997 37.1111L20.2175 37.1038L20.2353 37.0961L19.4424 35.26ZM15.9464 37.652L14.49 36.2813L14.4887 36.2826L15.9464 37.652ZM13.6924 41.286L11.8299 40.5572L11.823 40.5749L11.8164 40.5927L13.6924 41.286ZM13.6004 50.716L11.6951 51.3241L11.6989 51.336L13.6004 50.716ZM15.6704 54.35L14.1905 55.6953L14.1905 55.6953L15.6704 54.35ZM19.0744 56.696L18.3171 58.5471L18.3244 58.5501L18.3316 58.553L19.0744 56.696ZM20.7096 22.9425L18.6856 25.3805L21.7632 27.9355L23.7872 25.4975L20.7096 22.9425ZM21.0411 28.4836C22.0631 28.0264 23.1798 27.6704 24.3972 27.4214L23.5956 23.5026C22.1143 23.8056 20.7164 24.2469 19.4077 24.8324L21.0411 28.4836ZM24.3972 27.4214C25.5983 27.1757 26.9193 27.048 28.3664 27.048V23.048C26.6856 23.048 25.0932 23.1962 23.5956 23.5026L24.3972 27.4214ZM28.3664 27.048C30.6234 27.048 32.8224 27.4233 34.9726 28.1773L36.2962 24.4027C33.7238 23.5006 31.0775 23.048 28.3664 23.048V27.048ZM34.9726 28.1773C37.0871 28.9188 38.9573 30.0255 40.5985 31.5026L43.2743 28.5294C41.2355 26.6945 38.9044 25.3172 36.2962 24.4027L34.9726 28.1773ZM40.5985 31.5026C42.2054 32.9488 43.5187 34.7927 44.5211 37.076L48.1837 35.468C46.9781 32.722 45.3474 30.3952 43.2743 28.5294L40.5985 31.5026ZM44.5332 37.103C45.5241 39.2723 46.0544 41.9057 46.0544 45.058H50.0544C50.0544 41.4637 49.45 38.2397 48.1716 35.441L44.5332 37.103ZM46.0544 45.058C46.0544 47.8973 45.5218 50.5606 44.4639 53.0661L48.1489 54.6219C49.4217 51.6074 50.0544 48.4133 50.0544 45.058H46.0544ZM44.4566 53.0835C43.425 55.5929 41.954 57.7699 40.0371 59.6311L42.8237 62.5009C45.1389 60.2528 46.9185 57.6151 48.1562 54.6045L44.4566 53.0835ZM40.0267 59.6413C38.1436 61.4967 35.8556 62.9833 33.1337 64.0891L34.6392 67.7949C37.8052 66.5087 40.5465 64.7446 42.8341 62.4906L40.0267 59.6413ZM33.1269 64.0918C30.4858 65.1761 27.4979 65.736 24.1344 65.736V69.736C27.9469 69.736 31.4604 69.0999 34.6459 67.7922L33.1269 64.0918ZM24.1344 65.736C20.692 65.736 17.6807 65.201 15.0689 64.173L13.6039 67.895C16.7574 69.1363 20.2781 69.736 24.1344 69.736V65.736ZM15.086 64.1798C12.4431 63.1114 10.2283 61.6369 8.41157 59.765L5.54125 62.551C7.77248 64.8498 10.4643 66.6259 13.5868 67.8882L15.086 64.1798ZM8.41157 59.765C6.59166 57.89 5.18712 55.6466 4.2047 53.0081L0.456114 54.4039C1.62036 57.5307 3.31315 60.2553 5.54125 62.551L8.41157 59.765ZM4.20709 53.0146C3.22493 50.3487 2.72041 47.3815 2.72041 44.092H-1.27959C-1.27959 47.7945 -0.710784 51.2366 0.45372 54.3974L4.20709 53.0146ZM2.72041 44.092C2.72041 41.1377 3.29633 38.1118 4.4762 35.0038L0.736609 33.5842C-0.598187 37.1002 -1.27959 40.6063 -1.27959 44.092H2.72041ZM4.47042 35.0189C5.68031 31.9077 7.52939 28.6605 10.0518 25.2775L6.84504 22.8865C4.15409 26.4955 2.1085 30.0563 0.742397 33.5691L4.47042 35.0189ZM10.0543 25.2741L25.5563 4.39006L22.3445 2.00593L6.84248 22.8899L10.0543 25.2741ZM25.5357 4.41742C25.9097 3.9311 26.5364 3.41508 27.5403 2.92598L25.7885 -0.669983C24.4004 0.00624844 23.2177 0.870224 22.3652 1.97858L25.5357 4.41742ZM27.5403 2.92598C28.4247 2.49514 29.4823 2.254 30.7584 2.254V-1.746C28.9679 -1.746 27.2961 -1.40448 25.7885 -0.669981L27.5403 2.92598ZM30.7584 2.254H42.0284V-1.746H30.7584V2.254ZM40.4859 -1.01908L20.7059 22.9469L23.7909 25.4931L43.5709 1.52707L40.4859 -1.01908ZM23.9044 59.524C25.7999 59.524 27.5952 59.1894 29.2679 58.4985L27.7409 54.8015C26.5923 55.2759 25.3209 55.524 23.9044 55.524V59.524ZM29.2679 58.4985C30.9183 57.8169 32.3616 56.8536 33.5736 55.6049L30.7032 52.819C29.8912 53.6557 28.9119 54.3178 27.7409 54.8015L29.2679 58.4985ZM33.5736 55.6049C34.7637 54.3788 35.6968 52.9572 36.3729 51.3559L32.6879 49.8001C32.1987 50.9588 31.5372 51.9599 30.7032 52.819L33.5736 55.6049ZM36.3789 51.3415C37.0698 49.6688 37.4044 47.8735 37.4044 45.978H33.4044C33.4044 47.3945 33.1563 48.6658 32.6819 49.8145L36.3789 51.3415ZM37.4044 45.978C37.4044 43.9655 37.0972 42.092 36.4441 40.3867L32.7087 41.8173C33.1596 42.9946 33.4044 44.3718 33.4044 45.978H37.4044ZM36.4441 40.3867C35.798 38.6996 34.8629 37.2348 33.6227 36.0322L30.8381 38.9038C31.6219 39.6638 32.2508 40.6218 32.7087 41.8173L36.4441 40.3867ZM33.6446 36.0538C32.4181 34.8273 30.9571 33.9082 29.2897 33.292L27.9031 37.044C29.057 37.4704 30.0187 38.0847 30.8162 38.8822L33.6446 36.0538ZM29.2897 33.292C27.628 32.6779 25.8252 32.386 23.9044 32.386V36.386C25.4183 36.386 26.7435 36.6154 27.9031 37.044L29.2897 33.292ZM23.9044 32.386C22.0354 32.386 20.2745 32.7222 18.6495 33.4239L20.2353 37.0961C21.3089 36.6325 22.5228 36.386 23.9044 36.386V32.386ZM18.6851 33.4089C17.0761 34.0672 15.671 35.0265 14.49 36.2813L17.4028 39.0227C18.1845 38.1922 19.1101 37.5568 20.1997 37.1111L18.6851 33.4089ZM14.4887 36.2826C13.3483 37.4967 12.4663 38.9309 11.8299 40.5572L15.5549 42.0148C16.0225 40.8198 16.6432 39.8313 17.4041 39.0214L14.4887 36.2826ZM11.8164 40.5927C11.2037 42.2506 10.9104 44.0373 10.9104 45.932H14.9104C14.9104 44.4534 15.1384 43.1427 15.5684 41.9793L11.8164 40.5927ZM10.9104 45.932C10.9104 47.855 11.1635 49.6583 11.6951 51.3241L15.5057 50.1079C15.1173 48.891 14.9104 47.505 14.9104 45.932H10.9104ZM11.6989 51.336C12.2391 52.9925 13.0646 54.4568 14.1905 55.6953L17.1503 53.0047C16.4362 52.2192 15.8817 51.2609 15.5019 50.096L11.6989 51.336ZM14.1905 55.6953C15.3238 56.942 16.7109 57.89 18.3171 58.5471L19.8317 54.8449C18.7393 54.398 17.857 53.782 17.1503 53.0047L14.1905 55.6953ZM18.3316 58.553C19.9967 59.219 21.8685 59.524 23.9044 59.524V55.524C22.2603 55.524 20.9121 55.277 19.8172 54.839L18.3316 58.553Z" fill="#3EBA04"/>
</svg>
