<svg width="52" height="52" viewBox="0 0 52 52" fill="none" xmlns="http://www.w3.org/2000/svg">
<rect width="51.194" height="51.194" rx="10" fill="#4AD906" fill-opacity="0.43"/>
<g clip-path="url(#clip0_1_2416)">
<path d="M25.6037 32.4363C25.6037 32.8228 25.3804 33.174 25.0309 33.3379C24.8958 33.4018 24.751 33.4327 24.6071 33.4327C24.3793 33.4327 24.1536 33.3544 23.9714 33.2032L18.5244 28.6896H15.6233C15.0731 28.6901 14.627 28.2437 14.627 27.6935V23.7239C14.627 23.1735 15.0731 22.7273 15.6233 22.7273H18.5246L23.9716 18.2137C24.2692 17.9671 24.6819 17.9145 25.0311 18.0795C25.3804 18.2434 25.6039 18.5948 25.6039 18.9811L25.6037 32.4363ZM29.4327 30.8794C29.4084 30.8811 29.3851 30.882 29.361 30.882C29.0979 30.882 28.8441 30.778 28.6566 30.5903L28.5234 30.4566C28.1739 30.1078 28.1329 29.5553 28.4272 29.1586C29.1733 28.1526 29.5671 26.9601 29.5671 25.7091C29.5671 24.3635 29.12 23.1014 28.2739 22.059C27.9518 21.6628 27.9815 21.0874 28.3425 20.7266L28.4755 20.5934C28.6746 20.3944 28.9413 20.2859 29.2299 20.3031C29.511 20.3173 29.7735 20.4495 29.9518 20.6674C31.1255 22.1036 31.7454 23.8473 31.7454 25.7093C31.7454 27.4435 31.1971 29.0943 30.1595 30.4823C29.9862 30.7136 29.7211 30.8589 29.4327 30.8794ZM33.552 33.9585C33.3719 34.1715 33.1113 34.2993 32.8323 34.3111C32.8186 34.3116 32.8047 34.312 32.7906 34.312C32.5267 34.312 32.2734 34.2078 32.0859 34.0203L31.9551 33.8894C31.5893 33.5239 31.5645 32.9393 31.8971 32.5436C33.5039 30.6325 34.3892 28.2055 34.3892 25.7091C34.3892 23.1124 33.4414 20.6127 31.7211 18.6705C31.3724 18.2762 31.39 17.6794 31.7612 17.3068L31.8919 17.1759C32.0857 16.9811 32.3376 16.8738 32.6264 16.883C32.9007 16.8908 33.1601 17.012 33.3424 17.2172C35.4219 19.5584 36.5673 22.5745 36.5673 25.7091C36.5677 28.725 35.4969 31.6548 33.552 33.9585Z" fill="#F4A259"/>
</g>
<defs>
<clipPath id="clip0_1_2416">
<rect width="21.9403" height="21.9403" fill="white" transform="translate(14.627 14.6268)"/>
</clipPath>
</defs>
</svg>
