<svg width="925" height="1754" viewBox="0 0 925 1754" fill="none" xmlns="http://www.w3.org/2000/svg">
<g filter="url(#filter0_f_4_2900)">
<rect x="600" y="600" width="554" height="554" rx="277" fill="#4AD906"/>
</g>
<path fill-rule="evenodd" clip-rule="evenodd" d="M855.811 774.333C854.986 774.628 851.978 777.282 849.147 780.171C840.891 788.546 832.929 791.553 827.681 788.369C823.847 786.069 819.189 781.823 818.186 779.759C815.768 774.628 813.586 776.397 811.934 785.007C808.691 801.756 798.784 809.718 783.981 807.653C775.548 806.474 774.899 806.887 778.85 811.487C791.117 825.818 784.866 849.702 766.879 857.251C763.694 858.607 764.165 859.197 771.36 862.794C782.86 868.515 789.406 884.261 785.809 897.294C784.629 901.481 784.629 903.427 785.691 904.135C786.87 904.902 789.229 904.784 790.291 903.84C792.945 901.54 804.032 901.009 807.571 903.015C811.876 905.433 820.427 918.997 820.427 923.42C820.427 925.602 822.963 929.494 824.85 930.32C828.153 931.735 828.211 931.676 833.696 924.363C846.611 907.202 856.578 905.609 868.078 918.761C874.506 926.073 877.514 926.074 878.575 918.702C881.406 899.004 893.732 886.797 906.824 890.748C914.609 893.107 914.786 892.281 910.362 877.479C908.534 871.522 909.006 865.212 911.542 860.553C914.727 854.715 919.739 847.402 922.157 845.102C925.401 841.976 924.28 839.794 919.444 839.794C914.49 839.794 907.001 832.128 904.524 824.52C902.755 819.271 904.642 807.241 908.357 799.515C909.714 796.684 909.006 794.797 906.293 794.148C904.76 793.736 902.46 794.62 902.46 795.505C902.46 797.333 884.237 798.689 878.28 797.333C868.844 795.151 858.996 784.3 860.293 777.459C860.647 774.864 858.583 773.272 855.811 774.333ZM858.819 788.251C863.596 798.453 878.34 803.407 896.798 801.107L900.042 800.694L898.863 803.407C892.139 819.094 898.508 836.197 913.252 841.799C916.554 843.038 916.672 842.448 912.19 847.874C899.924 862.853 898.509 869.517 905.055 882.374C906.529 885.204 907.473 887.504 907.237 887.504C907.001 887.504 904.76 887.151 902.224 886.679C895.324 885.44 891.844 886.384 885.534 891.043C876.629 897.648 872.855 904.489 872.855 914.22V916.461L869.139 913.453C855.516 902.366 840.242 904.902 828.919 920.117L827.209 922.358L824.732 917.168C818.245 903.368 808.691 897.058 796.542 898.533L791.943 899.063L792.296 897.235C794.95 882.551 788.286 867.335 776.432 861.084L772.893 859.197L777.906 854.007C791.293 840.148 794.065 826.761 786.104 813.964L784.924 812.077L788.109 812.43C801.26 813.787 815.768 802.759 817.183 790.256L817.596 786.777L820.309 788.723C831.16 796.448 841.716 795.505 852.037 785.833C855.87 782.295 856.106 782.118 856.637 783.297C856.873 784.064 857.875 786.246 858.819 788.251ZM834.168 805.53C782.153 819.566 792.414 902.425 845.726 898.651C892.611 895.348 910.716 828.412 869.375 810.13C862.711 807.182 861.296 810.543 867.901 814.966C909.95 843.097 868.491 915.222 825.204 889.215C792.945 869.871 803.383 823.576 836.527 810.72C840.832 809.069 847.614 807.771 852.627 808.066C857.875 808.361 859.586 805.177 852.981 804.174C847.85 803.348 839.063 804.174 834.168 805.53Z" fill="white"/>
<defs>
<filter id="filter0_f_4_2900" x="0" y="0" width="1754" height="1754" filterUnits="userSpaceOnUse" color-interpolation-filters="sRGB">
<feFlood flood-opacity="0" result="BackgroundImageFix"/>
<feBlend mode="normal" in="SourceGraphic" in2="BackgroundImageFix" result="shape"/>
<feGaussianBlur stdDeviation="300" result="effect1_foregroundBlur_4_2900"/>
</filter>
</defs>
</svg>
