<svg width="48" height="69" viewBox="0 0 48 69" fill="none" xmlns="http://www.w3.org/2000/svg">
<path d="M2.87041 20.068L0.892808 19.7695L0.602434 21.6932L2.51742 22.0366L2.87041 20.068ZM5.63041 11.512L7.38284 12.4758L5.63041 11.512ZM10.6904 5.394L11.9427 6.95343L10.6904 5.394ZM17.5904 1.76L18.1818 3.67057L18.1888 3.66838L18.1959 3.66614L17.5904 1.76ZM34.5644 1.898L33.8772 3.77624L33.8909 3.78126L33.9047 3.78607L34.5644 1.898ZM41.0044 5.57799L39.6708 7.06848V7.06848L41.0044 5.57799ZM45.0064 11.052L43.1766 11.8593L43.1815 11.8705L43.1866 11.8816L45.0064 11.052ZM45.7424 23.38L43.818 22.8354L43.8145 22.8477L43.8112 22.8601L45.7424 23.38ZM43.7644 27.566L42.1595 26.3726L42.1495 26.386L42.1398 26.3996L43.7644 27.566ZM40.5444 30.602L39.4629 28.9196L39.4536 28.9256L39.4444 28.9317L40.5444 30.602ZM36.1744 32.672L35.542 30.7746L29.8039 32.6873L35.5511 34.5724L36.1744 32.672ZM45.7884 57.006L47.5858 57.8833L47.5898 57.8749L45.7884 57.006ZM40.7284 63.492L39.4546 61.9501L40.7284 63.492ZM33.3224 67.448L33.9106 69.3596L33.9237 69.3555L33.3224 67.448ZM9.35641 64.32L8.11963 65.8917L8.12582 65.8966L8.13206 65.9014L9.35641 64.32ZM4.52641 58.8L2.81346 59.8325L2.81984 59.8429L4.52641 58.8ZM0.984406 50.98L0.225959 49.1294L-1.51501 49.8429L-0.90902 51.6242L0.984406 50.98ZM6.59641 48.68L7.35487 50.5306L7.36564 50.5262L6.59641 48.68ZM10.6904 48.174L10.2616 50.1275L10.2713 50.1296L10.6904 48.174ZM13.4504 50.198L11.6718 51.1127L11.6762 51.1211L11.6806 51.1295L13.4504 50.198ZM15.3824 53.418L13.7343 54.5511L13.7462 54.5683L13.7584 54.5853L15.3824 53.418ZM17.7284 55.994L16.4268 57.5125L16.4427 57.5261L16.4589 57.5395L17.7284 55.994ZM20.6264 57.65L19.93 59.5248L19.9386 59.528L19.9471 59.5311L20.6264 57.65ZM29.0444 57.374L29.8527 59.2034L29.0444 57.374ZM32.3564 55.12L33.7944 56.51L33.8058 56.4983L33.8169 56.4863L32.3564 55.12ZM34.3344 51.946L32.4677 51.228L32.4626 51.2413L32.4577 51.2546L34.3344 51.946ZM34.6104 44.264L32.6569 44.6928L32.6592 44.703L34.6104 44.264ZM32.6784 41.09L31.3354 42.572L31.3596 42.5939L31.3845 42.615L32.6784 41.09ZM28.2624 39.066L27.7701 41.0045L27.788 41.009L27.806 41.0132L28.2624 39.066ZM20.3504 38.33H18.3504V40.33H20.3504V38.33ZM20.3504 29.406V27.406H18.3504V29.406H20.3504ZM27.2044 28.716L26.7036 26.7797L27.2044 28.716ZM33.4604 23.794L31.5681 23.1466L31.5604 23.1691L31.5532 23.1917L33.4604 23.794ZM31.7584 13.306L30.33 14.7059L30.3371 14.7131L30.3442 14.7202L31.7584 13.306ZM21.9144 11.558L22.5469 13.4554L22.5635 13.4498L22.58 13.444L21.9144 11.558ZM19.1544 12.984L17.964 11.3769L17.9494 11.3877L17.935 11.3988L19.1544 12.984ZM15.7964 17.86L17.666 18.5704L17.6976 18.4872L17.7217 18.4015L15.7964 17.86ZM13.5424 20.942L14.4836 22.7067L14.5062 22.6947L14.5284 22.682L13.5424 20.942ZM9.54041 21.264L9.18742 23.2326L9.20791 23.2363L9.22848 23.2395L9.54041 21.264ZM4.848 20.3665C5.30946 17.3094 6.16512 14.6899 7.38284 12.4758L3.87797 10.5482C2.39702 13.2408 1.41269 16.3253 0.892808 19.7695L4.848 20.3665ZM7.38284 12.4758C8.61604 10.2337 10.1384 8.40235 11.9427 6.95343L9.43814 3.83457C7.19446 5.63631 5.34344 7.88368 3.87797 10.5482L7.38284 12.4758ZM11.9427 6.95343C13.7628 5.49179 15.8367 4.39642 18.1818 3.67057L16.999 -0.150574C14.1921 0.718241 11.666 2.04554 9.43814 3.83457L11.9427 6.95343ZM18.1959 3.66614C20.5884 2.90616 23.1884 2.51799 26.0084 2.51799V-1.48201C22.8178 -1.48201 19.8057 -1.04217 16.9849 -0.146148L18.1959 3.66614ZM26.0084 2.51799C29.007 2.51799 31.6203 2.95053 33.8772 3.77624L35.2516 0.0197533C32.4792 -0.994542 29.3885 -1.48201 26.0084 -1.48201V2.51799ZM33.9047 3.78607C36.2383 4.60141 38.1462 5.70436 39.6708 7.06848L42.338 4.08751C40.3666 2.32363 37.9812 0.97325 35.2241 0.00992668L33.9047 3.78607ZM39.6708 7.06848C41.213 8.44833 42.3749 10.0421 43.1766 11.8593L46.8362 10.2447C45.798 7.89125 44.2918 5.83566 42.338 4.08751L39.6708 7.06848ZM43.1866 11.8816C44.0133 13.6951 44.4324 15.6494 44.4324 17.768H48.4324C48.4324 15.1026 47.9008 12.5796 46.8262 10.2224L43.1866 11.8816ZM44.4324 17.768C44.4324 19.7441 44.2171 21.4253 43.818 22.8354L47.6668 23.9246C48.1877 22.084 48.4324 20.0239 48.4324 17.768H44.4324ZM43.8112 22.8601C43.4402 24.2379 42.8832 25.3993 42.1595 26.3726L45.3693 28.7594C46.4242 27.3407 47.1859 25.7114 47.6736 23.8999L43.8112 22.8601ZM42.1398 26.3996C41.4339 27.3828 40.5476 28.2223 39.4629 28.9196L41.6259 32.2844C43.1172 31.3257 44.3776 30.1412 45.3891 28.7324L42.1398 26.3996ZM39.4444 28.9317C38.3533 29.6502 37.0585 30.2691 35.542 30.7746L36.8069 34.5694C38.6023 33.9709 40.2208 33.2098 41.6444 32.2723L39.4444 28.9317ZM35.5511 34.5724C39.0981 35.7358 41.5873 37.4401 43.2 39.5883C44.8066 41.7283 45.6744 44.483 45.6744 47.99H49.6744C49.6744 43.7997 48.6255 40.1527 46.3988 37.1867C44.1782 34.2289 40.9174 32.1229 36.7977 30.7716L35.5511 34.5724ZM45.6744 47.99C45.6744 51.1458 45.0925 53.8452 43.987 56.1371L47.5898 57.8749C48.999 54.9535 49.6744 51.6422 49.6744 47.99H45.6744ZM43.9911 56.1287C42.8532 58.46 41.3409 60.3918 39.4546 61.9501L42.0022 65.0339C44.3479 63.0962 46.209 60.704 47.5857 57.8833L43.9911 56.1287ZM39.4546 61.9501C37.5522 63.5217 35.3161 64.7225 32.7211 65.5405L33.9237 69.3555C36.9713 68.3948 39.6726 66.9583 42.0022 65.0339L39.4546 61.9501ZM32.7342 65.5364C30.1435 66.3336 27.4138 66.736 24.5364 66.736V70.736C27.7924 70.736 30.92 70.2797 33.9106 69.3596L32.7342 65.5364ZM24.5364 66.736C21.4315 66.736 18.7622 66.3839 16.5026 65.7144L15.3662 69.5496C18.0746 70.3521 21.14 70.736 24.5364 70.736V66.736ZM16.5026 65.7144C14.2377 65.0433 12.2714 64.0474 10.5808 62.7386L8.13206 65.9014C10.2441 67.5366 12.6631 68.7487 15.3662 69.5496L16.5026 65.7144ZM10.5932 62.7483C8.92492 61.4355 7.46919 59.78 6.23297 57.7571L2.81984 59.8429C4.28229 62.236 6.04656 64.2605 8.11963 65.8917L10.5932 62.7483ZM6.23932 57.7676C4.97693 55.6731 3.85266 53.2012 2.87783 50.3358L-0.90902 51.6242C0.140157 54.7081 1.37722 57.4495 2.81349 59.8324L6.23932 57.7676ZM1.74285 52.8306L7.35485 50.5306L5.83796 46.8294L0.225959 49.1294L1.74285 52.8306ZM7.36564 50.5262C8.55014 50.0326 9.49206 49.9586 10.2616 50.1275L11.1192 46.2205C9.37408 45.8374 7.58667 46.1007 5.82718 46.8338L7.36564 50.5262ZM10.2713 50.1296C11.034 50.293 11.4214 50.6257 11.6718 51.1127L15.229 49.2833C14.3754 47.6236 12.9228 46.607 11.1095 46.2184L10.2713 50.1296ZM11.6806 51.1295C12.3267 52.3572 13.0108 53.4986 13.7343 54.5511L17.0305 52.2849C16.4047 51.3747 15.8008 50.3695 15.2202 49.2665L11.6806 51.1295ZM13.7584 54.5853C14.5505 55.6873 15.4391 56.6659 16.4268 57.5125L19.03 54.4755C18.3004 53.8501 17.625 53.1114 17.0064 52.2507L13.7584 54.5853ZM16.4589 57.5395C17.4942 58.3899 18.6551 59.0513 19.93 59.5248L21.3228 55.7752C20.451 55.4514 19.6799 55.0088 18.9979 54.4485L16.4589 57.5395ZM19.9471 59.5311C21.3079 60.0225 22.8015 60.248 24.3984 60.248V56.248C23.1739 56.248 22.1529 56.0748 21.3057 55.7689L19.9471 59.5311ZM24.3984 60.248C26.3921 60.248 28.2273 59.9216 29.8527 59.2034L28.2361 55.5446C27.2242 55.9917 25.962 56.248 24.3984 56.248V60.248ZM29.8527 59.2034C31.3779 58.5295 32.7042 57.6379 33.7944 56.51L30.9184 53.73C30.23 54.4421 29.3483 55.0532 28.2361 55.5446L29.8527 59.2034ZM33.8169 56.4863C34.8797 55.3503 35.6851 54.0652 36.2111 52.6374L32.4577 51.2546C32.1251 52.1574 31.6118 52.9884 30.8959 53.7537L33.8169 56.4863ZM36.2011 52.664C36.7404 51.2617 37.0244 49.8381 37.0244 48.404H33.0244C33.0244 49.3005 32.8484 50.2383 32.4677 51.228L36.2011 52.664ZM37.0244 48.404C37.0244 46.7539 36.8762 45.2231 36.5616 43.825L32.6592 44.703C32.8966 45.7583 33.0244 46.9874 33.0244 48.404H37.0244ZM36.5639 43.8352C36.1909 42.136 35.3071 40.6975 33.9724 39.565L31.3845 42.615C32.0737 43.1998 32.4779 43.8773 32.6569 44.6928L36.5639 43.8352ZM34.0214 39.608C32.691 38.4023 30.8535 37.6191 28.7188 37.1188L27.806 41.0132C29.5966 41.4329 30.7032 41.999 31.3354 42.572L34.0214 39.608ZM28.7547 37.1275C26.5899 36.5777 23.7635 36.33 20.3504 36.33V40.33C23.6227 40.33 26.0709 40.5729 27.7701 41.0045L28.7547 37.1275ZM22.3504 38.33V29.406H18.3504V38.33H22.3504ZM20.3504 31.406C23.2323 31.406 25.7018 31.1704 27.7052 30.6523L26.7036 26.7797C25.1497 27.1816 23.0498 27.406 20.3504 27.406V31.406ZM27.7052 30.6523C29.6582 30.1472 31.3492 29.4018 32.6569 28.3319L30.1239 25.2361C29.4076 25.8222 28.308 26.3648 26.7036 26.7797L27.7052 30.6523ZM32.6569 28.3319C33.9478 27.2757 34.8742 25.9587 35.3676 24.3963L31.5532 23.1917C31.3106 23.96 30.857 24.6363 30.1239 25.2361L32.6569 28.3319ZM35.3527 24.4414C35.8307 23.0442 36.0584 21.55 36.0584 19.976H32.0584C32.0584 21.162 31.8874 22.2132 31.5681 23.1466L35.3527 24.4414ZM36.0584 19.976C36.0584 16.72 35.1957 13.9148 33.1726 11.8918L30.3442 14.7202C31.3878 15.7638 32.0584 17.4054 32.0584 19.976H36.0584ZM33.1868 11.9061C31.2045 9.88333 28.478 9.006 25.3184 9.006V13.006C27.7402 13.006 29.307 13.662 30.33 14.7059L33.1868 11.9061ZM25.3184 9.006C23.8897 9.006 22.5273 9.22076 21.2488 9.67201L22.58 13.444C23.3868 13.1592 24.2938 13.006 25.3184 13.006V9.006ZM21.2819 9.66063C20.0769 10.0623 18.9674 10.6336 17.964 11.3769L20.3449 14.5911C20.9974 14.1077 21.7279 13.7284 22.5469 13.4554L21.2819 9.66063ZM17.935 11.3988C16.9768 12.1358 16.1467 13.0032 15.4488 13.995L18.72 16.297C19.1874 15.6328 19.7374 15.0588 20.3738 14.5692L17.935 11.3988ZM15.4488 13.995C14.7348 15.0096 14.208 16.1206 13.8711 17.3185L17.7217 18.4015C17.9368 17.6367 18.2687 16.9384 18.72 16.297L15.4488 13.995ZM13.9268 17.1496C13.4231 18.4752 12.9 19.0072 12.5564 19.202L14.5284 22.682C16.0248 21.8341 17.0044 20.3114 17.666 18.5704L13.9268 17.1496ZM12.6012 19.1773C12.2514 19.3639 11.4414 19.5394 9.85233 19.2885L9.22848 23.2395C11.1354 23.5406 12.9934 23.5015 14.4836 22.7067L12.6012 19.1773ZM9.8934 19.2954L3.2234 18.0994L2.51742 22.0366L9.18742 23.2326L9.8934 19.2954Z" fill="#3EBA04"/>
</svg>
