<svg width="23" height="18" viewBox="0 0 23 18" fill="none" xmlns="http://www.w3.org/2000/svg">
<g clip-path="url(#clip0_4_2775)">
<path d="M7.59231 17.5272C15.8955 17.5272 20.4362 10.8121 20.4362 4.98901C20.4362 4.79827 20.4322 4.60841 20.4234 4.4194C21.3048 3.79737 22.0709 3.02114 22.6752 2.1375C21.8663 2.48846 20.9959 2.72473 20.0828 2.83126C21.0148 2.2857 21.7303 1.4227 22.0679 0.393898C21.1957 0.898646 20.2298 1.2655 19.2014 1.46356C18.3777 0.607024 17.2049 0.0712891 15.9064 0.0712891C13.4135 0.0712891 11.392 2.04478 11.392 4.47738C11.392 4.82318 11.4316 5.15954 11.509 5.48218C7.75724 5.29789 4.43043 3.54437 2.20395 0.878024C1.81627 1.52925 1.59273 2.28572 1.59273 3.09289C1.59273 4.62175 2.38968 5.97143 3.60156 6.76101C2.86095 6.73867 2.16523 6.5402 1.55714 6.20986C1.55648 6.22835 1.55648 6.24638 1.55648 6.26614C1.55648 8.40028 3.11249 10.1821 5.17802 10.5859C4.7987 10.6868 4.39961 10.741 3.9877 10.741C3.69727 10.741 3.41432 10.7131 3.13929 10.6615C3.71399 12.4124 5.38047 13.6866 7.35622 13.7222C5.8112 14.9043 3.86492 15.6084 1.74962 15.6084C1.3857 15.6084 1.02619 15.5882 0.672852 15.5474C2.67068 16.7975 5.04291 17.5269 7.59256 17.5269" fill="white"/>
</g>
<defs>
<clipPath id="clip0_4_2775">
<rect width="22.1497" height="17.6" fill="white" transform="translate(0.598633)"/>
</clipPath>
</defs>
</svg>
