<svg width="47" height="68" viewBox="0 0 47 68" fill="none" xmlns="http://www.w3.org/2000/svg">
<path d="M45.5704 57.512L44.1562 58.9262L44.1701 58.9401L44.1842 58.9537L45.5704 57.512ZM46.7664 68V70H48.7664V68H46.7664ZM0.490407 68H-1.50959V70H0.490407V68ZM0.996407 61.284L2.87416 61.9725L2.87776 61.9627L2.88126 61.9528L0.996407 61.284ZM2.69841 58.708L4.08462 60.1497L4.09959 60.1353L4.11426 60.1206L2.69841 58.708ZM22.4784 38.882L21.0642 37.4678L21.0626 37.4694L22.4784 38.882ZM26.9404 34.052L28.4718 35.3384L28.4781 35.3309L28.4843 35.3234L26.9404 34.052ZM30.1604 29.498L31.888 30.5057L31.8925 30.498L31.8969 30.4903L30.1604 29.498ZM30.4364 13.352L29.0083 14.7521L29.0152 14.7592L29.0222 14.7662L30.4364 13.352ZM20.5464 11.558L21.1789 13.4554L21.1955 13.4498L21.212 13.444L20.5464 11.558ZM17.7864 12.984L16.596 11.3769L16.5814 11.3877L16.567 11.3988L17.7864 12.984ZM15.7164 15.146L14.0808 13.995V13.995L15.7164 15.146ZM14.4284 17.86L16.3102 18.5374L16.3344 18.4702L16.3537 18.4015L14.4284 17.86ZM12.1744 20.942L13.1156 22.7067L13.1259 22.7012L13.1361 22.6956L12.1744 20.942ZM8.21841 21.264L7.86776 23.233L7.88438 23.236L7.90105 23.2387L8.21841 21.264ZM1.50241 20.068L-0.475192 19.7695L-0.765912 21.6955L1.15176 22.037L1.50241 20.068ZM9.32241 5.394L8.07014 3.83457V3.83457L9.32241 5.394ZM16.2684 1.76L16.8534 3.67253L16.8637 3.66939L16.8739 3.66614L16.2684 1.76ZM33.2884 1.94399L32.596 3.8203L32.6093 3.82523L32.6228 3.82997L33.2884 1.94399ZM39.9584 5.854L38.607 7.32831L38.6137 7.33448L38.6205 7.34058L39.9584 5.854ZM44.2364 11.88L46.0747 11.0922V11.0922L44.2364 11.88ZM44.6964 26.508L42.8018 25.8672L44.6964 26.508ZM41.7984 32.488L40.1178 31.4037L40.1134 31.4107L41.7984 32.488ZM37.6124 37.962L36.1233 36.6269L37.6124 37.962ZM32.5524 43.344L31.1262 41.9419L31.1224 41.9458L32.5524 43.344ZM18.3844 57.834L16.9544 56.4358L11.5969 61.915L18.9487 59.7527L18.3844 57.834ZM23.0304 56.776L23.3464 58.7509L23.3656 58.7478L23.3847 58.7444L23.0304 56.776ZM42.3504 58.362C43.3519 58.362 43.8599 58.6299 44.1562 58.9262L46.9846 56.0978C45.7476 54.8608 44.1089 54.362 42.3504 54.362V58.362ZM44.1842 58.9537C44.5343 59.2903 44.7664 59.7533 44.7664 60.548H48.7664C48.7664 58.8281 48.2012 57.267 46.9566 56.0703L44.1842 58.9537ZM44.7664 60.548V68H48.7664V60.548H44.7664ZM46.7664 66H0.490407V70H46.7664V66ZM2.49041 68V63.86H-1.50959V68H2.49041ZM2.49041 63.86C2.49041 63.3444 2.59982 62.7207 2.87416 61.9725L-0.881346 60.5955C-1.28167 61.6873 -1.50959 62.7809 -1.50959 63.86H2.49041ZM2.88126 61.9528C3.10494 61.3225 3.4893 60.7221 4.08462 60.1497L1.31219 57.2663C0.312843 58.2272 -0.43746 59.3442 -0.888449 60.6152L2.88126 61.9528ZM4.11426 60.1206L23.8943 40.2946L21.0626 37.4694L1.28255 57.2954L4.11426 60.1206ZM23.8926 40.2962C25.6127 38.5761 27.1404 36.9234 28.4718 35.3384L25.409 32.7656C24.1644 34.2473 22.7174 35.8146 21.0642 37.4678L23.8926 40.2962ZM28.4843 35.3234C29.8281 33.6916 30.9663 32.0858 31.888 30.5057L28.4328 28.4903C27.6372 29.8542 26.6287 31.2844 25.3965 32.7806L28.4843 35.3234ZM31.8969 30.4903C32.8301 28.8572 33.541 27.1879 34.0183 25.4833L30.1665 24.4047C29.7851 25.7668 29.2081 27.1334 28.4239 28.5057L31.8969 30.4903ZM34.0183 25.4833C34.4996 23.7643 34.7364 21.9722 34.7364 20.114H30.7364C30.7364 21.6292 30.5438 23.057 30.1665 24.4047L34.0183 25.4833ZM34.7364 20.114C34.7364 16.8106 33.8809 13.9681 31.8506 11.9378L29.0222 14.7662C30.0586 15.8026 30.7364 17.4681 30.7364 20.114H34.7364ZM31.8646 11.9519C29.8589 9.90604 27.1233 9.006 23.9504 9.006V13.006C26.3588 13.006 27.9473 13.67 29.0083 14.7521L31.8646 11.9519ZM23.9504 9.006C22.5217 9.006 21.1593 9.22076 19.8808 9.67201L21.212 13.444C22.0188 13.1592 22.9258 13.006 23.9504 13.006V9.006ZM19.9139 9.66063C18.7089 10.0623 17.5994 10.6336 16.596 11.3769L18.9769 14.5911C19.6294 14.1077 20.3599 13.7284 21.1789 13.4554L19.9139 9.66063ZM16.567 11.3988C15.6088 12.1358 14.7787 13.0032 14.0808 13.995L17.352 16.297C17.8194 15.6328 18.3694 15.0588 19.0058 14.5692L16.567 11.3988ZM14.0808 13.995C13.3668 15.0096 12.84 16.1206 12.5031 17.3185L16.3537 18.4015C16.5688 17.6367 16.9007 16.9384 17.352 16.297L14.0808 13.995ZM12.5466 17.1826C12.0792 18.4809 11.5651 18.9951 11.2127 19.1884L13.1361 22.6956C14.685 21.8462 15.6736 20.3058 16.3102 18.5374L12.5466 17.1826ZM11.2332 19.1773C10.881 19.3651 10.0844 19.5382 8.53576 19.2893L7.90105 23.2387C9.78709 23.5418 11.6278 23.5002 13.1156 22.7067L11.2332 19.1773ZM8.56905 19.295L1.85305 18.099L1.15176 22.037L7.86776 23.233L8.56905 19.295ZM3.48 20.3665C3.94146 17.3094 4.79712 14.6899 6.01484 12.4758L2.50997 10.5482C1.02902 13.2408 0.0446873 16.3253 -0.475192 19.7695L3.48 20.3665ZM6.01484 12.4758C7.24804 10.2337 8.77036 8.40235 10.5747 6.95343L8.07014 3.83457C5.82646 5.63631 3.97544 7.88368 2.50997 10.5482L6.01484 12.4758ZM10.5747 6.95343C12.3909 5.49497 14.4772 4.39936 16.8534 3.67253L15.6834 -0.152531C12.8463 0.715301 10.3019 2.04236 8.07014 3.83457L10.5747 6.95343ZM16.8739 3.66614C19.2664 2.90616 21.8664 2.51799 24.6864 2.51799V-1.48201C21.4958 -1.48201 18.4837 -1.04217 15.6629 -0.146148L16.8739 3.66614ZM24.6864 2.51799C27.6438 2.51799 30.2723 2.96275 32.596 3.8203L33.9809 0.0676904C31.1525 -0.976097 28.0464 -1.48201 24.6864 -1.48201V2.51799ZM32.6228 3.82997C35.0028 4.67 36.9859 5.84229 38.607 7.32831L41.3099 4.37969C39.251 2.49237 36.7873 1.058 33.9541 0.058015L32.6228 3.82997ZM38.6205 7.34058C40.2368 8.79529 41.4959 10.5626 42.3981 12.6678L46.0747 11.0922C44.9529 8.47474 43.36 6.2247 41.2963 4.36741L38.6205 7.34058ZM42.3981 12.6678C43.2922 14.7541 43.7544 17.0889 43.7544 19.7H47.7544C47.7544 16.6071 47.2046 13.7286 46.0747 11.0922L42.3981 12.6678ZM43.7544 19.7C43.7544 21.9601 43.4299 24.0105 42.8018 25.8672L46.591 27.1488C47.3736 24.8349 47.7544 22.3465 47.7544 19.7H43.7544ZM42.8018 25.8672C42.1508 27.7922 41.2577 29.637 40.1178 31.4037L43.479 33.5723C44.7925 31.5364 45.8314 29.3945 46.591 27.1488L42.8018 25.8672ZM40.1134 31.4107C38.9798 33.1837 37.6512 34.9227 36.1233 36.6269L39.1015 39.2971C40.763 37.444 42.225 35.5336 43.4835 33.5653L40.1134 31.4107ZM36.1233 36.6269C34.5503 38.3814 32.8847 40.1531 31.1262 41.9419L33.9787 44.7461C35.7775 42.9162 37.4852 41.0999 39.1015 39.2971L36.1233 36.6269ZM31.1224 41.9458L16.9544 56.4358L19.8144 59.2322L33.9824 44.7422L31.1224 41.9458ZM18.9487 59.7527C20.4353 59.3155 21.901 58.9821 23.3464 58.7509L22.7144 54.8011C21.0932 55.0605 19.4616 55.4325 17.8201 55.9153L18.9487 59.7527ZM23.3847 58.7444C24.8186 58.4863 26.1404 58.362 27.3544 58.362V54.362C25.8697 54.362 24.3089 54.5137 22.6761 54.8076L23.3847 58.7444ZM27.3544 58.362H42.3504V54.362H27.3544V58.362Z" fill="#3EBA04"/>
</svg>
